<?xml version="1.0" encoding="utf-8"?>
<svg viewBox="0 0 600 800" xmlns="http://www.w3.org/2000/svg" xmlns:xlink="http://www.w3.org/1999/xlink">
  <!--Generated by AMDN-->
  <g id="am1">
    <g id="am2" style="opacity:0.7;">
      <g id="am4">
        <path style="fill:#9e9e9e;fill-opacity:1;fill-rule:nonzero;opacity:1;stroke:none;" d="M288.506,142.906 C290.205,149.501,289.595,157.294,285.494,162.964 C284.31,164.601,282.606,166.667,280.653,167.463 C278.31,168.419,276.238,169.896,273.886,170.791 C270.651,172.024,267.089,172.529,264.165,174.433 C262.95,175.225,261.473,176.013,260.625,177.204 C260.332,177.615,259.936,178.38,260.438,178.789 C261.185,179.397,263.076,179.195,264.041,179.489 C268.662,180.895,274.276,180.864,279.088,180.916 C287.554,181.008,295.989,181.546,304.466,181.494 C310.298,181.459,316.126,180.817,321.947,180.588 C326.639,180.404,331.08,179.213,335.323,177.292 C336.947,176.556,338.874,175.913,339.918,174.398 C340.356,173.763,339.24,173.455,338.779,173.301 C337.079,172.736,335.441,172.123,333.715,171.648 C329.757,170.56,326.233,168.361,322.959,165.989 C316.762,161.499,316.334,155.02,316.822,148.072 C316.993,145.632,316.675,143.251,317.685,140.919 C316.984,141.392,316.647,142.442,316.087,143.078 C314.925,144.395,313.228,145.692,311.681,146.555 C303.874,150.906,295.24,147.431,288.506,142.906 z"/>
      </g>
      <g id="am6">
        <path style="fill:#9e9e9e;fill-opacity:1;fill-rule:nonzero;opacity:1;stroke:none;" d="M299.093,73.3278 C291.768,75.5493,282.674,80.6124,279.147,87.5914 C277.447,90.9575,278.025,94.839,277.855,98.4365 C277.402,108.005,277.247,119.197,280.722,128.277 C283.198,134.745,286.964,143.34,293.573,146.795 C295.67,147.891,298.41,148.089,300.728,148.489 C302.034,148.714,302.924,149.624,304.357,149.549 C305.555,149.486,306.351,148.402,307.463,148.039 C309.634,147.329,312.118,146.747,313.989,145.397 C320.1,140.99,321.692,133.653,324.332,127.296 C327.803,118.939,328.003,110.232,328.672,101.384 C328.977,97.3435,329.721,92.4647,328.216,88.5699 C323.816,77.1819,310.092,69.9921,299.093,73.3278 z"/>
      </g>
      <g id="am8">
        <path style="fill:#9e9e9e;fill-opacity:1;fill-rule:nonzero;opacity:1;stroke:none;" d="M263.79,174.467 C260.251,178.665,255.896,178.414,250.974,179.787 C248.048,180.603,245.148,182.273,242.693,183.988 C239.422,186.274,235.712,190.262,234.34,193.998 C233.456,196.403,233.348,199.167,232.626,201.642 C230.677,208.323,228.842,215.416,228.624,222.405 C228.523,225.637,228.375,228.74,228.72,231.973 C228.86,233.283,229.153,235.049,230.361,235.882 C231.008,236.328,232.632,236.602,233.287,236.094 C234.384,235.243,235.078,233.596,236.252,232.898 C239.195,231.15,242.496,230.489,245.874,229.85 C249.182,229.225,252.818,228.876,255.953,227.61 C261.341,225.433,265.975,221.607,270.706,218.382 C284.565,208.937,296.959,196.097,303.701,180.832"/>
      </g>
      <g id="am10">
        <path style="fill:#9e9e9e;fill-opacity:1;fill-rule:nonzero;opacity:1;stroke:none;" d="M229.465,230.068 C229.465,234.624,227.967,238.788,227.384,243.293 C226.229,252.209,225.464,261.396,223.166,270.157 C220.64,279.786,216.18,288.912,213.113,298.333 C211.551,303.13,211.014,308.022,209.708,312.857 C207.694,320.313,204.931,326.975,204.29,334.767 C203.596,343.218,202.464,351.609,202.464,360.112 C202.464,364,203.646,368.317,208.246,369.162 C210.865,369.643,213.055,364.063,213.848,362.26 C217.432,354.105,218.955,345.361,223.186,337.398 C227.653,328.991,234.212,321.813,237.842,312.984 C240.878,305.6,240.435,297.12,243.575,289.748 C249.602,275.596,257.371,260.963,258.162,245.324 C258.511,238.424,254.506,232.696,254.051,226.068"/>
      </g>
      <g id="am12">
        <path style="fill:#9e9e9e;fill-opacity:1;fill-rule:nonzero;opacity:1;stroke:none;" d="M202.891,354.962 C202.715,357.68,202.226,360.378,201.994,363.096 C201.572,368.044,201.683,373.046,201.027,377.99 C199.951,386.094,198.718,393.829,199.066,402.051 C199.268,406.819,201.51,411.366,202.135,416.141 C202.851,421.613,204.594,427.375,207.763,432.059 C208.497,433.145,210.182,435.976,211.624,436.086 C213.055,436.196,212.283,433.368,212.211,432.641 C212.178,432.308,212.041,431.383,212.637,431.489 C213.359,431.617,213.824,432.758,214.279,433.24 C215.33,434.353,217.864,436.256,219.55,435.902 C221.092,435.578,219.415,432.582,218.955,431.929 C218.254,430.931,217.043,430.463,216.365,429.521 C215.938,428.928,215.884,428.074,215.507,427.431 C214.705,426.064,213.79,425.162,213.105,423.664 C212.721,422.822,211.524,421.427,211.972,420.428 C212.288,419.723,213.952,422.047,214.236,422.288 C216.22,423.971,217.227,426.114,219.898,426.814 C220.497,426.97,222.248,427.193,222.609,426.57 C223.569,424.912,221.937,423.016,220.849,421.969 C218.547,419.754,214.278,417.378,213.427,414.116 C213.213,413.295,215.618,415.018,215.986,415.224 C217.366,415.996,220.354,417.083,220.654,414.564 C221.043,411.298,216.716,411.873,214.854,410.824 C213.981,410.333,212.602,409.62,211.958,408.868 C210.035,406.623,210.902,403.249,211.709,400.788 C212.094,399.612,212.069,398.528,213.075,397.626 C214.559,396.297,215.884,398.333,216.375,399.537 C218.097,403.757,219.999,407.687,222.223,411.742 C222.783,412.765,225.534,416.117,226.499,413.633 C227.273,411.638,225.786,408.861,225.201,406.991 C224.309,404.14,223.785,401.202,222.879,398.35 C222.293,396.505,221.156,394.729,220.441,392.93 C218.779,388.752,218.956,384.067,218.071,379.708 C217.502,376.903,215.883,374.341,215.034,371.632 C213.474,366.65,213.745,361.518,215.109,356.555"/>
      </g>
      <g id="am14">
        <path style="fill:#9e9e9e;fill-opacity:1;fill-rule:nonzero;opacity:1;stroke:none;" d="M257.593,245.9 C262.227,248.034,260.803,253.43,261.216,257.788 C261.609,261.94,263.399,266.18,264.551,270.175 C266.632,277.4,268.246,287.974,266.483,295.381 C265.327,300.236,261.254,305.077,260.726,310.114 C260.403,313.202,256.458,315.531,255.249,319.083 C252.304,327.735,252.56,337.298,249.869,346.118 C243.664,366.459,236.755,386.99,235.576,408.36 C234.857,421.397,237.198,434.585,239.281,447.406 C240.588,455.458,242.678,463.321,244.157,471.336 C244.812,474.884,245.547,479.342,247.376,482.832 C249.248,486.402,248.504,490.955,249.364,495.031 C250.516,500.487,253.038,506.238,253.323,511.802 C253.765,520.439,254.868,530.03,254.004,538.626 C253.304,545.592,251.06,552.428,250.928,559.472 C250.605,576.689,252.781,593.455,255.381,610.405 C256.445,617.336,258.002,624.716,260.162,631.657 C263.248,641.577,266.077,651.753,269.041,661.763 C269.702,663.997,270.728,666.154,271.275,668.413 C272.626,673.989,274.354,680.362,274.318,686.108 C274.293,690.084,274.26,694.079,274.156,698.063 C274.098,700.292,273.98,703.49,273.162,705.568 C272.727,706.673,271.594,707.419,270.921,708.358 C270.498,708.948,270.438,709.749,270.041,710.374 C269.367,711.434,268.336,712.241,267.564,713.227 C266.803,714.199,266.379,715.401,265.57,716.401 C264.531,717.685,262.987,718.215,262.062,719.645 C261.071,721.177,256.839,726.434,260.974,727.241 C263.761,727.785,266.561,726.714,269.314,726.822 C270.978,726.888,272.613,727.476,274.287,727.59 C278.311,727.864,282.484,727.857,286.509,727.647 C288.802,727.528,292.63,728.241,294.471,726.562 C299.879,721.628,295.822,713.084,296.363,707.023 C296.754,702.635,298.191,698.657,297.68,694.19 C297.425,691.964,296.475,690.163,295.769,688.084 C294.802,685.237,294.029,682.306,293.233,679.411 C289.809,666.963,289.21,653.625,287.77,640.885 C287.549,638.934,287.021,636.776,287.114,635.424 C287.74,626.339,287.632,617.156,288.631,608.13 C288.992,604.865,290.49,602.031,291.514,598.955 C293.125,594.115,294.246,588.697,294.177,583.593 C293.996,570.161,289.602,557.493,287.683,544.307 C287.238,541.253,288.263,538.061,288.283,535.01 C288.322,529.255,287.704,523.475,287.735,517.782 C287.75,514.903,289.376,511.717,290.439,509.078 C291.855,505.565,293.083,501.679,293.945,497.997 C295.604,490.908,294.403,483.058,292.915,476.075 C292.68,474.974,292.375,473.881,292.509,472.756 C293.143,467.442,294.213,462.062,295.406,456.781 C297.218,448.765,297.874,440.527,298.543,432.366 C299.175,424.668,300.551,417.137,300.7,409.37 C300.854,401.377,299.154,392.262,297.367,384.335 C301.374,385.795,304.983,385.565,309.099,383.711 C305.973,396.63,304.124,409.943,304.686,422.894 C304.844,426.537,305.936,430.036,306.397,433.623 C307.467,441.955,308.726,450.281,310.179,458.551 C310.922,462.778,312.426,467.281,312.917,471.617 C313.626,477.869,310.069,484.164,310.38,490.578 C310.824,499.765,314.466,508.089,316.398,516.994 C317.427,521.74,316.704,526.951,316.829,531.777 C316.95,536.439,318.332,541.203,318.291,545.808 C318.263,548.906,317.079,551.393,316.553,554.336 C315.005,562.997,312.398,571.181,311.695,580.012 C311.553,581.804,311.808,583.605,311.802,585.396 C311.785,590.596,312.843,597.163,315.418,601.775 C315.474,601.875,315.53,601.978,315.586,602.084 C319.209,608.887,317.444,617.263,317.718,624.835 C318.401,643.625,317.633,662.974,312.176,681.05 C310.287,687.31,307.465,692.875,307.256,699.59 C307.145,703.152,308.863,706.648,308.731,710.201 C308.571,714.512,307.986,722.254,311.072,725.711 C312.42,727.221,314.875,726.507,316.721,727.002 C318.377,727.447,320.065,728.333,321.79,728.451 C324.318,728.623,326.798,727.871,329.215,727.902 C331.957,727.937,334.829,728.541,337.561,728.3 C339.057,728.169,342.65,727.961,343.743,726.953 C344.632,726.132,344.578,723.447,344.406,722.331 C344.001,719.693,342.013,718.529,340.488,716.559 C337.482,712.677,333.954,708.62,331.793,704.223 C330.974,702.556,331.247,700.663,331.029,698.9 C330.342,693.332,330.783,687.304,331.177,681.707 C331.607,675.585,333.96,669.583,335.971,663.841 C337.643,659.064,338.771,654.037,340.255,649.183 C342.014,643.43,342.996,637.532,344.616,631.761 C348.448,618.106,350.666,604.569,353.273,590.664 C354.198,585.734,353.839,580.717,353.948,575.683 C354.103,568.501,354.965,561.298,354.382,554.061 C353.608,544.442,350.986,535.059,351.104,525.309 C351.219,515.771,353.881,507.025,356.25,497.883 C357.428,493.336,356.855,488.425,357.638,483.841 C358.076,481.281,360.033,478.411,360.838,475.816 C361.548,473.526,361.173,470.598,361.661,468.231 C362.663,463.37,363.369,458.454,364.224,453.859 C367.605,435.685,370.321,416.319,368.465,397.813 C366.53,378.513,360.537,360.107,354.559,341.714 C350.932,330.553,350.383,319.361,344.293,308.796 C343.901,308.117,343.383,307.455,343.178,306.737 C342.103,302.972,341.022,299.241,339.992,295.467 C338.328,289.372,338.333,281.731,339.348,275.52 C340.369,269.273,342.658,263.135,343.937,256.902 C344.621,253.568,344.339,249.587,345.532,246.4 C346.639,243.443,349.774,241.325,351.198,238.538 C352.506,235.977,351.285,233.281,352.383,230.89 C353.771,227.868,356.925,225.818,358.367,222.751 C361.537,216.013,362.109,207.013,362.363,199.715 C362.552,194.274,363.364,186.363,358.948,182.183 C356.839,180.187,352.337,180.225,349.632,179.316 C345.588,177.957,343.051,174.845,338.93,173.735"/>
      </g>
      <g id="am16">
        <path style="fill:#9e9e9e;fill-opacity:1;fill-rule:nonzero;opacity:1;stroke:none;" d="M306.844,174.239 C300.727,174.893,295.594,178.044,290.26,180.803 C275.954,188.204,261.052,198.654,252.35,212.193 C250.651,214.837,248.936,217.58,248.263,220.667 C246.894,226.949,250.257,238.582,255.78,242.456 C257.793,243.868,260.831,243.979,263.219,244.187 C272.003,244.952,278.066,242.291,285.589,238.181 C302.215,229.097,316.603,218.787,328.768,204.387 C334.22,197.934,339.925,191.372,340.116,182.643 C340.176,179.898,339.471,176.077,336.463,174.999 C333.511,173.942,329.535,175.107,326.48,175.258 C319.074,175.626,314.295,173.441,306.844,174.239 z"/>
      </g>
      <g id="am18">
        <path style="fill:#9e9e9e;fill-opacity:1;fill-rule:nonzero;opacity:1;stroke:none;" d="M258.64,242.175 C257.265,242.496,255.405,244.017,256.793,245.497 C257.802,246.571,261.459,246.288,262.376,245.159 C264.288,242.805,260.06,241.843,258.64,242.175 z"/>
      </g>
      <g id="am20">
        <path style="fill:#9e9e9e;fill-opacity:1;fill-rule:nonzero;opacity:1;stroke:none;" d="M403.677,366.221 C404.679,375.898,406.104,385.5,406.514,395.228 C406.608,397.465,407.048,399.803,406.881,402.038 C406.714,404.274,405.66,406.373,404.944,408.473 C404.156,410.785,403.826,413.115,403.324,415.484 C402.311,420.264,401.724,425.355,399.123,429.598 C398.585,430.476,398.421,431.593,397.685,432.31 C396.72,433.25,395.82,434.107,394.958,435.145 C394.747,435.4,394.292,436.02,393.888,435.866 C392.601,435.372,393.474,431.796,392.969,430.677 C391.348,432.53,389.381,433.993,387.412,435.476 C386.767,435.962,385.381,436.843,384.94,435.626 C384.381,434.083,386.96,432.058,387.795,431.006 C390.049,428.168,394.488,423.62,393.249,419.639 C392.747,422.356,388.308,425.228,385.931,426.324 C385.209,426.656,383.588,427.674,382.803,427.098 C381.209,425.93,382.713,424.001,383.787,423.213 C384.803,422.468,385.976,421.93,386.93,421.106 C388.175,420.03,389.068,418.648,390.346,417.595 C391.537,416.613,393.208,415.051,392.784,413.318 C392.728,413.091,390.682,414.161,390.32,414.303 C388.906,414.859,386.995,415.221,385.504,414.96 C384.945,414.863,384.117,414.846,383.87,414.226 C383.661,413.704,384.385,413.353,384.732,413.125 C385.999,412.293,387.29,412.06,388.63,411.407 C390.313,410.586,392.941,408.735,393.829,407.079 C395.13,404.652,394.551,399.314,391.991,397.743 C390.113,396.591,388.871,398.839,388.129,400.124 C385.955,403.888,384.151,407.819,382.15,411.673 C381.582,412.768,379.121,416.384,377.931,413.735 C377.226,412.164,378.34,409.501,379.008,408.055 C380.418,405.005,381.132,401.61,382.47,398.505 C385.095,392.411,386.354,386.354,387.885,379.963 C388.523,377.301,389.719,374.75,390.242,372.058 C390.639,370.015,390.463,368.001,390.322,365.961 C390.095,362.681,388.904,359.656,388.084,356.453 C386.211,349.134,383.714,342.449,380.23,335.677 C376.506,328.438,371.614,321.902,368.453,314.289 C365.637,307.507,366.081,300.532,363.957,293.711 C362.818,290.053,360.844,286.759,359.258,283.281 C356.507,277.247,353.944,270.48,351.894,264.192 C349.793,257.75,349.795,249.775,345.89,244.082 C349.999,240.195,351.525,233.4,352.495,228.056 C354.388,217.618,356.525,207.152,357.588,196.561 C357.9,193.451,359.42,190.626,359.064,187.45 C358.944,186.376,356.796,182.533,357.374,181.787 C357.961,181.031,359.937,181.703,360.643,181.977 C366.834,184.379,369.306,189.721,371.132,195.483 C372.063,198.418,371.784,201.574,372.977,204.297 C375.325,209.657,375.521,215.459,375.997,221.162 C376.272,224.469,375.541,227.669,376.276,230.593 C376.681,232.206,377.121,233.806,377.294,235.451 C378.775,249.55,380.454,264.172,384.923,277.68 C388.792,289.377,393.027,300.834,396.542,312.653 C398.418,318.959,400.545,325.208,400.792,331.828 C401.127,340.83,403.637,349.698,403.767,358.673 C403.789,360.172,403.454,364.067,403.677,366.221 z"/>
      </g>
      <g id="am22">
        <path style="fill:#9e9e9e;fill-opacity:1;fill-rule:nonzero;opacity:1;stroke:none;" d="M291.987,139.597 C291.987,144.897,297.916,148.352,302.581,149.522 C304.819,150.084,307.296,150.336,309.32,149.007 C312.695,146.792,312.633,140.143,309.683,137.74 C307.833,136.232,305.333,136.301,303.065,136.201"/>
      </g>
    </g>
  </g>
  <g id="am23">
    <g id="am24" style="opacity:0.7;">
      <g id="am26">
        <path style="fill:#ed249b;fill-opacity:1;fill-rule:nonzero;opacity:1;stroke:none;" d="M336.227,661.95 C337.739,657.645,339.01,653.29,339.876,648.94 C341.128,642.654,343.5,636.566,345.101,630.365 C348.58,616.884,351.13,603.598,352.841,589.819 C353.286,586.227,354.356,582.768,354.514,579.107 C354.978,568.333,355.16,556.602,353.712,545.879 C352.611,537.729,350.189,530.608,350.639,522.245 C350.676,521.571,350.721,520.909,350.785,520.265 C351.298,515.06,352.72,509.869,353.81,504.763 C355.868,495.126,358.873,485.612,360.945,475.994 C365.598,454.393,369.319,432.672,369.721,410.685 C369.874,402.309,369.302,393.926,368.012,385.79 C366.026,373.268,361.311,361.327,357.602,349.246 C356.157,344.538,355.02,339.466,354.215,334.616 C352.832,326.275,352.761,316.99,345.084,311.556 C343.035,320.715,337.241,325.842,332.725,333.646 C330.072,338.23,328.972,343.614,326.117,348.147 C324.68,350.428,322.917,352.335,320.938,354.163 C320.195,354.849,318.432,355.983,318.174,356.934 C316.456,363.272,314.798,369.865,312.566,376.191 C311.212,380.028,309.004,383.627,308.057,387.613 C305.938,396.526,304.724,407.123,304.532,416.273 C304.181,433.014,310.643,449.599,311.772,466.195 C312.651,479.126,309.517,492.076,312.757,504.857 C313.503,507.799,315.961,510.367,315.94,513.392 C315.886,521.005,314.643,529.221,316.307,536.703 C316.538,537.741,316.512,539.007,316.695,540.174 C317.159,543.133,318.247,546.442,317.927,549.445 C317.215,556.124,313.936,562.916,312.465,569.514 C310.972,576.212,310.862,583.385,310.882,590.214 C310.902,596.715,314.713,602.673,315.639,609.041 C317.675,623.031,318.414,638.51,316.642,652.558 C315.864,658.734,315.233,664.872,314.346,671.029 C314.041,673.148,313.413,675.304,313.128,677.469 C312.377,683.162,308.719,687.928,307.984,693.62 C307.255,699.262,309.403,704.64,308.583,710.347 C307.935,714.855,306.537,723.481,310.983,726.696 C312.463,727.767,315.291,727.968,317.076,728.13 C321.791,728.557,325.866,728.567,330.609,728.27 C333.173,728.11,335.644,727.334,338.205,727.08 C339.935,726.909,341.98,727.261,343.597,726.588 C345.612,725.748,345.699,723.081,344.488,721.552 C341.283,717.505,338.252,713.8,335.592,709.372 C334.507,707.564,333.282,706.135,332.641,704.077 C331.465,700.307,331.974,695.823,332.033,691.936 C332.089,688.284,331.274,684.572,331.653,680.933 C331.919,678.386,333.013,675.955,333.578,673.471 C334.46,669.598,334.91,665.699,336.227,661.95 z"/>
      </g>
      <g id="am28">
        <path style="fill:#ed249a;fill-opacity:1;fill-rule:nonzero;opacity:1;stroke:none;" d="M289.998,510.716 C291.9,505.26,294.486,499.995,294.842,494.148 C295.192,488.396,294.59,482.665,293.64,476.99 C293.103,473.787,291.405,470.742,291.981,467.517 C292.596,464.064,293.015,460.551,293.86,457.213 C295.93,449.038,298.547,440.816,299.523,432.413 C300.534,423.705,300.067,415.317,299.497,406.617 C298.32,388.665,294.568,371.474,286.773,354.997 C285.346,351.98,281.155,350.386,279.293,347.504 C276.25,342.794,274.846,337.439,271.883,332.773 C271.002,331.385,269.485,330.543,268.565,329.201 C264.932,323.899,262.41,318.468,259.835,312.624 C256.198,314.134,255.299,317.833,254.634,321.335 C253.729,326.097,253.576,330.977,252.653,335.762 C251.993,339.182,250.53,342.499,249.488,345.818 C245.37,358.94,240.082,372.234,237.436,385.729 C236.737,389.292,237.372,392.96,236.896,396.55 C234.093,417.69,236.211,440.477,241.218,461.219 C242.048,464.659,242.201,468.231,242.995,471.672 C243.627,474.407,244.46,477.117,245.438,479.787 C247.811,486.263,248.457,492.982,249.686,499.66 C250.708,505.206,252.984,510.75,253.29,516.428 C253.577,521.759,252.394,528.458,254.151,533.554 C254.229,533.779,254.314,534.004,254.404,534.228 C256.147,538.526,251.361,545.636,250.977,551.522 C250.802,554.203,251.261,556.954,251.114,559.656 C250.718,566.946,249.806,574.143,250.553,581.447 C251.06,586.4,252.47,591.215,253.237,596.135 C253.977,600.891,253.695,605.769,254.709,610.545 C255.827,615.811,258.42,620.737,259.567,625.995 C261.445,634.598,262.39,643.413,264.754,651.889 C266.196,657.062,269.263,661.656,270.701,666.85 C271.902,671.188,271.127,676.076,273.926,679.906 C275.718,682.357,279.474,686.903,283.013,686.374 C289.987,685.332,288.546,679.32,288.288,674.303 C287.982,668.363,288.896,662.528,288.843,656.637 C288.802,652.069,288.001,647.476,287.951,642.906 C287.855,634.159,287.954,625.522,288.355,616.784 C288.498,613.654,287.9,610.36,288.521,607.266 C289.624,601.771,292.724,596.719,294.22,591.256 C295.376,587.035,295.196,582.067,295.254,577.725 C295.412,565.984,289.563,555.23,287.8,543.827 C287.12,539.427,289.623,534.353,289.862,529.858 C290.21,523.314,287.824,516.955,289.998,510.716 z"/>
      </g>
      <g id="am30">
        <path style="fill:#ed249a;fill-opacity:1;fill-rule:nonzero;opacity:1;stroke:none;" d="M253.635,525.833 C255.116,527.563,256.71,528.455,257.58,530.669 C260.018,536.878,257.063,545.632,251.42,549.48 C251.085,541.646,254.427,533.744,253.635,525.833 z"/>
      </g>
      <g id="am32">
        <path style="fill:#ed249a;fill-opacity:1;fill-rule:nonzero;opacity:1;stroke:none;" d="M316.347,536.854 C318.701,545.365,314.977,554.593,313.709,562.979 C313.367,565.242,312.95,567.64,313.247,569.918 C314.625,567.968,315.591,565.997,316.727,563.97 C318.972,559.965,321.566,555.29,321.777,550.644 C322.016,545.373,319.96,540.668,316.347,536.854 z"/>
      </g>
      <g id="am34">
        <path style="fill:#ed249a;fill-opacity:1;fill-rule:nonzero;opacity:1;stroke:none;" d="M298.382,438.42 C296.801,446.87,297.438,455.515,295.076,463.825 C294.738,465.013,294.966,466.306,294.487,467.46 C293.806,469.104,293.427,471.625,293.224,473.389 C293.165,473.904,293.041,475.35,292.284,475.364 C291.45,475.38,291.113,473.92,290.908,473.36 C290.013,470.902,289.771,468.681,289.94,466.079 C290.545,456.818,293.397,446.427,298.382,438.42 z"/>
      </g>
      <g id="am36">
        <path style="fill:#ed249a;fill-opacity:1;fill-rule:nonzero;opacity:1;stroke:none;" d="M271.949,673.607 C273.24,680.304,273.298,686.614,273.337,693.373 C273.362,697.776,273.573,701.784,271.757,705.928 C270.242,709.386,268.227,712.745,266.031,715.827 C265.043,717.214,263.608,718.278,262.652,719.726 C261.513,721.448,259.363,723.166,259.726,725.399 C260.155,728.04,266.416,727.858,268.461,728.05 C274.941,728.657,280.905,728.523,287.356,727.553 C290.161,727.131,292.769,726.92,295.438,725.846 C297.012,725.214,297.376,723.069,297.403,721.614 C297.467,718.075,296.904,714.678,296.828,711.163 C296.785,709.131,296.319,707.087,296.487,705.047 C296.817,701.021,298.13,697.458,297.766,693.346 C297.523,690.609,296.262,687.811,295.501,685.174 C293.986,679.922,292.584,674.655,291.249,669.361 C290.271,665.486,289.71,661.621,289.178,657.668 C289.065,656.83,288.684,654.278,287.721,653.938 C287.278,653.781,286.763,654.433,286.479,654.683 C285.357,655.676,284.438,657.316,283.768,658.627 C280.705,664.618,277.795,669.808,271.949,673.607 z"/>
      </g>
    </g>
  </g>
  <g id="am37">
    <g id="am38" style="opacity:0.7;">
      <g id="am40">
        <path style="fill:#a4277b;fill-opacity:1;fill-rule:nonzero;opacity:1;stroke:none;" d="M245.296,221.353 C242.695,226.4,238.253,231.239,234.1,235.122 C232.2,236.898,229.911,235.732,228.541,238.47 C226.757,242.034,226.92,247.741,226.196,251.723 C224.466,261.243,222.411,270.616,220.297,280.04 C218.821,286.623,214.515,293.155,212.28,299.62 C210.135,305.826,209.462,312.369,208.025,318.752 C206.992,323.342,205.262,327.696,204.486,332.434 C202.967,341.704,201.004,351.494,201.004,360.877 C201.004,364.974,201.402,369.649,206.244,371.099 C210.045,372.238,212.621,367.623,213.576,364.836 C217.04,354.73,219.226,345.104,224.745,335.701 C228.137,329.923,233.302,324.287,235.595,318.009 C237.363,313.169,238.985,307.676,239.975,302.62 C240.574,299.559,240.415,296.249,241.604,293.312 C245.39,283.958,249.161,274.501,253.017,265.144 C255.493,259.138,258.952,251.914,258.699,245.301 C258.602,242.792,256.486,240.777,255.599,238.544 C254.579,235.975,255.125,233.14,254.112,230.63 C253.683,229.568,252.424,229.174,251.749,228.279 C249.843,225.752,247.693,223.468,245.296,221.353 z"/>
      </g>
      <g id="am42">
        <path style="fill:#a4277b;fill-opacity:1;fill-rule:nonzero;opacity:1;stroke:none;" d="M375.956,234.615 C373.576,234.307,371.412,232.638,369.855,230.942 C369.174,230.201,368.508,229.417,367.807,228.627 C365.24,225.739,362.25,223.231,358.649,221.08 C358.248,223.999,357.801,225.817,355.147,227.551 C354.324,228.088,352.577,228.175,352.055,228.971 C351.27,230.167,351.708,232.24,351.576,233.586 C351.347,235.926,350.548,238.539,349.703,240.734 C349.134,242.213,347.238,243.988,347.131,245.492 C346.791,250.268,348.789,255.155,350.001,259.668 C353.289,271.916,359.622,282.673,364.576,294.272 C367.274,300.588,366.217,307.924,368.231,314.49 C370.856,323.048,377.114,330.741,381.74,338.336 C386.502,346.156,387.591,355.946,390.927,364.31 C392.081,367.204,395.428,371.606,399.248,370.602 C403.214,369.559,402.851,363.589,402.851,360.583 C402.851,350.446,401.869,340.618,400.956,330.561 C400.569,326.291,399.72,321.941,398.292,317.866 C397.452,315.469,396.141,313.168,395.575,310.687 C394.524,306.077,394.891,300.907,392.976,296.497 C389.202,287.802,383.971,278.883,382.183,269.507 C380.54,260.889,380.137,252.107,378.59,243.466 C378.2,241.289,377.538,239.143,376.878,237.03 C376.711,236.494,376.605,235.144,376.095,234.819 C376.046,234.788,375.998,234.62,375.956,234.615 z"/>
      </g>
    </g>
  </g>
  <g id="am43">
    <g id="am44" style="opacity:0.7;">
      <g id="am46">
        <path style="fill:#66277b;fill-opacity:1;fill-rule:nonzero;opacity:1;stroke:none;" d="M281.197,180.014 C278.309,180.905,275.163,181.448,272.554,183.013 C262.689,188.93,258.805,200.046,253.355,209.383 C250.039,215.066,245.913,220.271,242.385,225.773 C239.892,229.662,236.194,232.577,232.735,235.541 C232.058,236.121,229.607,238.815,228.578,237.651 C227.694,236.653,228.939,231.891,229.072,230.571 C229.746,223.837,227.994,217.901,230.253,211.233 C232.898,203.428,233.627,194.741,238.088,187.564 C247.418,172.551,267.122,180.289,281.197,180.014 z"/>
      </g>
      <g id="am48">
        <path style="fill:#66277b;fill-opacity:1;fill-rule:nonzero;opacity:1;stroke:none;" d="M331.934,181.865 C333.194,182.68,334.665,183.358,335.759,184.383 C341.634,189.888,344.049,197.155,347.448,204.109 C349.599,208.511,352.699,212.74,355.789,216.558 C358.154,219.482,359.75,221.936,362.93,224.158 C366.417,226.594,368.597,230.065,371.858,232.756 C372.467,233.259,374.756,235.088,375.598,234.158 C375.943,233.778,375.716,232.92,375.675,232.47 C375.558,231.192,375.84,229.891,375.84,228.608 C375.84,223.02,376.033,217.427,374.68,211.955 C372.562,203.388,372.73,191.826,365.423,185.415 C362.796,183.109,359.724,181.617,356.41,180.457 C353.995,179.611,351.184,179.326,348.631,179.208 C346.475,179.108,344.387,179.919,342.272,180.155 C337.804,180.654,332.844,180.897,328.367,180.445 C329.904,180.502,330.697,181.065,331.934,181.865 z"/>
      </g>
    </g>
  </g>
  <g id="am49">
    <g id="am51" style="opacity:0.7;">
      <path style="fill:#ff7bbc;fill-opacity:1;fill-rule:nonzero;opacity:1;stroke:none;" d="M298.68,241.427 C296.744,242.438,294.633,243.984,293.236,245.642 C292.241,246.824,291.631,248.36,290.749,249.609 C290.287,250.263,289.832,250.921,289.397,251.591 C288.623,252.782,288.057,254.102,287.191,255.23 C286.674,255.901,286.165,256.577,285.682,257.272 C283.985,259.716,282.7,262.449,280.626,264.589 C277.536,267.777,275.233,271.625,271.691,274.303 C271.28,274.614,270.862,274.913,270.437,275.197 C269.786,275.634,266.703,276.123,266.611,276.471 C266.33,277.542,266.845,279.108,266.724,280.278 C266.087,286.448,267.122,292.71,265.305,298.741 C264.238,302.284,262.25,305.504,261.045,308.978 C260.656,310.099,259.66,311.583,259.901,312.812 C260.157,314.12,261.456,315.94,262.093,317.164 C263.862,320.558,265.811,323.82,267.608,327.182 C268.455,328.767,269.954,331.657,271.774,332.349 C274.333,333.322,277.189,332.152,279.562,331.259 C279.592,331.455,279.623,331.651,279.656,331.847 C280.869,339.177,283.768,346.525,288.775,352.195 C290.71,354.387,293.984,357.224,297.143,357.46 C301.019,357.749,305.862,357.402,309.612,356.367 C311.157,355.941,311.905,354.852,313.073,353.929 C316.582,351.155,319.161,347.838,321.304,344.019 C323.481,340.142,325.267,335.668,326.22,331.161 C326.848,331.272,327.928,331.446,329.016,331.5 C330.274,331.563,332.338,332.057,333.488,331.534 C334.631,331.015,335.633,329.132,336.35,328.153 C337.426,326.684,338.28,325.041,339.345,323.553 C340.509,321.926,341.396,320.113,342.42,318.386 C342.968,317.461,343.45,316.496,343.831,315.47 C344.343,314.092,344.919,312.755,344.746,311.257 C344.241,306.872,341.582,303.498,339.93,299.583 C338.975,297.321,338.872,294.878,338.607,292.486 C338.188,288.702,338.645,285.182,338.672,281.426 C338.682,279.947,339.229,278.137,338.566,276.729 C337.941,275.402,336.732,274.961,335.601,274.168 C334.103,273.119,332.594,271.942,331.158,270.823 C329.758,269.731,328.485,268.323,327.553,266.822 C326.75,265.529,325.536,264.365,324.705,263.156 C321.04,257.822,318.279,252.252,314.033,247.249 C311.04,243.724,308.353,241.139,303.434,240.798 C301.545,240.667,299.943,240.768,298.68,241.427 z"/>
    </g>
  </g>
  <g id="am52">
    <g id="am54" style="opacity:0.7;">
      <path style="fill:#d594c8;fill-opacity:1;fill-rule:nonzero;opacity:1;stroke:none;" d="M358.777,220.282 C359.123,221.959,358.058,224.641,356.821,225.874 C355.937,226.755,354.737,227.289,354.076,228.262 C353.951,228.445,353.828,228.633,353.706,228.828 C352.484,230.777,351.748,232.905,351.373,235.107 C351.182,236.229,350.916,237.345,350.56,238.33 C349.759,240.549,348.425,242.638,347.018,244.545 C346.334,245.471,345.022,246.186,344.858,247.386 C344.267,251.693,343.008,255.888,342.053,260.131 C341.391,263.07,341.14,266.027,340.353,268.958 C339.911,270.602,339.487,272.239,339.544,273.939 C339.559,274.393,339.546,275.422,339.059,275.677 C338.352,276.046,336.535,274.509,335.952,274.173 C332.702,272.303,329.637,269.557,327.578,266.508 C326.187,264.449,324.516,262.572,323.119,260.51 C322.117,259.033,321.232,257.446,320.297,255.926 C319.304,254.314,318.026,252.883,316.941,251.341 C313.246,246.094,308.065,238.66,300.227,240.849 C298.962,241.202,297.8,241.69,296.69,242.345 C295.296,243.168,293.693,244.719,292.848,246.029 C291.304,248.421,289.791,250.911,288.312,253.316 C284.757,259.096,280.491,264.554,276.071,269.664 C273.212,272.97,271.749,275.846,266.925,275.995 C265.225,273.315,264.733,269.954,264.001,266.937 C262.976,262.715,261.653,258.427,261.163,254.108 C260.903,251.813,261.153,249.521,260.512,247.25 C260.104,245.808,259.059,244.867,258.244,243.63 C257.505,242.508,256.936,241.067,256.423,239.828 C255.325,237.177,255.321,234.116,254.297,231.445 C253.92,230.462,252.905,229.292,252.289,228.391 C251.449,227.164,250.103,226.451,249.112,225.393 C248.522,224.764,248.299,223.859,247.709,223.226 C247.172,222.65,245.815,222.293,245.734,221.445 C245.622,220.265,246.692,219.31,247.287,218.368 C249.023,215.623,251.167,213.21,252.795,210.374 C255.417,205.808,257.928,201.121,260.486,196.505 C262.265,193.295,264.163,189.732,266.977,187.244 C268.634,185.78,270.8,184.049,272.835,183.143 C275.575,181.923,278.638,179.961,280.974,180.103 C284.035,180.289,287.099,179.657,290.178,179.766 C297.084,180.009,304.1,180.756,311.019,180.437 C315.308,180.239,319.543,179.675,323.85,179.974 C325.248,180.071,326.822,179.917,328.22,180.264 C332.726,181.386,336.979,184.648,339.451,188.476 C340.046,189.399,340.61,190.259,341.152,191.213 C341.201,191.298,341.143,191.514,341.203,191.652 C341.962,193.405,343.06,194.835,343.877,196.57 C346.169,201.435,348.152,206.499,351.481,210.814 C352.96,212.732,354.167,214.951,355.75,216.761 C356.28,217.368,357.466,218.232,358.016,219.099 C358.251,219.47,358.686,219.837,358.777,220.282 z"/>
    </g>
  </g>
</svg>
