<?xml version="1.0" encoding="utf-8"?>
<svg viewBox="0 0 600 800" xmlns="http://www.w3.org/2000/svg" xmlns:xlink="http://www.w3.org/1999/xlink">
  <!--Generated by AMDN-->
  <g id="am1">
    <g id="am2" style="opacity:0.7;">
      <g id="am4">
        <path style="fill:#9e9e9e;fill-opacity:1;fill-rule:nonzero;opacity:1;stroke:none;" d="M288.506,142.906 C290.205,149.501,289.595,157.294,285.494,162.964 C284.31,164.601,282.606,166.667,280.653,167.463 C278.31,168.419,276.238,169.896,273.886,170.791 C270.651,172.024,267.531,172.254,264.607,174.159 C263.392,174.95,261.473,176.013,260.625,177.204 C260.332,177.615,259.936,178.38,260.438,178.789 C261.185,179.397,263.076,179.195,264.041,179.489 C268.662,180.895,274.276,180.864,279.088,180.916 C287.554,181.008,295.989,181.546,304.466,181.494 C310.298,181.459,316.126,180.817,321.947,180.588 C326.639,180.404,331.08,179.213,335.323,177.292 C336.947,176.556,338.874,175.913,339.918,174.398 C340.356,173.763,339.24,173.455,338.779,173.301 C337.079,172.736,335.441,172.123,333.715,171.648 C329.757,170.56,326.233,168.361,322.959,165.989 C316.762,161.499,316.334,155.02,316.822,148.072 C316.993,145.632,316.675,143.251,317.685,140.919 C316.984,141.392,316.647,142.442,316.087,143.078 C314.925,144.395,313.228,145.692,311.681,146.555 C303.874,150.906,295.24,147.431,288.506,142.906 z"/>
      </g>
      <g id="am6">
        <path style="fill:#9e9e9e;fill-opacity:1;fill-rule:nonzero;opacity:1;stroke:none;" d="M299.093,73.3278 C291.768,75.5493,282.674,80.6124,279.147,87.5914 C277.447,90.9575,278.025,94.839,277.855,98.4365 C277.402,108.005,277.247,119.197,280.722,128.277 C283.198,134.745,286.964,143.34,293.573,146.795 C295.67,147.891,298.41,148.089,300.728,148.489 C302.034,148.714,302.924,149.624,304.357,149.549 C305.555,149.486,306.351,148.402,307.463,148.039 C309.634,147.329,312.118,146.747,313.989,145.397 C320.1,140.99,321.692,133.653,324.332,127.296 C327.803,118.939,328.003,110.232,328.672,101.384 C328.977,97.3435,329.721,92.4647,328.216,88.5699 C323.816,77.1819,310.092,69.9921,299.093,73.3278 z"/>
      </g>
      <g id="am8">
        <path style="fill:#9e9e9e;fill-opacity:1;fill-rule:nonzero;opacity:1;stroke:none;" d="M264.06,174.507 C263.911,174.507,263.812,174.661,263.732,174.713 C262.77,175.333,261.37,176.394,260.683,177.125 C258.032,179.944,254.961,178.675,250.974,179.787 C248.048,180.603,245.148,182.273,242.693,183.988 C239.422,186.274,235.712,190.262,234.34,193.998 C233.456,196.403,233.348,199.167,232.626,201.642 C230.677,208.323,228.842,215.416,228.624,222.405 C228.523,225.637,228.375,228.74,228.72,231.973 C228.86,233.283,229.153,235.049,230.361,235.882 C231.008,236.328,232.632,236.602,233.287,236.094 C234.384,235.243,235.078,233.596,236.252,232.898 C239.195,231.15,242.496,230.489,245.874,229.85 C249.182,229.225,252.818,228.876,255.953,227.61 C261.341,225.433,265.975,221.607,270.706,218.382 C284.565,208.937,296.959,196.097,303.701,180.832 C303.701,180.832,264.208,174.507,264.06,174.507 z"/>
      </g>
      <g id="am10">
        <path style="fill:#9e9e9e;fill-opacity:1;fill-rule:nonzero;opacity:1;stroke:none;" d="M229.465,230.068 C229.465,234.624,227.967,238.788,227.384,243.293 C226.229,252.209,225.464,261.396,223.166,270.157 C220.64,279.786,216.18,288.912,213.113,298.333 C211.551,303.13,211.014,308.022,209.708,312.857 C207.694,320.313,204.931,326.975,204.29,334.767 C203.596,343.218,202.464,351.609,202.464,360.112 C202.464,364,203.646,368.317,208.246,369.162 C210.865,369.643,213.055,364.063,213.848,362.26 C217.432,354.105,218.955,345.361,223.186,337.398 C227.653,328.991,234.212,321.813,237.842,312.984 C240.878,305.6,240.435,297.12,243.575,289.748 C249.602,275.596,257.371,260.963,258.162,245.324 C258.511,238.424,254.506,232.696,254.051,226.068"/>
      </g>
      <g id="am12">
        <path style="fill:#9e9e9e;fill-opacity:1;fill-rule:nonzero;opacity:1;stroke:none;" d="M202.891,354.962 C202.715,357.68,202.226,360.378,201.994,363.096 C201.572,368.044,201.683,373.046,201.027,377.99 C199.951,386.094,198.718,393.829,199.066,402.051 C199.268,406.819,201.51,411.366,202.135,416.141 C202.851,421.613,204.594,427.375,207.763,432.059 C208.497,433.145,210.182,435.976,211.624,436.086 C213.055,436.196,212.283,433.368,212.211,432.641 C212.178,432.308,212.041,431.383,212.637,431.489 C213.359,431.617,213.824,432.758,214.279,433.24 C215.33,434.353,217.864,436.256,219.55,435.902 C221.092,435.578,219.415,432.582,218.955,431.929 C218.254,430.931,217.043,430.463,216.365,429.521 C215.938,428.928,215.884,428.074,215.507,427.431 C214.705,426.064,213.79,425.162,213.105,423.664 C212.721,422.822,211.524,421.427,211.972,420.428 C212.288,419.723,213.952,422.047,214.236,422.288 C216.22,423.971,217.227,426.114,219.898,426.814 C220.497,426.97,222.248,427.193,222.609,426.57 C223.569,424.912,221.937,423.016,220.849,421.969 C218.547,419.754,214.278,417.378,213.427,414.116 C213.213,413.295,215.618,415.018,215.986,415.224 C217.366,415.996,220.354,417.083,220.654,414.564 C221.043,411.298,216.716,411.873,214.854,410.824 C213.981,410.333,212.602,409.62,211.958,408.868 C210.035,406.623,210.902,403.249,211.709,400.788 C212.094,399.612,212.069,398.528,213.075,397.626 C214.559,396.297,215.884,398.333,216.375,399.537 C218.097,403.757,219.999,407.687,222.223,411.742 C222.783,412.765,225.534,416.117,226.499,413.633 C227.273,411.638,225.786,408.861,225.201,406.991 C224.309,404.14,223.785,401.202,222.879,398.35 C222.293,396.505,221.156,394.729,220.441,392.93 C218.779,388.752,218.956,384.067,218.071,379.708 C217.502,376.903,215.883,374.341,215.034,371.632 C213.474,366.65,213.745,361.518,215.109,356.555"/>
      </g>
      <g id="am14">
        <path style="fill:#9e9e9e;fill-opacity:1;fill-rule:nonzero;opacity:1;stroke:none;" d="M257.593,245.9 C262.227,248.034,260.803,253.43,261.216,257.788 C261.609,261.94,263.399,266.18,264.551,270.175 C266.632,277.4,268.246,287.974,266.483,295.381 C265.327,300.236,261.254,305.077,260.726,310.114 C260.403,313.202,256.458,315.531,255.249,319.083 C252.304,327.735,252.56,337.298,249.869,346.118 C243.664,366.459,236.755,386.99,235.576,408.36 C234.857,421.397,237.198,434.585,239.281,447.406 C240.588,455.458,242.678,463.321,244.157,471.336 C244.812,474.884,245.547,479.342,247.376,482.832 C249.248,486.402,248.504,490.955,249.364,495.031 C250.516,500.487,253.038,506.238,253.323,511.802 C253.765,520.439,254.868,530.03,254.004,538.626 C253.304,545.592,251.06,552.428,250.928,559.472 C250.605,576.689,252.781,593.455,255.381,610.405 C256.445,617.336,258.002,624.716,260.162,631.657 C263.248,641.577,266.077,651.753,269.041,661.763 C269.702,663.997,270.728,666.154,271.275,668.413 C272.626,673.989,274.354,680.362,274.318,686.108 C274.293,690.084,274.26,694.079,274.156,698.063 C274.098,700.292,273.98,703.49,273.162,705.568 C272.727,706.673,271.594,707.419,270.921,708.358 C270.498,708.948,270.438,709.749,270.041,710.374 C269.367,711.434,268.336,712.241,267.564,713.227 C266.803,714.199,266.379,715.401,265.57,716.401 C264.531,717.685,262.987,718.215,262.062,719.645 C261.071,721.177,256.839,726.434,260.974,727.241 C263.761,727.785,266.561,726.714,269.314,726.822 C270.978,726.888,272.613,727.476,274.287,727.59 C278.311,727.864,282.484,727.857,286.509,727.647 C288.802,727.528,292.63,728.241,294.471,726.562 C299.879,721.628,295.822,713.084,296.363,707.023 C296.754,702.635,298.191,698.657,297.68,694.19 C297.425,691.964,296.475,690.163,295.769,688.084 C294.802,685.237,294.029,682.306,293.233,679.411 C289.809,666.963,289.21,653.625,287.77,640.885 C287.549,638.934,287.021,636.776,287.114,635.424 C287.74,626.339,287.632,617.156,288.631,608.13 C288.992,604.865,290.49,602.031,291.514,598.955 C293.125,594.115,294.246,588.697,294.177,583.593 C293.996,570.161,289.602,557.493,287.683,544.307 C287.238,541.253,288.263,538.061,288.283,535.01 C288.322,529.255,287.704,523.475,287.735,517.782 C287.75,514.903,289.376,511.717,290.439,509.078 C291.855,505.565,293.083,501.679,293.945,497.997 C295.604,490.908,294.403,483.058,292.915,476.075 C292.68,474.974,292.375,473.881,292.509,472.756 C293.143,467.442,294.213,462.062,295.406,456.781 C297.218,448.765,297.874,440.527,298.543,432.366 C299.175,424.668,300.551,417.137,300.7,409.37 C300.854,401.377,299.154,392.262,297.367,384.335 C301.374,385.795,304.983,385.565,309.099,383.711 C305.973,396.63,304.124,409.943,304.686,422.894 C304.844,426.537,305.936,430.036,306.397,433.623 C307.467,441.955,308.726,450.281,310.179,458.551 C310.922,462.778,312.426,467.281,312.917,471.617 C313.626,477.869,310.069,484.164,310.38,490.578 C310.824,499.765,314.466,508.089,316.398,516.994 C317.427,521.74,316.704,526.951,316.829,531.777 C316.95,536.439,318.332,541.203,318.291,545.808 C318.263,548.906,317.079,551.393,316.553,554.336 C315.005,562.997,312.398,571.181,311.695,580.012 C311.553,581.804,311.808,583.605,311.802,585.396 C311.785,590.596,312.843,597.163,315.418,601.775 C315.474,601.875,315.53,601.978,315.586,602.084 C319.209,608.887,317.444,617.263,317.718,624.835 C318.401,643.625,317.633,662.974,312.176,681.05 C310.287,687.31,307.465,692.875,307.256,699.59 C307.145,703.152,308.863,706.648,308.731,710.201 C308.571,714.512,307.986,722.254,311.072,725.711 C312.42,727.221,314.875,726.507,316.721,727.002 C318.377,727.447,320.065,728.333,321.79,728.451 C324.318,728.623,326.798,727.871,329.215,727.902 C331.957,727.937,334.829,728.541,337.561,728.3 C339.057,728.169,342.65,727.961,343.743,726.953 C344.632,726.132,344.578,723.447,344.406,722.331 C344.001,719.693,342.013,718.529,340.488,716.559 C337.482,712.677,333.954,708.62,331.793,704.223 C330.974,702.556,331.247,700.663,331.029,698.9 C330.342,693.332,330.783,687.304,331.177,681.707 C331.607,675.585,333.96,669.583,335.971,663.841 C337.643,659.064,338.771,654.037,340.255,649.183 C342.014,643.43,342.996,637.532,344.616,631.761 C348.448,618.106,350.666,604.569,353.273,590.664 C354.198,585.734,353.839,580.717,353.948,575.683 C354.103,568.501,354.965,561.298,354.382,554.061 C353.608,544.442,350.986,535.059,351.104,525.309 C351.219,515.771,353.881,507.025,356.25,497.883 C357.428,493.336,356.855,488.425,357.638,483.841 C358.076,481.281,360.033,478.411,360.838,475.816 C361.548,473.526,361.173,470.598,361.661,468.231 C362.663,463.37,363.369,458.454,364.224,453.859 C367.605,435.685,370.321,416.319,368.465,397.813 C366.53,378.513,360.537,360.107,354.559,341.714 C350.932,330.553,350.383,319.361,344.293,308.796 C343.901,308.117,343.383,307.455,343.178,306.737 C342.103,302.972,341.022,299.241,339.992,295.467 C338.328,289.372,338.333,281.731,339.348,275.52 C340.369,269.273,342.658,263.135,343.937,256.902 C344.621,253.568,344.339,249.587,345.532,246.4 C346.639,243.443,349.774,241.325,351.198,238.538 C352.506,235.977,351.285,233.281,352.383,230.89 C353.771,227.868,356.925,225.818,358.367,222.751 C361.537,216.013,362.109,207.013,362.363,199.715 C362.552,194.274,363.364,186.363,358.948,182.183 C356.839,180.187,352.337,180.225,349.632,179.316 C345.588,177.957,343.051,174.845,338.93,173.735"/>
      </g>
      <g id="am16">
        <path style="fill:#9e9e9e;fill-opacity:1;fill-rule:nonzero;opacity:1;stroke:none;" d="M306.844,174.239 C300.727,174.893,295.594,178.044,290.26,180.803 C275.954,188.204,261.052,198.654,252.35,212.193 C250.651,214.837,248.936,217.58,248.263,220.667 C246.894,226.949,250.257,238.582,255.78,242.456 C257.793,243.868,260.831,243.979,263.219,244.187 C272.003,244.952,278.066,242.291,285.589,238.181 C302.215,229.097,316.603,218.787,328.768,204.387 C334.22,197.934,339.925,191.372,340.116,182.643 C340.176,179.898,339.471,176.077,336.463,174.999 C333.511,173.942,329.535,175.107,326.48,175.258 C319.074,175.626,314.295,173.441,306.844,174.239 z"/>
      </g>
      <g id="am18">
        <path style="fill:#9e9e9e;fill-opacity:1;fill-rule:nonzero;opacity:1;stroke:none;" d="M258.64,242.175 C257.265,242.496,255.405,244.017,256.793,245.497 C257.802,246.571,261.459,246.288,262.376,245.159 C264.288,242.805,260.06,241.843,258.64,242.175 z"/>
      </g>
      <g id="am20">
        <path style="fill:#9e9e9e;fill-opacity:1;fill-rule:nonzero;opacity:1;stroke:none;" d="M403.677,366.221 C404.679,375.898,406.104,385.5,406.514,395.228 C406.608,397.465,407.048,399.803,406.881,402.038 C406.714,404.274,405.66,406.373,404.944,408.473 C404.156,410.785,403.826,413.115,403.324,415.484 C402.311,420.264,401.724,425.355,399.123,429.598 C398.585,430.476,398.421,431.593,397.685,432.31 C396.72,433.25,395.82,434.107,394.958,435.145 C394.747,435.4,394.292,436.02,393.888,435.866 C392.601,435.372,393.474,431.796,392.969,430.677 C391.348,432.53,389.381,433.993,387.412,435.476 C386.767,435.962,385.381,436.843,384.94,435.626 C384.381,434.083,386.96,432.058,387.795,431.006 C390.049,428.168,394.488,423.62,393.249,419.639 C392.747,422.356,388.308,425.228,385.931,426.324 C385.209,426.656,383.588,427.674,382.803,427.098 C381.209,425.93,382.713,424.001,383.787,423.213 C384.803,422.468,385.976,421.93,386.93,421.106 C388.175,420.03,389.068,418.648,390.346,417.595 C391.537,416.613,393.208,415.051,392.784,413.318 C392.728,413.091,390.682,414.161,390.32,414.303 C388.906,414.859,386.995,415.221,385.504,414.96 C384.945,414.863,384.117,414.846,383.87,414.226 C383.661,413.704,384.385,413.353,384.732,413.125 C385.999,412.293,387.29,412.06,388.63,411.407 C390.313,410.586,392.941,408.735,393.829,407.079 C395.13,404.652,394.551,399.314,391.991,397.743 C390.113,396.591,388.871,398.839,388.129,400.124 C385.955,403.888,384.151,407.819,382.15,411.673 C381.582,412.768,379.121,416.384,377.931,413.735 C377.226,412.164,378.34,409.501,379.008,408.055 C380.418,405.005,381.132,401.61,382.47,398.505 C385.095,392.411,386.354,386.354,387.885,379.963 C388.523,377.301,389.719,374.75,390.242,372.058 C390.639,370.015,390.463,368.001,390.322,365.961 C390.095,362.681,388.904,359.656,388.084,356.453 C386.211,349.134,383.714,342.449,380.23,335.677 C376.506,328.438,371.614,321.902,368.453,314.289 C365.637,307.507,366.081,300.532,363.957,293.711 C362.818,290.053,360.844,286.759,359.258,283.281 C356.507,277.247,353.944,270.48,351.894,264.192 C349.793,257.75,349.795,249.775,345.89,244.082 C349.999,240.195,351.525,233.4,352.495,228.056 C354.388,217.618,356.525,207.152,357.588,196.561 C357.9,193.451,359.42,190.626,359.064,187.45 C358.944,186.376,356.796,182.533,357.374,181.787 C357.961,181.031,359.937,181.703,360.643,181.977 C366.834,184.379,369.306,189.721,371.132,195.483 C372.063,198.418,371.784,201.574,372.977,204.297 C375.325,209.657,375.521,215.459,375.997,221.162 C376.272,224.469,375.541,227.669,376.276,230.593 C376.681,232.206,377.121,233.806,377.294,235.451 C378.775,249.55,380.454,264.172,384.923,277.68 C388.792,289.377,393.027,300.834,396.542,312.653 C398.418,318.959,400.545,325.208,400.792,331.828 C401.127,340.83,403.637,349.698,403.767,358.673 C403.789,360.172,403.454,364.067,403.677,366.221 z"/>
      </g>
      <g id="am22">
        <path style="fill:#9e9e9e;fill-opacity:1;fill-rule:nonzero;opacity:1;stroke:none;" d="M291.987,139.597 C291.987,144.897,297.916,148.352,302.581,149.522 C304.819,150.084,307.296,150.336,309.32,149.007 C312.695,146.792,312.633,140.143,309.683,137.74 C307.833,136.232,305.333,136.301,303.065,136.201"/>
      </g>
    </g>
  </g>
  <g id="am23">
    <g id="am24" style="opacity:0.5;">
      <path id="am25" style="fill:#c151c0;fill-opacity:1;fill-rule:nonzero;opacity:1;stroke:none;" d="M261.074,308.249 C259.847,309.664,260.821,311.477,259.327,313.163 C253.595,319.633,254.187,321.12,252.828,329.999 C252.3,333.45,252.068,337.919,250.172,344.38 C244.192,364.753,239.082,378.837,236.621,397.688 C235.639,405.205,235.173,414.492,235.801,422.055 C235.875,422.933,236.257,427.095,236.59,426.121 C238.605,420.224,237.539,422.559,238.219,421.496 C242.699,414.493,247.616,408.389,254.355,402.939 C258.865,399.291,266.364,400.789,271.875,400.406 C280.032,399.84,290.726,396.113,295.852,389.8 C301.084,383.357,301.357,374.384,301.729,366.631 C302.082,359.288,303.051,352.111,299.908,345.12 C297.497,339.759,292.262,336.126,289.253,331.02 C287.98,328.861,286.727,326.516,286.342,324.035 C285.961,321.572,286.556,318.498,285.245,316.257 C283.925,314.001,281.579,313.383,279.372,312.306 C273.953,309.661,267.173,308.249,261.074,308.249 z"/>
      <path id="am26" style="fill:#c151c0;fill-opacity:1;fill-rule:nonzero;opacity:1;stroke:none;" d="M321.134,314.907 C321.134,332.332,303.621,342.475,302.146,359.657 C301.046,372.475,304.562,393.303,319.259,398.114 C330.826,401.9,345.161,399.451,354.923,406.826 C360.379,410.946,363.132,419.569,366.11,425.425 C367.107,427.386,366.307,430.067,368.216,431.476 C368.488,420.613,369.803,410.847,368.599,400 C366.323,379.505,362.341,366.899,354.559,341.714 C352.483,334.994,351.347,324.954,347.06,314.476 C346.269,312.544,345.373,307.773,343.212,307.496 C341.249,307.244,337.426,310.423,334.766,311.892 C330.941,314.003,325.406,314.027,321.134,314.907 z"/>
    </g>
  </g>
  <g id="am27">
    <g id="am28" style="opacity:0.5;">
      <g id="am29">
        <g id="am30">
          <g id="am31">
            <path id="am32" style="fill:#8735c0;fill-opacity:1;fill-rule:nonzero;opacity:1;stroke:none;" d="M354.046,506.308 C351.907,514.513,350.459,520.772,350.791,529.311 C351.011,534.968,352.725,540.485,353.407,546.084 C353.684,548.358,354.159,550.513,354.183,552.798 C354.223,556.69,354.523,560.432,354.357,564.341 C354.203,567.945,354.649,571.826,353.582,575.341 C351.924,580.805,348.768,585.202,345.547,589.888 C341.728,595.444,337.399,600.633,332.527,605.359 C330.846,606.989,327.573,609.792,324.986,609.731 C321.114,609.64,317.63,607.978,316.647,604.528 C315.677,601.128,313.486,598.57,312.786,594.499 C312.273,591.52,312.001,589.537,311.809,586.281 C311.503,581.082,311.778,577.423,312.599,573.111 C313.083,570.57,313.87,566.526,314.503,564.016 C315.587,559.719,316.29,556.035,317.031,552.241 C317.424,550.228,318.258,548.557,318.288,545.978 C318.307,544.393,318.131,542.339,317.917,540.86 C317.655,539.044,317.247,537.137,317.138,535.478 C316.955,532.687,316.838,529.141,316.906,526.341 C317.035,521.052,316.733,517.579,315.304,512.552 C313.96,507.825,312.693,504.734,311.869,500.212 C311.599,498.727,310.58,494.092,310.526,492.578 C310.486,491.455,310.375,490.379,310.425,489.341 C310.699,483.629,312.874,479.467,312.998,472.675 C313.05,469.79,312.021,466.905,311.412,464.094 C311.412,464.094,310.507,461.133,310.692,461.072 C310.449,460.398,310.888,461.754,310.692,461.072 C308.531,453.559,308.579,448.286,307.25,439.968 C303.558,416.873,304.217,419.74,305.125,406.909 C305.578,400.515,306.973,395.057,307.959,388.713 C309.81,395.038,315.244,397.552,321.802,398.707 C328.827,399.945,335.875,400.325,342.859,401.907 C346.354,402.699,349.973,403.289,352.954,405.365 C355.384,407.057,358.131,409.333,359.689,411.821 C360.484,413.09,360.77,414.615,361.545,415.91 C364.529,420.894,369.068,425.174,367.774,431.078 C366.957,434.808,366.668,439.668,366.094,443.124 C365.398,447.315,364.503,451.766,363.845,455.966 C362.938,461.753,361.591,468.609,361.227,473.714 C361.122,475.193,360.772,476.685,359.995,477.948 C357.659,481.744,357.494,484.798,356.725,489.42 C355.923,494.238,355.381,501.189,354.046,506.308 z"/>
            <path id="am33" style="fill:#8735c0;fill-opacity:1;fill-rule:nonzero;opacity:1;stroke:none;" d="M337.773,658.019 C337.297,661.128,335.582,664.691,334.647,667.584 C333.778,670.274,332.89,672.861,332.183,675.553 C330.338,682.569,330.289,690.408,330.885,697.549 C331.138,700.583,331.094,702.969,332.114,704.953 C335.736,712.001,340.288,715.592,343.931,720.78 C344.745,721.94,344.574,722.342,344.508,723.928 C344.482,724.546,344.623,726.326,343.953,726.7 C343.173,727.135,342.971,727.536,342.067,727.701 C339.741,728.128,337.889,728.276,336.033,728.251 C334.514,728.23,332.993,728.093,331.208,727.898 C328.855,727.641,326.478,728.106,324.165,728.392 C321.146,728.764,318.86,727.489,315.948,726.86 C314.804,726.612,313.984,726.825,312.833,726.629 C312.079,726.501,311.528,726.385,311.072,725.711 C310.106,724.283,309.725,723.714,309.324,722.234 C308.335,718.583,308.581,715.437,308.666,711.803 C308.719,709.487,308.575,707.594,308.097,705.321 C307.823,704.019,307.506,702.874,307.343,701.433 C307.256,700.662,307.17,699.568,307.229,698.853 C307.541,695.072,308.618,691.67,309.79,688.052 C310.334,686.374,310.967,684.601,311.572,682.947 C312.037,681.675,312.352,680.463,312.733,679.144 C313.384,676.891,314.006,674.651,314.432,672.359 C315.516,666.529,316.694,660.065,317.167,654.159 C317.682,647.749,317.739,641.479,317.927,635.055 C318.011,632.179,317.808,629.001,317.763,626.124 C317.707,622.548,317.938,618.926,317.896,615.359 C317.847,611.265,318.053,607.331,316.352,603.736 C315.478,601.889,314.316,600.052,313.784,598.06 C322.386,588.937,331.045,580.793,342.938,575.758 C345.903,574.502,349.091,573.838,352.063,572.551 C352.834,572.217,352.783,561.238,353.305,562.08 C354.354,563.77,353.955,579.114,353.924,580.951 C353.877,583.788,354.079,585.716,353.527,589.09 C353.102,591.682,352.433,595.195,351.641,599.501 C350.846,603.828,351.086,604.943,349.818,609.203 C345.843,622.558,343.718,637.48,339.75,650.884 C339.118,653.018,338.108,655.833,337.773,658.019 z"/>
            <g id="am34">
              <path id="am35" style="fill:#8735c0;fill-opacity:1;fill-rule:nonzero;opacity:1;stroke:none;" d="M236.276,427.059 C236.567,429.541,236.904,432.958,237.392,435.549 C238.932,443.742,239.106,448.977,240.395,455.767 C240.649,457.106,240.754,458.493,241.195,459.783 C242.71,464.206,244.355,469.042,244.524,473.326 C244.72,478.313,248.001,481.131,248.441,486.113 C248.96,491.981,249.616,496.142,251.159,501.643 C251.37,502.394,252.045,504.638,252.215,505.359 C253.386,510.337,253.621,516.709,253.907,520.975 C254.263,526.294,254.751,529.754,255.67,534.523 C257.531,533.126,260.152,530.268,262.497,529.858 C265.17,529.39,267.062,530.87,269.317,531.889 C276.159,534.98,281.138,541.102,287.278,545.236 C287.591,541.882,288.073,539.249,288.231,536.185 C288.633,528.397,285.544,521.052,289.054,512.908 C292.724,504.392,294.838,497.679,294.632,487.3 C294.526,481.964,291.77,476.342,292.438,470.904 C293.073,465.724,294.877,460.584,295.792,455.43 C297.015,448.541,297.634,444.37,298.209,436.397 C298.663,430.092,299.744,422.197,300.284,416.354 C300.338,415.769,300.696,409.646,300.7,409.37 C300.792,403.465,300.93,404.583,300.025,398.734 C299.153,393.096,298.615,390.224,297.545,386.857 C294.234,391.033,291.55,394.01,288.28,395.719 C283.949,397.983,280.399,399.302,272.784,400.331 C267.162,401.09,258.991,399.277,255.031,402.444 C246.213,409.496,235.071,416.811,236.276,427.059 z"/>
              <path id="am36" style="fill:#8735c0;fill-opacity:1;fill-rule:nonzero;opacity:1;stroke:none;" d="M287.744,544.721 C285.787,534.8,274.438,528.359,264.986,527.003 C260.847,526.409,257.692,524.663,254.236,527.131 C254.867,530.879,254.349,534.945,253.64,538.735 C253.234,540.909,253.269,543.691,252.869,545.853 C251.897,551.111,250.958,556.555,250.899,561.888 C250.781,572.45,252.029,584.618,253.202,595.109 C254.627,607.857,256.399,618.905,259.992,631.105 C260.378,632.415,261.063,634.307,261.377,635.615 C262.744,641.302,264.85,647.038,266.203,652.041 C267.085,655.303,268.108,658.477,269.041,661.763 C269.989,665.104,271.681,669.168,272.466,672.542 C273.774,678.171,275.721,684.366,283.018,684.367 C287.855,684.368,292.961,690.703,292.811,685.109 C292.711,681.361,292.358,675.957,291.217,670.381 C289.689,662.913,288.783,654.64,288.675,649.755 C288.518,642.694,286.56,637.771,287.445,629.307 C288.083,623.195,287.186,614.459,287.961,607.823 C288.251,605.34,290.018,603.148,290.779,600.783 C292.454,595.583,294.283,590.414,294.169,584.936 C293.862,570.2,290.784,560.141,287.744,544.721 z"/>
              <path id="am37" style="fill:#8735c0;fill-opacity:1;fill-rule:nonzero;opacity:1;stroke:none;" d="M272.411,673.082 C271.567,669.38,273.341,676.396,273.872,680.389 C274.599,685.848,274.019,695.165,274.097,699.765 C274.148,702.735,274.192,704.228,272.662,706.418 C271.593,707.948,270.537,709.726,269.42,711.197 C268.832,711.971,268.282,712.372,267.716,713.038 C267.454,713.347,267.127,713.9,266.902,714.237 C265.922,715.701,265.262,717.27,263.517,718.162 C261.911,718.983,260.192,722.762,259.448,724.394 C258.021,727.525,262.212,727.521,264.491,727.278 C266.23,727.093,267.95,726.795,269.314,726.822 C271.453,726.865,273.063,727.357,275.16,727.645 C278.275,728.073,281.734,727.604,284.843,727.722 C286.497,727.785,288.393,727.707,290.065,727.698 C291.71,727.691,293.134,727.763,294.471,726.562 C296.244,724.967,296.66,723.604,297.031,722.026 C298,717.899,296.524,713.339,296.345,709.344 C296.237,706.946,296.926,703.331,297.443,700.113 C297.811,697.827,298.197,695.841,297.68,694.19 C297.483,693.561,297.45,692.789,297.236,692.104 C296.637,690.189,295.816,688.258,295.13,686.105 C294.384,683.768,293.847,681.31,293.126,679.017 C292.703,677.675,292.562,676.314,292.16,675.091 C291.944,674.433,291.966,673.789,291.752,673.183 C290.473,669.546,289.075,666.958,288.875,666.535 C288.033,664.752,273.256,676.784,272.411,673.082 z"/>
              <path id="am38" style="fill:#8735c0;fill-opacity:1;fill-rule:nonzero;opacity:1;stroke:none;" d="M288.206,612.782 C288.438,610.01,288.839,606.05,290.116,602.692 C291.298,599.583,292.162,596.885,293.079,593.332 C293.436,591.95,293.802,589.333,294.001,587.631 C294.064,587.093,293,587.854,292.387,587.693 C291.828,587.546,291.317,588.183,290.966,588.53 C289.833,589.648,289.163,591.232,288.407,592.622 C286.415,596.289,285.339,601.109,285.52,605.277 C285.609,607.326,286.917,611.133,288.206,612.782 z"/>
              <path id="am39" style="fill:#8735c0;fill-opacity:1;fill-rule:nonzero;opacity:1;stroke:none;" d="M286.738,530.217 C286.152,529.673,285.8,528.793,285.483,528.108 C284.184,525.296,283.993,522.026,283.778,518.961 C283.563,515.885,283.943,512.934,284.345,509.892 C285.154,503.777,286.608,498.04,288.988,492.364 C289.849,490.308,291.019,488.593,292.223,486.744 C292.866,485.756,292.886,482.142,293.966,481.629 C295.012,487.638,294.863,495.414,293.129,501.161 C292.704,502.567,292.79,503.349,292.078,504.594 C289.994,508.241,288.171,512.773,287.759,517.203 C287.732,517.49,287.785,519.479,287.748,519.767 C287.342,522.927,287.941,524.951,288.089,527.915 C288.099,528.115,288.187,529.388,288.173,529.748 C288.128,530.939,288.868,532.847,287.89,533.694 C287.146,532.818,287.554,530.976,286.738,530.217 z"/>
            </g>
          </g>
        </g>
        <path id="am40" style="fill:#8735c0;fill-opacity:1;fill-rule:nonzero;opacity:1;stroke:none;" d="M314.791,592.341 C315.484,595.686,318.988,602.659,320.571,605.698 C320.847,606.229,319.341,610.039,320.165,609.732 C320.857,609.474,317.422,605.302,317.421,604.704 C317.419,601.136,317.63,594.039,314.791,592.341 z"/>
        <path id="am41" style="fill:#8735c0;fill-opacity:1;fill-rule:nonzero;opacity:1;stroke:none;" d="M319.655,638.044 C320.434,638.488,321.29,639.03,321.276,638.893 C320.999,636.206,323.997,631.246,323.948,628.551 C323.898,625.85,323.334,623.686,323.37,620.971 C323.387,619.679,321.792,617.614,321.911,616.32 C321.935,616.066,321.563,613.536,321.911,613.476 C322.265,613.416,317.619,614.558,317.761,614.808 C318.395,615.919,318.629,617.313,318.873,618.556 C319.201,620.23,319.096,622.006,319.211,623.704 C319.382,626.221,319.688,628.66,319.485,631.199 C319.414,632.091,322.295,635.064,321.329,635.437 C320.982,635.572,320.973,636.181,320.605,636.146 C320.328,633.459,318.877,637.601,319.655,638.044 z"/>
        <path id="am42" style="fill:#8735c0;fill-opacity:1;fill-rule:nonzero;opacity:1;stroke:none;" d="M329.166,698.345 C329.373,695.842,330.672,691.972,330.724,689.438 C330.812,685.097,331.177,681.707,331.859,676.976 C329.442,678.047,328.43,681.201,328.055,683.6 C327.666,686.098,327.685,688.976,328.438,691.416 C329.072,693.469,328.007,696.546,329.166,698.345 z"/>
        <path id="am43" style="fill:#8735c0;fill-opacity:1;fill-rule:nonzero;opacity:1;stroke:none;" d="M340.687,635.999 C340.687,635.999,342.878,632.028,342.393,629.423 C340.658,620.106,341.906,609.737,345.605,601.056 C346.826,598.189,348.308,595.479,350.363,593.134 C350.894,592.527,352.017,591.083,352.936,591.247 C353.568,591.359,352.6,594.047,352.554,594.538 C352.282,597.446,350.545,600.381,349.953,603.243 C349.328,606.273,349.901,609.283,349.206,612.293 C348.562,615.081,348.077,617.428,347.516,620.231 C347.154,622.04,346.686,623.469,346.325,625.271 C345.447,629.654,342.765,638.272,342.766,639.263 C342.766,640.253,340.687,635.999,340.687,635.999 z"/>
        <path id="am44" style="fill:#8735c0;fill-opacity:1;fill-rule:nonzero;opacity:1;stroke:none;" d="M352.26,540.805 C352.798,541.196,351.311,533.761,351.462,532.609 C351.513,532.221,351.309,531.517,351.325,531.122 C351.429,528.628,350.919,525.716,351.17,523.211 C351.499,519.912,351.876,516.987,352.366,513.729 C353.421,506.707,356.177,501.022,357.072,493.192 C357.545,489.057,356.886,484.783,358.504,481.153 C358.922,480.213,360.504,475.663,359.021,475.41 C357.354,475.127,356.876,480.089,355.916,481.253 C353.4,484.299,351.294,487.881,349.924,491.607 C346.348,501.329,344.867,511.483,346.352,521.795 C346.76,524.626,347.336,527.409,348.154,530.147 C348.49,531.275,348.795,532.699,349.465,533.678 C349.701,534.022,350.128,533.959,350.475,534.121 C350.828,534.285,351.033,535.421,351.378,535.171 C351.724,534.92,351.721,540.413,352.26,540.805 z"/>
        <path id="am45" style="fill:#8735c0;fill-opacity:1;fill-rule:nonzero;opacity:1;stroke:none;" d="M356.234,481.667 C357.221,480.134,360.181,478.392,360.537,476.673 C360.874,475.049,361.088,472.687,361.374,471.047 C361.722,469.053,361.783,467.888,362.122,465.89 C362.333,464.642,362.824,463.025,362.859,461.759 C362.868,461.455,363.755,457.277,363.702,456.587 C363.665,456.117,362.713,461.354,362.463,461.679 C361.703,462.668,361.021,463.744,360.467,464.867 C358.558,468.735,357.594,472.664,357.662,476.989 C357.686,478.518,354.442,481.568,356.234,481.667 z"/>
        <path id="am46" style="fill:#8735c0;fill-opacity:1;fill-rule:nonzero;opacity:1;stroke:none;" d="M365.847,425.174 C366.558,426.544,366.869,428.064,367.346,429.519 C367.898,431.202,367.302,432.944,367.319,434.753 C367.328,435.672,367.031,436.688,366.932,437.585 C366.682,439.853,366.534,440.381,366.172,442.635 C366.023,443.567,365.695,445.076,365.616,446.034 C365.46,447.909,364.44,450.582,364.201,452.487 C364.164,452.782,365.451,454.08,365.049,454.013 C364.587,453.937,364.36,452.848,364.201,452.487 C363.476,450.849,363.063,449.028,362.868,447.249 C362.727,445.966,362.973,444.711,363.024,443.435 C363.062,442.484,362.977,441.532,363.049,440.583 C363.269,437.694,363.899,434.856,364.421,432.013 C364.844,429.702,364.752,427.287,365.847,425.174 z"/>
        <path id="am47" style="fill:#8735c0;fill-opacity:1;fill-rule:nonzero;opacity:1;stroke:none;" d="M304.789,416.258 C304.379,424.62,306.256,433.101,307.446,441.367 C307.895,444.481,307.988,447.528,308.402,450.647"/>
        <path id="am48" style="fill:#8735c0;fill-opacity:1;fill-rule:nonzero;opacity:1;stroke:none;" d="M324.695,399.328 C325.221,399.574,325.847,399.952,325.601,400.269 C325.007,401.033,324.057,401.22,323.179,401.351 C321.975,401.53,320.835,401.612,319.611,401.605 C318.453,401.597,317.312,401.524,316.196,401.146 C314.967,400.729,313.931,399.955,312.876,399.219 C309.736,397.028,305.926,402.782,306.143,398.618 C306.169,398.129,307.986,389.436,308.113,388.961 C309.052,390.315,309.199,390.681,310.26,391.913 C312.205,394.171,314.67,396.278,317.443,397.414 C319.283,398.168,321.288,398.969,323.248,399.176 C324.695,399.328,324.976,399.406,326.1,399.706 C326.283,399.755,327.362,399.572,327.428,399.753 C327.511,399.983,327.006,400.165,326.867,400.217 C326.166,400.48,325.404,400.466,324.664,400.474"/>
        <path id="am49" style="fill:#8735c0;fill-opacity:1;fill-rule:nonzero;opacity:1;stroke:none;" d="M312.167,463.513 C312.627,466.418,314.319,468.504,314.845,471.396 C314.968,472.071,314.622,472.927,314.843,473.576 C314.889,473.712,314.271,473.895,314.476,473.861 C314.672,473.828,313.067,472.755,313.111,472.597 C313.315,471.862,313.383,471.093,313.562,470.352 C314.225,467.608,315.479,464.103,312.167,463.513 z"/>
        <path id="am50" style="fill:#8735c0;fill-opacity:1;fill-rule:nonzero;opacity:1;stroke:none;" d="M313.726,483.733 C313.672,484.563,312.565,484.655,312.909,485.446 C312.999,485.655,310.875,485.512,311.158,485.524 C311.838,485.553,312.426,483.591,312.685,483.115 C313.876,480.921,313.686,478.409,313.158,476.054 C312.952,475.138,314.14,474.336,313.571,473.576 C313.538,474.02,313.031,474.284,312.956,474.713 C312.732,475.999,312.713,477.682,312.293,478.907 C311.859,480.175,314.622,481.691,314.532,483.063 C314.402,485.065,311.52,487.667,311.52,490.068 C312.298,489.903,312.461,488.77,312.903,487.864 C313.657,486.319,311.931,485.579,311.314,484.559 C310.905,483.883,314.038,484.467,313.726,483.733 z"/>
      </g>
      <path id="am51" style="fill:#8735c0;fill-opacity:1;fill-rule:nonzero;opacity:1;stroke:none;" d="M287.264,611.155 C288.631,608.13,288.158,615.838,287.997,617.962 C287.973,618.277,288.079,620.094,287.678,620.107 C287.213,620.122,286.913,618.298,286.877,617.943 C286.646,615.65,286.669,610.021,287.17,611.034"/>
      <path id="am52" style="fill:#8735c0;fill-opacity:1;fill-rule:nonzero;opacity:1;stroke:none;" d="M274.346,686.571 C274.136,689.033,274.286,691.429,274.242,693.896 C274.199,696.261,274.269,698.79,274.017,701.064 C273.806,702.969,273.685,704.771,272.767,706.277 C272.219,707.176,271.541,707.615,270.921,708.358 C270.663,708.666,270.421,709.577,270.218,710.042 C270.016,710.504,269.647,710.873,269.42,711.197 C269.232,711.465,268.544,711.929,268.997,712.129 C269.328,712.275,269.933,711.852,270.232,711.73 C271.531,711.2,272.723,710.395,273.634,709.306 C277.262,704.966,280.037,693.493,276.977,695.114 C273.917,696.734,274.346,686.571,274.346,686.571 z"/>
      <path id="am53" style="fill:#8735c0;fill-opacity:1;fill-rule:nonzero;opacity:1;stroke:none;" d="M274.776,691.523 C274.501,691.343,274.24,694.014,274.24,694.014"/>
      <path id="am54" style="fill:#8735c0;fill-opacity:1;fill-rule:nonzero;opacity:1;stroke:none;" d="M268.872,711.794 C268.872,711.794,267.093,714.132,266.257,715.385 C265.786,716.091,265.281,716.727,264.733,717.232 C264.039,717.872,263.309,718.356,262.601,718.966 C262.076,719.417,261.92,719.832,261.565,720.374 C260.424,722.11,258.96,723.711,259.25,725.891 C259.306,726.311,259.286,726.224,259.663,726.63 C260.206,727.216,260.593,727.195,261.335,727.303 C263.274,727.583,264.677,727.164,266.618,726.994 C267.654,726.904,269.522,726.764,270.356,726.923 C272.858,727.399,275.65,727.86,278.074,727.7 C280.466,727.543,282.958,727.616,285.344,727.724 C287.798,727.835,290.217,728.162,292.674,727.789 C293.614,727.646,294.969,727.437,295.755,726.869 C296.592,726.263,297.025,724.963,297.018,723.745 C297.015,723.185,297.318,722.647,297.528,722.107 C297.631,721.843,297.783,721.592,297.809,721.304 C298.072,718.418,297.234,715.527,296.669,712.73 C296.491,711.854,296.421,710.954,296.301,710.068 C296.133,708.843,295.877,707.431,296.033,706.197 C296.033,706.197,268.872,711.794,268.872,711.794 z"/>
      <path id="am55" style="fill:#8735c0;fill-opacity:1;fill-rule:nonzero;opacity:1;stroke:none;" d="M281.992,702.431 C282.145,701.496,277.104,698.35,277.23,697.405 C277.313,696.779,276.466,694.512,276.559,693.891 C276.725,692.775,274.29,692.476,274.275,691.347 C274.241,688.812,274.558,686.058,274.228,683.561 C274.094,682.552,274.079,681.391,273.872,680.389 C273.625,679.187,273.608,678.228,273.286,677.044 C273.164,676.597,273.082,675.955,272.952,675.45 C272.924,675.342,273.285,674.573,273.436,674.569 C273.584,674.565,272.897,675.151,272.97,675.262 C273.17,675.562,273.403,675.832,273.638,676.104 C274.253,676.817,274.831,677.568,275.204,678.443 C275.498,679.131,275.647,679.88,275.8,680.61 C276.38,683.378,276.215,686.209,275.698,688.975 C275.531,689.866,275.242,690.73,275.056,691.616 C274.762,693.009,274.627,694.425,274.205,695.788 C274.003,696.442,274.439,697.663,274.091,698.252 C273.809,698.73,282.111,701.883,281.992,702.431 z"/>
      <path id="am56" style="fill:#8735c0;fill-opacity:1;fill-rule:nonzero;opacity:1;stroke:none;" d="M272.951,674.782 C272.405,673.555,271.705,669.673,271.275,668.413 C270.62,666.489,270.026,664.81,269.395,662.867 C268.348,659.639,267.567,656.646,266.595,653.398 C266.152,651.914,265.978,649.621,265.788,648.083 C265.75,647.779,263.99,647.167,264.47,647.053 C264.898,646.95,265.56,647.802,265.788,648.083 C266.866,649.415,267.337,650.857,267.849,652.469 C268.813,655.503,269.681,658.542,270.58,661.597 C270.858,662.544,271.307,663.436,271.582,664.385 C271.858,665.337,271.885,666.4,271.916,667.38 C271.964,668.962,274.084,673.476,272.951,674.782 z"/>
      <path id="am57" style="fill:#8735c0;fill-opacity:1;fill-rule:nonzero;opacity:1;stroke:none;" d="M244.398,469.178 C241.931,461.571,240.95,455.963,239.395,448.096 C239.023,446.215,238.828,445.704,238.691,443.792 C238.656,443.305,238.674,441.057,239.321,440.934 C239.728,440.857,238.952,440.775,239.321,440.934 C241.768,441.992,242.944,444.293,243.961,446.635 C246.566,452.633,247.111,459.397,245.414,465.713 C245.102,466.876,244.714,468.019,244.398,469.178 C244.208,469.879,244.921,468.637,244.398,469.178 z"/>
      <path id="am58" style="fill:#8735c0;fill-opacity:1;fill-rule:nonzero;opacity:1;stroke:none;" d="M297.52,387.011 C297.834,387.09,297.671,386.474,297.895,386.731 C298.195,387.076,298.338,388.701,298.397,389.129 C298.543,390.199,298.838,391.093,298.984,392.163 C299.697,397.386,299.963,402.514,300.011,407.772 C300.026,409.42,300.029,411.076,299.876,412.719 C299.854,412.954,299.921,414.174,299.639,414.212 C298.866,414.319,298.536,413.516,298.163,413.029 C297.065,411.597,296.663,409.633,296.266,407.902 C295.612,405.044,295.386,402.007,295.347,399.081 C295.291,394.901,295.622,390.8,297.52,387.011 z"/>
    </g>
  </g>
  <g id="am59">
    <g id="am60" style="opacity:0.5;">
      <path id="am61" style="fill:#4f35c0;fill-opacity:1;fill-rule:nonzero;opacity:1;stroke:none;" d="M258.06,178.354 C255.811,179.244,252.68,179.184,250.152,180.038 C246.236,181.361,242.919,183.708,240.006,186.117 C236.205,189.26,234.25,193.07,233.462,197.569 C232.468,203.245,230.324,209.19,229.473,214.522 C228.721,219.229,228.395,223.007,228.497,227.793 C228.51,228.424,228.322,231.445,228.824,231.918 C228.914,232.002,228.943,231.716,229.122,231.512 C229.565,231.007,229.591,230.99,229.815,230.69 C230.607,229.628,230.873,229.25,230.911,229.193 C232.063,227.437,232.4,227.192,233.659,225.511 C235.902,222.517,240.401,221.968,243.616,220.27 C247.952,217.981,251.689,215.515,255.093,211.521 C258.261,207.806,261.41,204.563,264.756,201.009 C267.192,198.422,270.297,195.618,272.862,193.145 C275.1,190.987,276.635,188.662,278.254,186.074 C278.965,184.937,279.645,183.201,278.727,181.958 C277.682,180.542,274.329,179.814,272.68,179.596 C267.599,178.924,262.812,176.474,258.06,178.354 z"/>
      <path id="am62" style="fill:#4f35c0;fill-opacity:1;fill-rule:nonzero;opacity:1;stroke:none;" d="M364.876,222.161 C362.04,220.808,360.112,218.705,357.662,216.799 C356.099,215.583,354.914,214.363,353.485,213.198 C352.708,212.565,351.62,212.127,350.908,211.305 C350.278,210.577,349.792,209.177,349.263,208.375 C348.595,207.365,347.197,206.746,346.469,205.789 C346.365,205.652,346.702,206.029,346.145,205.388 C344.548,203.553,343.444,201.781,341.809,200.304 C339.68,198.381,337.431,196.323,335.453,194.045 C333.908,192.266,331.815,190.654,330.224,188.659 C329.835,188.172,330.08,186.464,330.013,186.043 C329.981,185.839,330.014,185.831,329.865,185.563 C329.822,185.487,329.676,185.217,329.545,185.168 C329.444,185.129,329.58,184.801,329.723,184.661 C330.488,183.912,330.922,183.501,331.682,182.733 C332.19,182.219,332.675,181.58,333.486,181.096 C335.342,179.989,337.49,179.253,339.141,178.786 C340.449,178.417,340.595,178.515,341.479,178.512 C341.704,178.512,342.016,178.588,342.361,178.55 C343.251,178.454,344.869,178.551,345.745,178.626 C347.477,178.773,348.692,178.96,350.056,179.447 C351.643,180.014,353.474,180.143,354.995,180.445 C357.369,180.915,359.39,181.315,361.848,182.504 C363.226,183.17,365.02,184.673,366.218,185.806 C369.743,189.139,371.332,197.012,372.274,201.503 C373.017,205.048,374.597,208.422,375.242,211.965 C376.074,216.54,375.964,221.402,375.964,226.04 C375.964,228.009,375.816,229.071,376.373,230.851 C376.589,231.831,376.406,231.097,376.276,230.593 C375.973,229.422,375.457,227.979,374.821,226.484 C374.531,225.805,373.918,224.781,373.336,224.298 C371.265,222.58,366.963,223.156,364.876,222.161 z"/>
    </g>
  </g>
  <g id="am63">
    <g id="am64" style="opacity:0.5;">
      <path id="am65" style="fill:#e187c0;fill-opacity:1;fill-rule:nonzero;opacity:1;stroke:none;" d="M237.832,313.118 C238.894,310.31,239.926,307.369,240.38,304.595 C241.179,299.706,241.281,295.539,243.28,290.849 C245.497,285.647,248.004,279.53,250.318,274.339 C253.43,267.358,256.197,260.322,257.276,252.787 C257.908,248.378,258.322,244.126,258.585,239.682 C258.93,233.854,257.909,227.765,257.741,221.921 C257.663,219.204,257.035,216.726,256.636,214.064 C256.531,213.365,256.914,209.432,258.032,208.243 C258.47,207.777,254.993,211.568,254.782,211.881 C253.447,213.87,251.793,215.051,249.805,216.429 C247.656,217.919,245.31,219.532,242.908,220.602 C240.295,221.765,237.474,222.378,235.185,224.131 C232.165,226.443,231.337,229.218,228.763,231.898 C228.825,238.698,227.25,245.192,226.302,252.156 C225.411,258.708,224.456,265.006,222.801,271.5 C220.514,280.473,217.201,286.863,214.077,295.499 C212.957,298.595,211.433,302.994,211.172,306.287 C210.995,308.519,209.457,311.39,208.953,313.585 C208.351,316.205,207.789,319.317,207.007,321.905 C205.242,327.75,203.345,343.166,202.963,349.238 C202.464,357.171,202.471,358.974,201.793,366.096 C201.294,371.339,204.852,374.65,210.891,375.351 C215.083,375.838,213.307,368.484,214.006,365.849 C214.091,365.529,213.765,362.581,213.848,362.26 C214.985,357.822,216.49,354.465,218.12,350.237 C219.108,347.674,220.358,344.153,221.215,341.58 C221.992,339.245,224.087,335.91,225.278,333.758 C228.314,328.272,230.796,326.599,233.645,321.009 C234.314,319.697,234.701,319.031,235.52,317.803 C235.827,317.342,236.216,316.526,236.456,316.018 C237.395,314.03,237.266,315.923,237.192,315.57 C237.023,314.759,237.542,313.885,237.832,313.118 z"/>
      <path id="am66" style="fill:#e187c0;fill-opacity:1;fill-rule:nonzero;opacity:1;stroke:none;" d="M348.941,215.799 C349.418,214.806,350.908,211.305,351.565,211.755 C353.784,213.277,355.29,214.806,357.264,216.466 C359.788,218.589,362.491,220.631,365.403,222.216 C368.005,223.633,371.4,222.391,373.657,224.58 C374.853,225.741,375.479,228.547,376.15,230.019 C376.695,231.215,376.617,233.105,377.134,234.312 C378.182,236.754,377.542,238.842,377.882,241.478 C378.54,246.57,379.426,250.272,379.865,256.025 C380.155,259.834,381.914,266.203,382.675,269.93 C384.74,280.043,389.006,287.361,391.622,297.347 C393.003,302.617,396.519,309.611,397.211,314.878 C397.569,317.602,398.312,319.699,399.302,322.22 C399.744,323.345,399.703,323.939,399.96,325.127 C400.19,326.193,400.26,327.376,400.507,328.434 C400.791,329.646,400.757,330.617,400.792,331.828 C400.827,333.061,400.634,337.149,401.434,338.977 C402.18,340.681,401.127,336.394,401.754,341.286 C402.188,344.668,403.25,350.435,403.177,354.557 C403.16,355.505,403.654,356.36,403.706,357.306 C404.017,362.903,405.001,372.402,397.889,374.693 C396.773,375.052,395.725,374.475,394.622,374.504 C393.205,374.541,391.472,375.708,390.45,374.031 C389.423,372.346,391.283,369.651,392.643,368.41 C393.474,367.652,389.546,374.696,390.422,370.775 C391.472,366.076,390.034,363.761,389.799,362.647 C389.307,360.308,388.782,358.891,388.084,356.453 C387.008,352.693,385.768,347.875,384.176,344.348 C383.461,342.762,381.987,339.214,381.216,337.645 C377.057,329.183,370.941,321.349,367.775,312.475 C366.221,308.121,365.692,304.062,365.269,299.494 C365.085,297.503,364.414,294.684,363.652,292.796 C357.591,277.776,349.607,261.96,348.103,245.961 C346.56,229.543,347.081,232.001,346.573,224.256 C346.276,219.725,347.101,219.627,348.941,215.799 z"/>
    </g>
  </g>
  <g id="am67">
    <path id="am68" style="fill:#ac6afa;fill-opacity:1;fill-rule:nonzero;opacity:0.5;stroke:none;" d="M277.946,181.161 C277.226,180.694,275.896,180.353,275.044,180.185 C273.842,179.949,273.81,179.973,273.144,179.863 C272.791,179.805,271.928,179.485,271.35,179.559 C270.993,179.605,269.367,179.363,268.998,179.299 C268.5,179.211,268.093,178.771,267.56,178.717 C266.008,178.559,264.557,177.717,262.955,177.825 C262.193,177.876,261.462,178.076,260.696,178.098 C260.589,178.101,259.444,178.052,259.404,177.933 C259.35,177.778,260.713,177.105,260.783,176.995 C261.652,175.644,263.585,174.771,265.034,173.916 C266.181,173.239,268.541,172.453,269.839,172.078 C273.405,171.048,275.03,170.221,278.361,168.562 C280.087,167.702,281.896,166.906,283.292,165.598 C284.925,164.069,285.927,162.681,286.908,160.673 C287.483,159.495,288.367,157.644,288.577,156.339 C288.92,154.205,289.011,152.872,289.378,150.745 C289.623,149.33,289.234,147.536,289.13,146.082 C289.097,145.615,288.033,142.966,288.435,142.591 C288.614,142.423,289.171,143.254,290.048,143.901 C290.9,144.53,292.074,144.972,292.257,145.082 C293.991,146.122,299.02,147.617,300.146,147.683 C304.789,147.951,305.226,148.434,309.286,147.3 C310.422,146.983,313.221,146.528,314.796,145.155 C315.129,144.865,316.923,142.253,317.263,142.388 C317.634,142.534,317.06,143.376,317.05,143.665 C317.026,144.364,316.933,145.049,316.838,145.734 C316.627,147.253,316.785,148.777,316.854,150.315 C316.965,152.797,316.623,156.185,317.557,158.55 C318.56,161.092,320.107,163.356,322.048,165.28 C322.483,165.712,323.358,166.132,323.789,166.582 C324.809,167.647,325.795,167.576,326.875,168.606 C327.483,169.186,328.577,169.667,329.369,169.972 C330.641,170.463,331.656,170.978,332.944,171.421 C334.727,172.034,336.646,172.493,338.305,173.142 C338.759,173.32,339.312,173.344,339.563,173.6 C340.018,174.062,340.569,174.392,341.3,174.642 C342.551,175.071,343.617,176.058,344.746,176.719 C345.504,177.163,346.419,178.028,347.266,178.269 C348.278,178.557,347.959,178.465,348.843,179.022 C347.858,179.856,347.973,178.85,346.868,178.716 C345.341,178.53,343.591,178.633,342.021,178.531 C338.72,178.317,335.952,179.946,333.131,181.263 C333.191,181.304,333.136,181.4,332.866,181.585 C332.863,181.512,329.485,184.97,329.482,184.897 C330.452,185.059,329.715,187.809,330.185,188.508 C331.353,190.246,334.097,192.436,335.453,194.045 C337.263,196.192,338.58,197.436,340.736,199.31 C342.974,201.256,344.969,203.822,346.953,206.02 C348.357,207.576,350.525,209.133,350.908,211.305 C351.173,212.805,348.875,215.661,348.216,217.06 C346.704,220.267,346.496,223.779,346.496,227.226 C346.496,234.537,350.929,256.659,346.514,246.17 C345.147,242.923,344.145,255.682,343.602,258.44 C342.175,265.686,338.959,275.571,338.665,283.031 C338.448,288.544,339.208,296.478,341.387,300.466 C342.998,303.416,342.595,306.395,344.293,308.796 C344.044,308.58,344.979,308.425,344.628,308.272 C342.805,307.48,341.281,307.543,339.791,308.638 C339.434,308.901,339.106,309.159,338.822,309.373 C336.385,311.208,333.387,312.759,330.423,313.637 C328.467,314.216,326.437,314.567,324.384,314.908 C323.866,314.994,321.465,314.464,321.134,314.907 C320.504,315.749,321,318.148,320.773,319.212 C320.129,322.233,319.074,325.507,317.672,328.306 C313.84,335.95,309.024,342.792,305.288,350.522 C304.223,352.725,302.892,356.14,302.138,358.391 C301.059,354.205,301.602,348.402,299.518,344.315 C296.631,338.651,292.272,336.603,289.253,331.02 C288.114,328.914,286.672,326.374,286.342,324.035 C286.056,321.999,286.327,318.131,285.245,316.257 C284.107,314.287,282.35,313.702,280.443,312.615 C274.993,309.507,267.411,307.962,261.074,308.249 C261.076,306.368,262.456,304.385,263.334,302.75 C264.592,300.407,266.392,298.03,266.483,295.381 C266.701,289.025,267.248,280.522,266.01,274.267 C264.959,268.95,262.114,264.012,261.605,258.638 C261.126,253.582,261.991,249.266,258.656,246.17 C258.313,245.852,258.704,242.553,258.656,242.111 C258.218,238.074,258.604,235.085,258.372,231.015 C258.085,226.01,257.924,221.744,257.102,216.79 C256.801,214.973,256.256,212.018,256.912,210.231 C257.959,207.376,263.004,202.743,265.121,200.651 C270.197,195.636,276.186,190.909,279.101,184.373 C279.115,184.564,279.128,184.755,279.138,184.948 C279.241,183.402,279.205,181.977,277.946,181.161 z"/>
  </g>
</svg>
