<?xml version="1.0" encoding="utf-8"?>
<svg viewBox="0 0 16 16" xmlns="http://www.w3.org/2000/svg" xmlns:xlink="http://www.w3.org/1999/xlink">
  <!--Generated by AMDN-->
  <g id="am1">
    <radialGradient cx="8.22534" cy="11.9039" r="7.0129" fx="12.2729" fy="11.9629" gradientUnits="userSpaceOnUse" gradientTransform="matrix(0.131808,0.991275,-0.892148,0.118628,17.7612,2.33819)" id="am3">
      <stop offset="0.487179" style="stop-color:#ed239a;stop-opacity:1;"/>
      <stop offset="1" style="stop-color:#8cc63f;stop-opacity:1;"/>
    </radialGradient>
    <g id="am4">
      <path style="fill:url(#am3);fill-opacity:1;fill-rule:nonzero;opacity:1;stroke:none;" d="M12.7016,7.68885 C13.0122,7.28544,13.2849,6.83868,13.3265,6.30194 C13.3447,6.06738,13.2539,5.86462,13.2261,5.63927 C13.2684,5.7239,13.3281,5.79809,13.375,5.88026 C13.3705,5.87212,13.3659,5.86399,13.3611,5.85587 C13.8677,6.70966,14.6754,7.35621,14.7029,8.42539 C14.7261,9.32824,14.4475,10.3099,13.792,10.9594 C13.4757,11.2727,13.1399,11.5035,12.7848,11.7683 C12.2097,12.1971,11.5842,12.5358,10.9253,12.8392 C10.7795,12.9063,10.6405,12.9614,10.5311,12.993 C9.93218,13.1657,9.4646,13.2937,8.54856,13.3355 C7.59737,13.379,6.56211,13.4125,5.63003,13.1995 C5.55997,13.1835,5.48877,13.1652,5.41607,13.1445 C4.69398,12.9382,3.94544,12.697,3.3534,12.2164 C2.75409,11.73,2.39618,11.0816,2.12453,10.3862 C1.83824,9.65328,1.60248,8.86309,1.85118,8.06937 C2.12367,7.19972,2.62225,6.48276,3.26698,5.86817 C3.61627,5.53521,3.90927,5.33596,4.34001,5.09013 C3.94536,5.40016,3.64226,5.82475,3.36888,6.4595 C3.23577,6.76855,3.13112,7.10742,3.07773,7.41896 C3.48341,7.11402,3.91129,6.6693,4.2697,6.27507 C5.13272,5.32577,6.07271,4.24283,6.29621,2.95458 C6.35895,2.59293,6.40116,2.24798,6.34068,1.90633 C6.2971,1.66017,6.14751,1.49425,5.99923,1.29033 C6.23061,1.40573,6.46724,1.50437,6.6962,1.62484 C6.73007,1.64266,6.76384,1.662,6.79732,1.68241 C7.09368,1.86307,7.35254,2.07544,7.65087,2.24851 C9.20754,3.15161,10.4844,4.26796,11.4849,5.75606 C11.9152,6.39607,12.226,7.10393,12.2979,7.85809 C12.3028,7.90968,12.3055,7.96153,12.3062,8.01358 C12.4351,7.94319,12.5863,7.83863,12.7016,7.68885 z"/>
    </g>
  </g>
  <g id="am5">
    <g id="am6">
      <path id="am7" style="fill:#aaaaaa;fill-opacity:1;fill-rule:evenodd;opacity:1;stroke:none;" d="M5.6674,10.5573 C5.6674,10.5573,10.2421,10.5573,10.2421,10.5573 C10.2421,10.5573,10.2421,12.5168,10.2421,12.5168 C10.2421,12.5168,5.6674,12.5168,5.6674,12.5168 C5.6674,12.5168,5.6674,10.5573,5.6674,10.5573 z"/>
      <path id="am8" style="fill:#aaaaaa;fill-opacity:1;fill-rule:evenodd;opacity:1;stroke:none;" d="M3.06863,9.54649 C3.06863,9.54649,5.86032,9.53776,5.86032,9.53776 C5.86032,9.53776,5.86032,13.4694,5.86032,13.4694 C5.86032,13.4694,3.06863,13.4781,3.06863,13.4781 C3.06863,13.4781,3.06863,9.54649,3.06863,9.54649 z"/>
      <path id="am9" style="fill:#aaaaaa;fill-opacity:1;fill-rule:nonzero;opacity:1;stroke:none;" d="M5.1191,10.3106 C5.1191,10.3106,3.72325,10.3024,3.72325,10.3024 C3.72325,10.3024,3.06863,9.52953,3.06863,9.52953 C3.06863,9.52953,3.80984,8.7649,3.80984,8.7649 C3.80984,8.7649,5.20569,8.77313,5.20569,8.77313 C5.20569,8.77313,5.86032,9.54599,5.86032,9.54599 C5.86032,9.54599,5.1191,10.3106,5.1191,10.3106 z"/>
      <path id="am10" style="fill:#aaaaaa;fill-opacity:1;fill-rule:nonzero;opacity:1;stroke:none;" d="M5.1191,14.251 C5.1191,14.251,3.72325,14.2427,3.72325,14.2427 C3.72325,14.2427,3.06863,13.4699,3.06863,13.4699 C3.06863,13.4699,3.80984,12.7052,3.80984,12.7052 C3.80984,12.7052,5.20569,12.7135,5.20569,12.7135 C5.20569,12.7135,5.86032,13.4863,5.86032,13.4863 C5.86032,13.4863,5.1191,14.251,5.1191,14.251 z"/>
      <path id="am11" style="fill:#aaaaaa;fill-opacity:1;fill-rule:evenodd;opacity:1;stroke:none;" d="M3.06863,9.54649 C3.06863,9.54649,5.86032,9.53776,5.86032,9.53776 C5.86032,9.53776,5.86032,13.4694,5.86032,13.4694 C5.86032,13.4694,3.06863,13.4781,3.06863,13.4781 C3.06863,13.4781,3.06863,9.54649,3.06863,9.54649 z"/>
      <path id="am12" style="fill:#aaaaaa;fill-opacity:1;fill-rule:nonzero;opacity:1;stroke:none;" d="M5.1191,10.3106 C5.1191,10.3106,3.72325,10.3024,3.72325,10.3024 C3.72325,10.3024,3.06863,9.52953,3.06863,9.52953 C3.06863,9.52953,3.80984,8.7649,3.80984,8.7649 C3.80984,8.7649,5.20569,8.77313,5.20569,8.77313 C5.20569,8.77313,5.86032,9.54599,5.86032,9.54599 C5.86032,9.54599,5.1191,10.3106,5.1191,10.3106 z"/>
      <path id="am13" style="fill:#aaaaaa;fill-opacity:1;fill-rule:nonzero;opacity:1;stroke:none;" d="M5.1191,14.251 C5.1191,14.251,3.72325,14.2427,3.72325,14.2427 C3.72325,14.2427,3.06863,13.4699,3.06863,13.4699 C3.06863,13.4699,3.80984,12.7052,3.80984,12.7052 C3.80984,12.7052,5.20569,12.7135,5.20569,12.7135 C5.20569,12.7135,5.86032,13.4863,5.86032,13.4863 C5.86032,13.4863,5.1191,14.251,5.1191,14.251 z"/>
      <path id="am14" style="fill:#aaaaaa;fill-opacity:1;fill-rule:nonzero;opacity:1;stroke:none;" d="M12.1838,14.2801 C12.1838,14.2801,10.7879,14.2718,10.7879,14.2718 C10.7879,14.2718,10.1333,13.499,10.1333,13.499 C10.1333,13.499,10.8745,12.7344,10.8745,12.7344 C10.8745,12.7344,12.2704,12.7426,12.2704,12.7426 C12.2704,12.7426,12.925,13.5154,12.925,13.5154 C12.925,13.5154,12.1838,14.2801,12.1838,14.2801 z"/>
      <path id="am15" style="fill:#aaaaaa;fill-opacity:1;fill-rule:nonzero;opacity:1;stroke:none;" d="M12.1838,10.3397 C12.1838,10.3397,10.7879,10.3315,10.7879,10.3315 C10.7879,10.3315,10.1333,9.55864,10.1333,9.55864 C10.1333,9.55864,10.8745,8.79402,10.8745,8.79402 C10.8745,8.79402,12.2704,8.80225,12.2704,8.80225 C12.2704,8.80225,12.925,9.57511,12.925,9.57511 C12.925,9.57511,12.1838,10.3397,12.1838,10.3397 z"/>
      <path id="am16" style="fill:#aaaaaa;fill-opacity:1;fill-rule:evenodd;opacity:1;stroke:none;" d="M10.1333,9.5756 C10.1333,9.5756,12.925,9.56688,12.925,9.56688 C12.925,9.56688,12.925,13.4985,12.925,13.4985 C12.925,13.4985,10.1333,13.5072,10.1333,13.5072 C10.1333,13.5072,10.1333,9.5756,10.1333,9.5756 z"/>
      <path id="am17" style="fill:#ffffff;fill-opacity:1;fill-rule:nonzero;opacity:1;stroke:#000000;stroke-linecap:butt;stroke-linejoin:miter;stroke-miterlimit:10;stroke-opacity:1;stroke-width:0;" d="M5.6674,10.5573 C5.6674,10.5573,10.2421,10.5573,10.2421,10.5573 C10.2421,10.5573,10.2421,12.5168,10.2421,12.5168 C10.2421,12.5168,5.6674,12.5168,5.6674,12.5168 C5.6674,12.5168,5.6674,10.5573,5.6674,10.5573 z M3.06863,9.54649 C3.06863,9.54649,5.86032,9.53776,5.86032,9.53776 C5.86032,9.53776,5.86032,13.4694,5.86032,13.4694 C5.86032,13.4694,3.06863,13.4781,3.06863,13.4781 C3.06863,13.4781,3.06863,9.54649,3.06863,9.54649 z M5.1191,10.3106 C5.1191,10.3106,3.72325,10.3024,3.72325,10.3024 C3.72325,10.3024,3.06863,9.52953,3.06863,9.52953 C3.06863,9.52953,3.80984,8.7649,3.80984,8.7649 C3.80984,8.7649,5.20569,8.77313,5.20569,8.77313 C5.20569,8.77313,5.86032,9.54599,5.86032,9.54599 C5.86032,9.54599,5.1191,10.3106,5.1191,10.3106 z M5.1191,14.251 C5.1191,14.251,3.72325,14.2427,3.72325,14.2427 C3.72325,14.2427,3.06863,13.4699,3.06863,13.4699 C3.06863,13.4699,3.80984,12.7052,3.80984,12.7052 C3.80984,12.7052,5.20569,12.7135,5.20569,12.7135 C5.20569,12.7135,5.86032,13.4863,5.86032,13.4863 C5.86032,13.4863,5.1191,14.251,5.1191,14.251 z M3.06863,9.54649 C3.06863,9.54649,5.86032,9.53776,5.86032,9.53776 C5.86032,9.53776,5.86032,13.4694,5.86032,13.4694 C5.86032,13.4694,3.06863,13.4781,3.06863,13.4781 C3.06863,13.4781,3.06863,9.54649,3.06863,9.54649 z M5.1191,10.3106 C5.1191,10.3106,3.72325,10.3024,3.72325,10.3024 C3.72325,10.3024,3.06863,9.52953,3.06863,9.52953 C3.06863,9.52953,3.80984,8.7649,3.80984,8.7649 C3.80984,8.7649,5.20569,8.77313,5.20569,8.77313 C5.20569,8.77313,5.86032,9.54599,5.86032,9.54599 C5.86032,9.54599,5.1191,10.3106,5.1191,10.3106 z M5.1191,14.251 C5.1191,14.251,3.72325,14.2427,3.72325,14.2427 C3.72325,14.2427,3.06863,13.4699,3.06863,13.4699 C3.06863,13.4699,3.80984,12.7052,3.80984,12.7052 C3.80984,12.7052,5.20569,12.7135,5.20569,12.7135 C5.20569,12.7135,5.86032,13.4863,5.86032,13.4863 C5.86032,13.4863,5.1191,14.251,5.1191,14.251 z M12.1838,14.2801 C12.1838,14.2801,10.7879,14.2718,10.7879,14.2718 C10.7879,14.2718,10.1333,13.499,10.1333,13.499 C10.1333,13.499,10.8745,12.7344,10.8745,12.7344 C10.8745,12.7344,12.2704,12.7426,12.2704,12.7426 C12.2704,12.7426,12.925,13.5154,12.925,13.5154 C12.925,13.5154,12.1838,14.2801,12.1838,14.2801 z M12.1838,10.3397 C12.1838,10.3397,10.7879,10.3315,10.7879,10.3315 C10.7879,10.3315,10.1333,9.55864,10.1333,9.55864 C10.1333,9.55864,10.8745,8.79402,10.8745,8.79402 C10.8745,8.79402,12.2704,8.80225,12.2704,8.80225 C12.2704,8.80225,12.925,9.57511,12.925,9.57511 C12.925,9.57511,12.1838,10.3397,12.1838,10.3397 z M10.1333,9.5756 C10.1333,9.5756,12.925,9.56688,12.925,9.56688 C12.925,9.56688,12.925,13.4985,12.925,13.4985 C12.925,13.4985,10.1333,13.5072,10.1333,13.5072 C10.1333,13.5072,10.1333,9.5756,10.1333,9.5756 z"/>
    </g>
  </g>
</svg>
