<?xml version="1.0" encoding="utf-8"?>
<svg viewBox="0 0 600 800" xmlns="http://www.w3.org/2000/svg" xmlns:xlink="http://www.w3.org/1999/xlink">
  <!--Generated by AMDN-->
  <g id="am1">
    <g id="am2">
      <path id="am3" style="fill:#aaaaaa;fill-opacity:1;fill-rule:nonzero;opacity:1;stroke:none;" d="M291.182,84.5025 C288.018,88.1734,284.732,92.3179,283.193,96.9893 C282.28,99.7622,282.397,102.905,282.422,105.789 C282.478,112.399,283.392,118.577,284.847,125.013 C285.89,129.628,285.66,133.954,287.665,138.411 C290.083,143.785,294.25,150.685,299.956,153.037 C302.306,154.006,304.98,153.644,307.452,153.891 C310.208,154.166,312.85,154.219,315.507,153.291 C321.403,151.233,325.142,146.231,327.625,140.88 C328.352,139.311,329.464,137.772,330.013,136.133 C332.532,128.618,333.145,120.483,334.204,112.666 C335.063,106.325,336.505,99.2713,333.553,93.1916 C330.664,87.2418,325.437,81.4327,319.097,79.0763 C316.625,78.1578,314.371,78.1683,311.818,77.8151 C308.255,77.3222,304.592,77.1073,301.114,78.2165 C297.094,79.4991,293.894,81.3565,291.182,84.5025 z"/>
      <path id="am4" style="fill:#aaaaaa;fill-opacity:1;fill-rule:nonzero;opacity:1;stroke:none;" d="M248.475,183.228 C253.053,176.597,261.548,171.328,268.87,168.262 C275.142,165.636,281.844,163.788,286.657,158.684 C290.092,155.04,289.416,149.525,288.574,145.054 C288.233,143.239,288.243,141.404,288.136,139.572 C288.115,139.197,287.928,138.015,288.463,137.922 C288.944,137.838,289.513,138.576,289.779,138.893 C290.732,140.028,291.332,141.49,292.203,142.7 C295.5,147.287,302.386,149.389,304.837,154.595 C306.482,158.086,304.852,161.077,302.874,163.932 C300.812,166.907,298.884,169.289,295.843,171.323 C287.232,177.083,276.613,178.493,266.66,180.308 C260.49,181.433,254.783,182.929,248.475,183.228 z"/>
      <path id="am5" style="fill:#aaaaaa;fill-opacity:1;fill-rule:nonzero;opacity:1;stroke:none;" d="M270.914,179.62 C271.151,179.536,271.385,179.44,271.615,179.33 C275.585,177.424,279.534,175.451,283.44,173.426 C289.206,170.438,295.903,167.912,300.429,163.064 C301.552,161.86,303.987,159.889,304.285,158.24 C304.504,157.028,302.279,155.386,303.655,154.436 C304.951,153.54,307.04,153.944,308.501,154.089 C309.95,154.233,311.664,154.135,313.112,153.982 C319.123,153.35,324.616,149.517,325.883,144.12 C326.263,142.504,326.784,140.893,327.458,139.253 C328.246,137.337,329.098,135.051,330.427,133.426 C329.547,138.307,329.118,143.307,329.136,148.265 C329.143,150.034,328.945,152.094,329.488,153.803 C330.991,158.529,334.541,161.347,338.658,163.669 C339.702,164.258,340.555,165.191,341.685,165.645 C345.649,167.241,349.645,168.501,353.462,170.478 C357.079,172.352,360.484,175.098,363.88,177.361 C365.548,178.472,367.088,179.938,368.23,181.582 C368.778,182.371,369.361,183.22,368.381,183.957 C367.334,184.743,365.886,184.274,364.678,184.433 C362.214,184.756,360.097,185.536,357.561,185.656 C352.825,185.88,348.085,186.545,343.338,186.606 C339.189,186.66,335.049,186.091,330.909,186.165 C328.305,186.212,325.552,186.293,322.967,186.598 C322.866,186.61,322.694,186.026,322.587,186.032 C321.114,186.122,319.618,186.538,318.158,186.557 C315.179,186.594,312.191,186.357,309.209,186.489 C305.839,186.639,302.52,187.108,299.13,186.987 C291.949,186.729,284.776,185.361,277.588,184.95 C274.01,184.745,270.472,184.243,266.888,184.077 C266.772,184.072,266.586,183.999,266.357,184.013 C261.943,184.284,257.544,184.396,253.131,184.673 C252.57,184.708,250.313,184.761,249.665,184.01 C248.343,182.477,252.646,180.586,254.894,180.132 C258.55,179.394,262.302,179.004,266.036,179.096 C267.681,179.137,269.317,180.185,270.914,179.62 z"/>
      <path id="am6" style="fill:#aaaaaa;fill-opacity:1;fill-rule:nonzero;opacity:1;stroke:none;" d="M337.471,243.636 C337.471,243.636,336.544,243.335,336.544,243.335"/>
      <path id="am7" style="fill:#aaaaaa;fill-opacity:1;fill-rule:nonzero;opacity:1;stroke:none;" d="M326.294,142.704 C323.438,143.165,323.173,146.213,321.687,148.297 C320.645,149.758,318.351,150.785,316.671,151.273 C313.478,152.201,309.689,152.259,306.391,152.809 C305.331,152.985,303.17,153.492,303.906,155.112 C304.687,156.83,308.976,156.476,310.515,156.633 C312.227,156.809,313.871,157.205,315.614,157.02 C319.936,156.562,322.796,153.86,324.858,150.292 C326.412,147.603,328.515,145.308,326.294,142.704 z"/>
      <path id="am8" style="fill:#aaaaaa;fill-opacity:1;fill-rule:nonzero;opacity:1;stroke:none;" d="M356.772,319.199 C358.381,324.526,358.685,330.322,359.37,335.818 C360.4,344.08,361.824,352.258,362.686,360.542 C362.971,363.281,362.557,365.996,363.005,368.735 C365.116,381.632,371.97,393.592,373.697,406.662 C375.327,419.002,375.691,431.478,375.14,443.845 C374.936,448.414,375.46,453.179,374.816,457.7 C373.56,466.513,370.382,475.128,369.395,483.944 C368.646,490.643,367.976,496.962,366.847,503.581 C366.489,505.678,366.74,507.82,366.103,509.879 C365.465,511.944,363.784,513.419,362.935,515.361 C360.891,520.036,359.565,523.387,356.113,527.322 C352.82,531.078,347.668,536.696,342.185,536.574 C338.579,536.494,334.43,529.644,332.214,527.193 C328.133,522.68,326.083,517.815,323.418,512.427 C321.41,508.367,319.278,504.305,318.749,499.72 C318.077,493.895,319.555,487.898,318.727,482.133 C317.784,475.566,318.532,468.917,317.813,462.362 C317.166,456.47,314.69,450.759,314.015,444.836 C313.256,438.175,313.266,431.056,311.914,424.507 C310.6,418.146,307.951,412.391,306.249,406.194 C303.507,396.208,302.518,386.705,303.277,376.373 C303.646,371.341,303.775,365.742,306.328,361.216 C309.031,356.424,313.75,354.014,317.892,350.651 C320.231,348.752,322.251,346.16,324.958,344.747 C327.668,343.333,330.837,342.976,333.565,341.624 C339.312,338.775,342.583,332.752,345.062,327.042 C346.096,324.661,346.857,320.132,349.178,318.599 C351.447,317.101,354.693,318.157,356.772,319.199 z"/>
      <path id="am9" style="fill:#aaaaaa;fill-opacity:1;fill-rule:nonzero;opacity:1;stroke:none;" d="M292.418,609.684 C293.475,605.104,294.986,600.641,295.929,596.037 C297.121,590.216,297.128,583.507,296.639,577.603 C295.595,565.031,287.364,553.018,288.546,540.378 C289.344,531.84,290.986,522.066,293.958,514.004 C295.595,509.563,299.862,502.649,298.846,497.78 C298.074,494.08,292.171,489.648,289.03,488.084 C285.42,486.288,282.045,483.914,278.131,482.762 C272.901,481.222,267.554,481.428,262.186,480.863 C257.793,480.401,251.617,477.68,247.614,480.036 C250.555,488.044,248.014,497.479,248.518,505.873 C248.805,510.643,250.567,515.121,251.103,519.882 C251.65,524.744,250.845,529.586,250.747,534.447 C250.698,536.871,251.199,539.321,251.081,541.717 C250.485,553.741,247.87,565.75,247.708,577.764 C247.44,597.634,254.604,616.099,260.808,634.671 C262.281,639.081,263.692,643.609,264.622,648.167 C265.517,652.547,266.032,657.027,267.122,661.339 C268.784,667.912,270.017,674.748,270.664,681.588 C271.378,689.125,270.313,696.982,268.137,704.195 C267.292,706.999,265.503,708.932,264.001,711.346 C261.929,714.677,259.897,717.951,257.939,721.354 C256.254,724.283,254.192,726.503,255.17,730.16 C256.336,734.522,262.553,731.423,265.256,731.647 C272.827,732.272,280.44,732.718,288.076,732.189 C291.058,731.983,293.707,732.65,296.612,731.163 C301.504,728.66,301.934,724.653,301.713,719.635 C301.578,716.556,301.553,713.246,300.986,710.219 C300.384,707.004,299.37,704.316,299.372,700.99 C299.373,696.845,300.925,692.732,300.587,688.51 C300.458,686.894,299.223,685.301,298.623,683.833 C297.367,680.766,296.43,677.419,295.514,674.233 C293.453,667.058,292.923,658.684,292.15,651.252 C290.718,637.471,289.306,623.171,292.418,609.684 z"/>
      <path id="am10" style="fill:#aaaaaa;fill-opacity:1;fill-rule:nonzero;opacity:1;stroke:none;" d="M334.412,703.096 C335.252,704.111,336.112,705.332,337.366,705.873 C342.618,708.14,347.478,703.336,348.364,698.372 C349.251,693.401,347.605,688.171,348.065,683.149 C348.986,673.08,351.668,662.998,353.714,653.109 C355.358,645.161,356.634,637.272,358.953,629.468 C359.382,628.022,359.639,626.632,360.16,625.174 C363.74,615.152,367.119,605.071,369.01,594.581 C372.412,575.713,368.331,555.478,366.834,536.63 C366.218,528.874,367.425,520.998,367.914,513.318 C367.975,512.357,367.962,511.2,368.084,510.033 C368.696,504.18,369.358,498.76,369.177,492.862 C369.144,491.779,369.341,487.594,367.959,487.258 C366.628,486.933,365.651,490.605,365.366,491.458 C363.818,496.091,363.012,501.453,362.946,506.213 C359.246,509.807,353.908,512.181,349.212,514.091 C346.395,515.237,342.797,516.587,339.712,516.323 C333.958,515.83,328.993,512.149,323.119,511.75 C325.208,519.965,326.707,528.284,327.992,536.665 C328.65,540.964,329.931,545.174,329.437,549.545 C328.909,554.221,326.256,559.332,324.868,563.855 C322.296,572.239,319.934,581.869,320.09,590.694 C320.26,600.329,324.593,608.089,326.345,617.363 C327.472,623.331,326.59,629.813,326.368,635.845 C326.062,644.155,326.862,652.255,324.894,660.447 C323.774,665.107,324.678,669.962,323.648,674.546 C322.672,678.891,319.421,682.485,318.57,686.822 C317.425,692.653,322.871,697.793,327.335,700.584 C329.629,702.018,331.791,704.93,334.769,704.666 C339.396,704.257,341.987,698.098,343.551,694.511 C346.011,688.866,345.581,683.001,345.977,676.989 C346.405,670.483,347.851,664.649,349.365,658.348"/>
      <path id="am11" style="fill:#aaaaaa;fill-opacity:1;fill-rule:nonzero;opacity:1;stroke:none;" d="M198.886,372.07 C199.289,372.656,200.443,372.741,201.07,372.982 C202.976,373.715,205.003,374.362,206.84,375.26 C211.897,377.732,215.429,381.489,219.761,384.897 C219.508,380.955,218.851,377.052,218.739,373.092 C218.566,366.953,219.449,360.042,221.288,354.171 C224.174,344.959,230.55,337.014,231.716,327.212 C232.424,321.254,233.489,314.82,231.997,308.888 C230.695,303.71,226.562,299.566,227.123,294.174 C227.202,293.417,227.201,292.57,227.263,292.077 C227.474,290.388,228.17,288.777,228.961,287.29 C232.335,280.943,237.508,275.611,241.039,269.347 C243.06,265.761,244.452,261.402,245.546,257.45 C245.808,256.506,246.051,255.485,246.255,254.42 C249.527,262.442,254.491,269.411,258.934,277.046 C261.135,280.828,260.886,285.375,266.71,284.759 C268.817,284.537,271.973,283.95,273.265,282.061 C275.189,279.246,274.339,273.956,275.26,270.717 C276.938,264.816,281.063,258.55,285.52,254.405 C289.52,250.685,293.983,246.353,299.307,244.612 C302.818,243.464,307.733,243.75,310.759,241.705 C312.034,244.174,313.706,247.041,316.567,248.759 C320.062,250.858,325.765,251.088,329.739,251.608 C341.802,253.184,353.904,253.644,364.357,246.297 C368.436,243.429,372.682,239.979,376.07,236.323 C377.859,234.394,377.477,231.747,380.394,230.934 C382.67,230.299,384.706,231.94,386.483,233.119 C391.411,236.39,393.829,242.355,398.52,245.767 C401.765,248.127,407.327,245.346,408.532,241.93 C409.12,240.265,409.313,238.438,409.56,236.694 C410.527,229.855,409.369,221.524,407.29,214.981 C406.29,211.832,404.691,209.234,403.296,206.276 C400.255,199.828,397.189,191.919,391.028,187.777 C385.725,184.213,377.618,182.732,371.372,182.507 C360.673,182.122,350.23,182.857,339.53,183.501 C333.802,183.846,328.018,184.427,322.286,184.897 C318.959,185.17,316.042,185.922,313.063,184.148 C310.523,182.634,307.773,181.709,305.28,180.79 C293.513,176.448,280.276,176.664,269.973,182.948 C269.94,182.937,269.908,182.925,269.876,182.912 C263.31,180.419,257.188,179.644,250.364,180.915 C250.523,180.762,250.403,180.883,250.688,180.604 C249.66,181.74,248.69,183.159,247.136,183.613 C246.268,183.866,245.145,183.249,244.268,183.128 C242.864,182.934,241.095,183.048,239.677,183.133 C235.746,183.368,232.644,184.376,229.239,186.297 C223.752,189.394,219.83,195.237,216.681,200.503 C213.84,205.251,210.408,210.001,209.122,215.498 C208.072,219.988,208.254,225.436,208.429,230.015 C208.488,231.569,208.546,233.073,208.651,234.563 C208.936,238.6,206.435,241.16,204.591,244.466 C202.978,247.359,201.806,250.523,200.503,253.565 C199.143,256.741,197.615,259.807,197.116,263.296 C196.296,269.033,195.156,279.463,196.584,283.158 C196.74,283.562,196.836,283.911,196.898,284.223 C197.639,287.952,195.028,291.063,193.634,294.436 C192.402,297.416,191.436,301.011,191.255,304.237 C191.001,308.738,192.606,312.748,192.89,317.147 C193.039,319.452,193.397,321.848,193.315,324.156 C193.152,328.731,192.309,333.272,192.748,337.872 C193.308,343.742,195.73,349.087,196.874,354.809 C197.666,358.765,197.787,362.808,198.199,366.805 C198.27,367.486,198.231,368.333,198.246,369.182 C198.307,372.511,198.238,375.895,198.155,379.241 C198.095,381.674,197.696,384.109,197.658,386.545 C197.605,389.971,197.841,393.385,197.902,396.81 C197.964,400.318,197.32,403.901,197.931,407.379 C198.47,410.448,200.049,413.444,201.251,416.336 C202.02,418.186,202.549,420.092,203.715,421.77 C204.949,423.543,206.559,425.001,207.982,426.615 C208.953,427.717,209.984,428.411,211.269,429.074 C211.701,429.297,212.139,429.767,212.648,429.779 C215.14,429.833,214.989,428.302,214.419,426.411 C213.628,423.786,211.871,421.357,210.406,419.06 C209.907,418.278,209.608,417.664,209.3,416.784 C209.238,416.607,208.973,416.079,209.179,415.924 C209.427,415.737,209.83,416.669,209.914,416.822 C210.518,417.923,210.922,418.993,211.796,419.944 C213.204,421.477,214.65,423.028,216.032,424.596 C217.28,426.014,218.908,427.728,220.817,428.216 C222.927,428.754,224.995,428.534,227.115,428.354 C227.835,428.292,229.157,428.209,229.503,427.433 C230.389,425.448,228.411,423.839,227.118,422.746 C226.851,422.52,225.701,421.416,226.025,421.057 C226.952,420.025,228.593,421.357,229.51,421.618 C230.314,421.846,231.337,421.548,232.153,421.455 C233.49,421.303,234.936,421.486,235.88,420.238 C236.71,419.142,236.583,416.428,235.656,415.411 C235.305,415.025,233.943,414.831,233.974,414.227 C234.007,413.564,234.978,413.071,235.394,412.658 C236.245,411.814,237.575,409.41,236.79,408.264 C236.056,407.192,233.73,406.928,232.598,407.298 C231.991,407.497,231.449,407.96,230.807,408.023 C229.329,408.168,227.635,406.594,226.889,405.499 C225.751,403.83,225.856,401.931,225.751,399.998 C225.614,397.488,225.43,394.981,224.96,392.508 C224.035,387.641,220.957,383.915,218.327,379.865"/>
      <path id="am12" style="fill:#aaaaaa;fill-opacity:1;fill-rule:nonzero;opacity:1;stroke:none;" d="M270.846,178.039 C270.033,178.275,266.909,179.411,268.623,180.733 C269.732,181.588,272.833,181.044,273.308,179.618 C274.163,177.053,272.803,177.471,270.846,178.039 z"/>
      <path id="am13" style="fill:#aaaaaa;fill-opacity:1;fill-rule:nonzero;opacity:1;stroke:none;" d="M365.317,178.702 C367.707,179.94,369.701,181.533,372.253,182.505 C372.649,182.656,374.466,183.09,374.122,183.783 C373.65,184.735,371.986,184.638,371.147,184.526 C368.277,184.139,366.591,180.934,365.317,178.702 z"/>
      <path id="am14" style="fill:#aaaaaa;fill-opacity:1;fill-rule:nonzero;opacity:1;stroke:none;" d="M256.601,175.087 C256.031,175.557,255.592,176.157,255.017,176.615 C252.616,178.531,250.013,180.228,247.469,181.949 C247.09,182.205,246.696,182.419,246.294,182.611 C246.143,182.683,245.903,182.76,245.616,182.843 C244.5,183.168,241.253,183.324,242.775,184.69 C242.819,184.73,242.87,184.77,242.928,184.811 C243.735,185.381,245.553,185.038,246.315,184.978 C248.784,184.783,250.061,183.247,251.517,181.416 C252.796,179.809,254.041,178.171,255.324,176.577"/>
      <path id="am15" style="fill:#aaaaaa;fill-opacity:1;fill-rule:nonzero;opacity:1;stroke:none;" d="M261.091,328.626 C261.847,329.847,262.276,340.082,264.789,345.425 C267.409,350.996,273.94,355.302,278.376,359.324 C282.557,363.115,286.022,367.799,290.68,371.064 C304.667,380.87,323.727,370.362,334.255,360.192 C336.066,358.443,338.412,357.238,340.019,355.256 C343.334,351.167,346.277,346.701,349.363,342.401 C352.698,337.754,356.465,330.918,357.256,325.167 C358.257,317.885,357.665,309.405,356.902,302.128 C356.277,296.169,354.787,288.63,356.406,282.74 C359.158,272.732,366.378,264.576,371.001,255.874 C376.2,268.756,385.501,279.883,390.721,292.991 C390.795,293.175,390.874,293.349,390.959,293.512 C393.482,298.345,387.883,303.175,386.757,308.582 C385.404,315.081,386.646,322.249,387.397,328.767 C388.708,340.139,395.99,349.325,398.496,360.282 C399.146,363.129,398.454,366.77,398.374,369.689 C398.262,373.802,398.264,377.901,397.833,382.011 C397.485,385.328,393.687,387.564,392.89,390.991 C392.211,393.909,392.848,396.66,392.556,399.575 C392.322,401.91,390.969,404.759,389.698,406.716 C389.075,407.674,387.756,408.806,386.525,408.603 C385.591,408.449,384.87,407.948,383.871,407.91 C382.803,407.869,381.246,408.142,381.193,409.511 C381.087,412.281,384.325,412.048,385.11,414.051 C385.381,414.743,383.163,414.801,382.791,415.178 C382.142,415.835,382.28,418.398,382.753,419.115 C383.912,420.872,387.152,421.284,389.222,421.201 C389.88,421.174,391.333,420.781,391.912,421.178 C392.274,421.426,390.805,422.658,390.6,422.815 C390.222,423.107,389.659,423.162,389.328,423.489 C388.19,424.613,388.444,426.538,389.717,427.37 C390.651,427.98,391.695,427.611,392.719,427.765 C394.007,427.958,395.184,428.29,396.504,428.053 C399.587,427.501,403.382,423.695,404.821,421.029 C404.424,423.291,403.141,425.265,402.791,427.505 C402.664,428.313,403.105,429.544,403.983,429.77 C405.396,430.134,406.935,428.964,408.086,428.253 C410.697,426.638,412.698,424.629,414.725,422.331 C415.583,421.359,416.68,420.224,417.032,418.942 C419.403,410.318,420.38,401.17,420.382,392.208 C420.383,389.939,419.98,387.711,419.912,385.459 C419.819,382.346,420.135,379.21,420.112,376.101 C420.086,372.63,420.022,369.346,420.138,365.855 C420.163,365.094,420.146,364.329,420.227,363.632 C420.706,359.536,421.023,355.469,421.616,351.382 C422.69,343.983,424.375,336.6,424.962,329.13 C425.369,323.954,425.302,318.707,425.603,313.518 C425.863,309.05,426.851,304.399,426.354,299.922 C425.962,296.39,424.019,293.57,422.35,290.563 C421.708,289.407,420.69,288.216,420.439,286.894 C418.959,279.077,422.888,270.873,420.33,263.082 C419.93,261.864,419.416,260.66,419.052,259.5 C418.37,257.325,418.035,255.073,417.291,252.878 C415.908,248.797,414.324,244.988,412.072,241.294 C411.35,240.11,410.624,238.316,409.496,237.466 C408.94,237.048,408.182,237.952,407.703,238.184 C406.259,238.883,405.014,239.131,403.446,238.665 C394.931,236.139,385.801,222.422,376.502,230.666 C374.643,232.313,373.343,234.78,371.826,236.737 C370.612,238.303,368.854,239.247,368.011,240.633 C362.85,239.527,358.413,242.598,352.865,240.749 C350.498,239.961,348.914,238.149,346.836,236.887 C342.559,234.29,338.111,231.641,333.545,229.588 C326.171,226.272,318.812,227.494,311.087,228.07 C306.657,228.4,302.449,228.179,298.34,230.05 C293.641,232.189,289.499,235.644,285.658,239.033 C275.427,248.06,265.418,260.565,262.326,274.167 C260.351,282.857,261.694,292.486,260.765,301.391 C260.207,306.743,258.916,311.969,259.188,317.379 C259.279,319.183,259.265,327.418,259.172,329.192 C258.65,339.177,255.995,342.484,255.535,352.95 C255.225,360.002,256.232,366.79,255.073,373.821 C253.384,384.064,248.455,393.76,246.036,403.909 C241.731,421.978,241.727,440.157,244.287,458.497 C245.818,469.466,246.769,482.798,252.711,492.437 C254.798,495.823,256.697,499.644,260.827,500.876 C264.063,501.842,267.742,498.217,271.351,498.223 C275.65,498.229,279.748,501.481,283.553,503.072 C285.637,503.943,287.969,503.904,290.176,504.166 C292.25,504.413,296.064,504.816,297.67,503.104 C300.042,500.576,299.281,494.838,298.988,491.721 C298.242,483.767,299.177,475.25,299.871,467.302 C300.345,461.879,302.3,456.819,303.295,451.506 C304.909,442.895,305.87,434.021,306.913,425.327 C308.178,414.781,307.423,404.259,307.706,393.688 C307.913,385.919,308.772,378.24,308.772,370.439"/>
      <path id="am16" style="fill:#aaaaaa;fill-opacity:1;fill-rule:nonzero;opacity:1;stroke:none;" d="M318.945,685.489 C317.658,688.981,316.698,693.022,317.335,696.778 C317.778,699.391,319.119,701.939,319.29,704.561 C319.536,708.342,318.143,712.372,317.539,716.085 C316.974,719.556,314.914,724.819,316.838,728.089 C318.592,731.067,323.119,731.567,326.204,732.023 C329.374,732.491,332.587,733.53,335.817,733.474 C336.811,733.457,337.599,732.837,338.57,732.799 C341.417,732.688,344.31,732.855,347.176,732.745 C348.336,732.701,349.384,732.114,350.556,732.103 C352.295,732.088,354.183,731.581,355.881,731.708 C357.814,731.853,360.707,732.894,362.336,731.286 C363.158,730.475,362.708,728.694,362.808,727.628 C363.189,723.574,359.84,721.525,357.536,718.867 C356.263,717.399,355.262,715.571,354.407,713.835 C353.346,711.68,352.476,709.375,351.367,707.261 C350.782,706.145,349.684,705.272,349.316,704.056 C348.43,701.123,349.126,697.417,347.372,694.806 C342.64,687.76,333.331,685.677,325.401,685.756 C323.049,685.779,319.787,683.205,318.945,685.489 z"/>
    </g>
  </g>
  <g id="am17">
    <g id="am18">
      <path id="am19" style="fill:#8cc63f;fill-opacity:1;fill-rule:nonzero;opacity:1;stroke:none;" d="M260.952,633.601 C261.189,634.399,261.43,635.197,261.675,635.995 C262.866,639.865,263.601,643.883,264.426,647.861 C265.11,651.164,265.994,654.494,266.673,657.807 C267.713,662.884,268.645,667.824,269.292,672.956 C269.705,676.226,270.689,679.469,271.117,682.712 C271.184,683.221,270.9,683.658,270.95,684.162 C271.412,688.788,268.833,695.288,269.302,699.838 C269.665,703.361,267.887,705.321,266.624,707.493 C264.936,710.396,263.298,713.282,260.553,716.972 C259.593,718.261,257.888,721.747,256.914,722.992 C255.234,725.141,253.889,728.507,255.399,730.862 C257.046,733.432,264.001,731.619,266.644,731.782 C275.472,732.329,279.194,732.631,283.987,732.403 C288.78,732.175,293.227,733.003,297.281,730.808 C300.437,729.099,301.682,726.236,301.69,723.083 C301.691,722.579,301.732,721.786,301.737,721.258 C301.755,719.577,301.645,718.101,301.567,716.476 C301.509,715.265,301.525,713.979,301.333,712.932 C300.714,709.557,299.714,706.566,299.47,703.095 C299.356,701.486,299.42,699.388,299.687,697.605 C299.881,696.316,300.085,695.124,300.248,693.919 C300.477,692.225,300.683,690.783,300.595,689.075 C300.533,687.873,300.01,687.067,299.605,685.97 C299.467,685.597,299.189,685.272,299.034,684.904 C297.444,681.123,296.356,677.394,295.185,673.297 C294.757,671.8,294.399,669.588,294.061,668.046 C293.725,666.514,293.594,664.949,293.383,663.49 C292.755,659.141,292.469,654.911,292.061,650.843 C291.441,644.65,290.635,638.935,290.607,632.407 C290.595,629.429,290.475,626.25,290.648,623.276 C290.897,619.004,291.544,614.945,292.246,610.742 C293.64,602.391,297.21,594.592,297.166,585.883 C297.126,578.081,295.383,569.792,292.693,562.379 C290.642,556.725,288.731,550.551,288.429,544.515 C288.063,537.188,290.107,526.246,292.431,519.254 C294.046,514.393,295.305,511.994,297.547,506.301 C300.122,499.764,298.937,492.817,298.698,485.337 C298.476,478.415,299.239,470.968,300.354,464.574 C301.023,460.735,302.205,457.101,303.061,453.422 C303.739,450.508,304.098,447.554,304.646,444.532 C305.347,440.665,305.411,437.871,305.764,434.927 C306.269,430.726,306.948,426.458,307.37,420.374 C307.654,416.281,307.568,416.471,307.608,415.172 C307.629,414.516,307.746,412.607,307.671,411.277 C307.626,410.477,307.375,409.895,307.375,409.895 C307.109,410.186,306.927,410.29,306.755,410.404 C305.902,410.973,306.254,410.819,305.151,411.155 C304.232,411.434,302.684,411.835,301.333,412.264 C300.944,412.388,300.872,412.431,300.567,412.535 C300.477,412.566,300.295,412.719,300.169,412.735 C298.02,413.005,297.264,413.103,295.409,413.766 C292.952,414.644,291.451,415.519,289.743,416.068 C288.67,416.413,287.221,416.787,285.904,416.984 C285.069,417.109,284.44,417.266,283.448,417.419 C279.556,418.021,276.122,418.874,272.466,419.574 C271.417,419.775,270.324,420.128,269.22,420.29 C268.468,420.401,267.78,420.457,267.035,420.674 C265.853,421.017,263.859,421.201,262.123,421.218 C260.871,421.229,259.811,421.17,258.865,421.239 C257.385,421.348,255.997,421.405,254.458,421.744 C254.009,421.843,253.483,421.845,253.063,422.052 C252.872,422.147,252.762,422.173,252.575,422.234 C251.095,422.724,250.183,422.931,249.191,423.527 C249.019,423.63,248.377,423.887,248.136,424.033 C247.665,424.317,247.271,424.592,246.785,425.113 C246.519,425.397,246.212,425.787,245.949,426.113 C245.806,426.29,245.48,426.708,245.332,426.899 C244.735,427.668,244.287,428.265,243.703,428.738 C243.042,429.273,242.576,429.302,242.545,429.797 C242.241,434.667,242.699,433.946,242.551,438.299 C242.375,443.444,242.96,448.537,243.525,453.355 C244.44,461.152,245.509,469.141,246.951,477.358 C247.422,480.038,248.235,483.809,248.606,486.483 C249.618,493.78,248.261,501.113,248.676,508.396 C248.872,511.829,250.561,514.983,250.981,518.384 C251.978,526.458,252.081,535.748,251.412,543.863 C250.307,557.262,247.173,570.894,248.294,584.399 C248.538,587.341,249.22,590.551,250.215,593.803 C250.311,594.116,250.406,594.429,250.5,594.742 C251.712,598.761,251.749,603.107,252.749,607.238 C253.12,608.768,253.775,610.209,254.19,611.722 C254.648,613.392,254.955,615.097,255.429,616.766 C257.039,622.436,259.281,627.963,260.952,633.601 z"/>
      <path id="am20" style="fill:#8cc63f;fill-opacity:1;fill-rule:nonzero;opacity:1;stroke:none;" d="M299.158,689.295 C299.826,691.413,296.963,692.424,296.78,694.633 C296.735,695.174,298.331,696.543,297.544,696.524 C296.948,696.511,299.852,695.361,299.779,694.946 C299.415,692.858,298.477,691.275,299.158,689.295 z"/>
      <path id="am21" style="fill:#8cc63f;fill-opacity:1;fill-rule:nonzero;opacity:1;stroke:none;" d="M300.245,717.975 C300.063,717.833,299.898,717.689,299.775,717.585 C298.42,716.445,297.555,714.878,297.2,713.182 C296.311,708.941,296.273,704.732,298.423,700.85 C299.056,699.706,298.241,699.193,299.315,698.375 C299.372,699.767,299.286,700.464,299.369,701.853 C299.472,703.569,299.945,705.8,300.335,707.459 C300.568,708.453,300.881,709.867,301.062,710.848 C301.401,712.682,301.54,714.179,301.55,716.058 C301.554,716.868,301.621,717.829,301.688,718.664 C301.491,718.309,300.624,718.268,300.245,717.975 z"/>
      <path id="am22" style="fill:#8cc63f;fill-opacity:1;fill-rule:nonzero;opacity:1;stroke:none;" d="M300.115,728.244 C301.085,727.146,300.839,726.881,301.331,725.482 C301.505,724.99,301.671,723.575,301.69,723.083 C301.705,722.695,301.71,723.468,301.69,723.077 C301.617,721.644,301.643,721.954,301.561,720.531 C301.504,719.544,301.78,718.45,301.611,717.568 C301.569,717.35,301.604,716.268,301.288,716.245 C301.022,716.226,300.618,716.73,300.485,716.921 C299.914,717.742,299.493,718.674,299.241,719.635 C298.543,722.298,298.533,725.01,299.205,727.667 C299.49,728.796,299.34,727.304,300.115,728.244 z"/>
      <path id="am23" style="fill:#8cc63f;fill-opacity:1;fill-rule:nonzero;opacity:1;stroke:none;" d="M317.318,427.533 C317.14,426.71,316.776,425.924,316.529,425.117 C316.087,423.668,315.667,422.208,315.11,420.797 C314.071,418.166,312.793,415.644,311.703,413.036 C311.201,411.835,310.638,410.631,310.205,409.404 C309.988,408.786,309.784,407.749,309.312,407.278 C309.038,407.967,308.836,408.736,308.289,409.252 C308.138,409.395,307.367,409.937,307.37,410.131 C307.377,410.65,307.803,411.264,307.981,411.758 C308.46,413.084,308.957,414.408,309.437,415.737 C309.967,417.203,310.398,418.731,310.825,420.232 C310.958,420.699,311.107,421.166,311.257,421.634 C311.59,422.672,311.758,423.776,311.959,424.846 C312.053,425.345,312.279,425.836,312.283,426.339 C312.284,426.391,312.284,426.443,312.283,426.495 C312.276,427.15,312.477,428.003,312.518,428.32 C312.875,431.148,313.201,433.966,313.518,436.8 C313.826,439.549,313.366,442.347,313.841,445.076 C314.056,446.31,314.472,447.49,314.771,448.7 C315.041,449.793,315.147,450.918,315.427,452.004 C316.101,454.618,317.03,457.219,317.538,459.871 C317.881,461.66,317.914,463.514,318.023,465.328 C318.159,467.609,318.13,469.842,318.218,472.138 C318.222,472.239,318.23,472.338,318.219,472.413 C318.117,473.082,318.081,473.781,318.125,474.456 C318.207,475.697,318.042,476.983,318.219,478.216 C318.264,478.534,318.33,478.845,318.404,479.153 C318.63,480.093,318.574,481.124,318.733,482.102 C318.774,482.356,318.853,482.597,318.883,482.853 C318.942,483.35,318.91,483.856,318.936,484.353 C318.95,484.611,319.025,484.868,319.027,485.124 C319.045,486.68,319.038,488.23,318.915,489.808 C318.64,493.343,318.037,496.905,318.708,500.448 C318.995,501.966,319.614,503.407,320.12,504.825 C320.436,505.712,320.621,506.62,321.009,507.49 C321.594,508.804,322.41,509.984,322.927,511.338 C323.475,512.775,323.574,514.21,323.852,515.478 C324.795,519.774,325.693,523.928,326.461,528.132 C326.905,530.559,327.219,533.047,327.695,535.477 C327.992,536.997,328.14,538.772,328.519,540.322 C328.75,541.27,328.823,541.93,328.986,542.816 C329.067,543.255,329.105,543.515,329.227,544.309 C329.309,544.842,329.373,545.424,329.427,545.975 C329.628,548.05,329.535,550.115,329.057,552.186 C327.813,557.561,324.847,562.238,323.874,567.644 C323.867,567.682,323.688,568.298,323.677,568.335 C323.022,570.737,322.449,572.998,321.78,575.915 C321.138,578.713,320.335,582.393,320.295,585.379 C320.26,587.968,319.892,590.606,320.171,593.195 C320.391,595.236,320.585,596.982,321.072,598.956 C321.401,600.291,321.504,600.767,321.667,601.342 C321.76,601.672,321.87,602.15,321.994,602.556 C322.286,603.512,322.549,604.398,322.807,605.211 C323.614,607.754,324.17,609.509,325.037,612.389 C325.124,612.678,325.253,613.122,325.322,613.414 C326.22,617.179,326.981,620.664,326.887,624.414 C326.813,627.318,326.808,630.388,326.496,633.202 C326.337,634.643,326.418,636.112,326.306,637.576 C326.277,637.95,326.308,638.493,326.283,638.865 C326.087,641.721,326.406,644.579,326.253,647.384 C326.196,648.42,326.217,649.5,326.17,650.576 C326.135,651.359,326.098,651.992,326.037,652.907 C325.823,656.102,325.179,659.311,324.545,662.407 C323.919,665.462,324.569,669.365,323.999,672.449 C323.727,673.919,323.541,675.503,322.975,676.84 C322.272,678.5,321.529,680.137,320.593,681.719 C319.538,683.5,318.8,685.62,318.226,687.716 C317.761,689.416,317.505,690.752,317.236,692.333 C316.517,696.545,318.14,699.376,319.098,703.363 C319.442,704.799,319.393,706.379,319.153,707.813 C318.918,709.218,318.61,710.854,318.322,712.252 C318.24,712.652,318.086,713.173,318.028,713.572 C317.776,715.314,317.335,716.657,317.061,718.396 C316.728,720.507,316.095,722.619,316.039,724.766 C316.015,725.657,316.026,726.041,316.296,726.894 C317.133,729.538,318.956,730.577,321.364,731.136 C323.406,731.61,325.381,731.843,327.562,732.277 C329.655,732.694,332.446,733.425,334.67,733.468 C335.797,733.491,335.998,733.479,336.98,733.235 C337.15,733.193,337.611,732.978,337.785,732.956 C339.54,732.727,341.482,732.784,343.308,732.795 C345.103,732.806,346.412,733.075,348.135,732.618 C349.345,732.297,350.431,732.018,351.704,732.055 C352.262,732.071,353.467,731.736,354.031,731.78 C354.399,731.81,354.841,731.691,355.224,731.71 C355.883,731.743,356.46,731.796,357.141,731.899 C357.996,732.03,359.033,732.301,359.891,732.192 C360.363,732.132,361.042,732.153,361.456,731.886 C361.685,731.739,361.826,731.703,361.982,731.591 C362.843,730.97,362.826,730.642,362.819,729.281 C362.817,728.905,362.739,728.486,362.774,727.918 C362.829,727.014,362.778,725.963,362.503,725.115 C362.274,724.41,361.806,723.765,361.426,723.119 C360.918,722.255,360.171,721.648,359.427,720.902 C358.233,719.705,357.004,718.385,356.08,716.977 C354.818,715.055,354.014,712.859,352.963,710.793 C352.3,709.489,352.062,708.737,351.348,707.355 C350.849,706.388,349.793,705.674,349.457,704.579 C348.558,701.647,348.828,701.199,348.507,698.241 C348.404,697.296,348.689,696.031,348.607,694.719 C348.408,691.547,347.908,687.806,347.964,685.522 C347.996,684.244,348.218,682.803,348.227,681.533 C348.24,679.668,348.816,677.398,349.068,675.546 C349.935,669.178,351.417,663.768,352.839,657.355 C354.211,651.167,354.839,645.238,356.566,639.141 C357.676,635.224,358.044,631.445,359.511,627.622 C359.737,627.032,359.936,626.107,360.141,625.508 C363.258,616.377,367.198,605.761,368.75,596.294 C369.622,590.974,370.708,587.01,370.278,581.61 C370.121,579.634,370.238,576.724,370.238,574.685 C370.238,569.089,369.873,564.481,369.071,558.932 C368.936,558.003,368.859,556.334,368.686,555.336 C368.466,554.059,368.464,552.832,368.078,551.859 C367.312,549.93,366.085,548.543,366.011,546.513 C365.715,538.36,366.768,530.292,366.799,522.143 C366.805,520.559,367.177,518.964,367.045,517.376 C366.703,513.25,365.021,509.751,363.938,505.824 C362.164,499.39,354.289,494.8,347.823,497.193 C347.095,495.918,346.086,494.842,345.224,493.659 C343.174,490.844,341.162,488.014,339.087,485.215 C336.156,481.26,333.631,477.239,330.024,473.771 C330.803,473.076,331.145,472.118,331.552,471.173 C332.463,469.059,333.017,466.764,333.769,464.587 C334.824,461.529,336.343,458.576,336.69,455.326 C337.38,448.875,334.91,442.95,331.391,437.701 C330.15,435.849,328.963,434.05,327.351,432.489 C324.657,429.88,321.55,428.502,318.21,426.938 C316.601,426.185,314.495,425.24,312.652,425.672 C312.652,425.672,309.665,408.453,309.566,408.643 C309.466,408.834,307.59,410.297,307.48,410.214"/>
      <path id="am24" style="fill:#8cc63f;fill-opacity:1;fill-rule:nonzero;opacity:1;stroke:none;" d="M312.208,419.766 C312.71,418.951,313.719,419.818,314.157,420.278 C314.255,420.382,314.35,420.488,314.44,420.599 C314.916,421.182,315.133,421.861,315.354,422.568 C315.588,423.317,315.773,424.062,315.919,424.82 C316.003,425.254,316.607,425.984,316.642,426.63 C316.656,426.904,316.482,427.369,316.156,427.111 C316.097,427.455,315.936,427.754,315.574,427.895 C315.438,427.948,315.188,427.803,315.069,427.734 C314.873,427.621,314.712,427.441,314.536,427.299 C314.32,427.124,314.077,426.986,313.846,426.833 C313.494,426.6,313.202,426.298,312.887,426.02 C312.721,425.874,312.541,425.775,312.451,425.562 C312.346,425.314,312.38,425.027,312.397,424.764 C312.424,424.337,312.46,423.91,312.479,423.482 C312.517,422.648,312.425,421.82,312.431,420.986 C312.436,420.344,312.537,419.708,312.627,419.074"/>
      <path id="am25" style="fill:#8cc63f;fill-opacity:1;fill-rule:nonzero;opacity:1;stroke:none;" d="M309.946,407.66 C310.608,407.963,311.19,408.493,311.798,408.891 C312.35,409.252,313.017,409.484,313.616,409.756 C314.164,410.005,314.692,410.24,315.255,410.446 C315.388,410.494,315.54,410.521,315.668,410.579 C315.705,410.595,315.769,410.638,315.748,410.688 C315.707,410.784,315.467,410.774,315.383,410.785 C314.987,410.835,314.594,410.783,314.2,410.746 C312.946,410.629,311.801,409.866,310.879,409.044 C310.545,408.746,310.215,408.418,309.952,408.054 C309.885,407.963,309.748,407.764,309.805,407.643 C309.835,407.58,309.907,407.641,309.946,407.66 z"/>
      <path id="am26" style="fill:#8cc63f;fill-opacity:1;fill-rule:nonzero;opacity:1;stroke:none;" d="M309.463,407.29 C309.42,407.248,309.379,407.21,309.325,407.182 C309.301,407.248,309.292,407.319,309.28,407.388"/>
      <path id="am27" style="fill:#8cc63f;fill-opacity:1;fill-rule:nonzero;opacity:1;stroke:none;" d="M315.012,411.545 C313.621,412.164,311.671,412.634,311.191,414.3 C310.765,415.776,311.697,417.172,312.374,418.414 C312.735,419.077,313.053,419.762,313.461,420.4 C313.87,421.04,314.434,421.897,315.29,421.875 C316.548,421.843,317.274,420.283,317.712,419.315 C318.284,418.049,318.576,416.632,318.291,415.255 C318.157,414.608,317.889,413.99,317.655,413.375 C317.25,412.315,316.689,411.233,315.733,410.621 C315.761,410.669,315.603,410.82,315.595,410.893 C315.578,411.038,315.594,411.186,315.563,411.328 C315.504,411.605,315.348,411.864,315.233,412.12 C314.926,412.798,314.609,413.473,314.345,414.17 C314.046,414.961,313.796,415.981,313.249,416.641 C313.305,416.987,313.412,417.323,313.471,417.669 C313.579,418.31,313.627,418.961,313.745,419.599 C313.865,420.253,314.047,420.902,314.111,421.565 C314.17,422.169,314.12,422.775,314.062,423.376 C314.013,423.901,314.015,424.483,313.853,424.988 C313.777,425.227,313.628,425.479,313.34,425.457 C313.202,425.446,313.063,425.38,312.947,425.308 C312.781,425.207,312.595,425.08,312.491,424.911 C312.411,424.781,312.392,424.606,312.36,424.458 C312.302,424.193,312.241,423.928,312.172,423.666 C312.094,423.365,311.986,423.073,311.905,422.773 C311.815,422.438,311.716,422.112,311.655,421.77 C311.616,421.551,311.625,421.333,311.568,421.116 C311.402,420.483,311.15,419.873,310.99,419.237 C310.778,418.392,310.659,417.494,310.55,416.63 C310.488,416.139,310.491,415.581,310.533,415.088 C310.561,414.756,310.729,414.378,310.574,414.082 C310.229,413.422,309.988,412.71,309.84,411.972 C309.727,411.408,309.688,410.837,309.599,410.271 C309.553,409.978,309.526,409.679,309.462,409.391 C309.395,409.083,309.286,408.759,309.262,408.445 C309.245,408.226,309.348,408.001,309.382,407.788 C309.412,407.609,309.419,407.393,309.394,407.214 C309.432,407.231,309.474,407.272,309.497,407.288 C309.632,407.381,309.752,407.497,309.889,407.584 C310.46,407.951,310.935,408.475,311.539,408.791 C312.51,409.299,313.496,409.817,314.526,410.191 C314.813,410.295,315.104,410.389,315.397,410.469 C315.431,410.478,315.493,410.495,315.554,410.517 C316.261,410.773,317.003,410.897,317.75,411.007 C318.059,411.053,318.362,411.181,318.672,411.222 C319.02,411.268,319.381,411.243,319.73,411.265 C320.384,411.307,321.058,411.457,321.697,411.597 C322.059,411.676,322.399,411.851,322.745,411.964 C323.597,412.242,324.488,412.504,325.308,412.879 C325.877,413.14,326.478,413.459,327.086,413.621 C328.019,413.871,328.92,414.153,329.88,414.291 C330.105,414.324,330.333,414.343,330.557,414.384 C330.617,414.394,330.738,414.432,330.728,414.514 C330.716,414.609,330.573,414.685,330.504,414.735 C330.326,414.862,330.18,414.99,330.055,415.17 C329.715,415.659,329.53,416.3,329.368,416.867 C328.906,418.488,328.092,419.888,327.226,421.321 C326.278,422.889,325.284,424.414,324.276,425.938 C323.955,426.424,323.633,426.922,323.18,427.3 C322.731,427.675,322.196,427.883,321.672,428.127 C321.22,428.338,320.777,428.611,320.264,428.621 C320.004,428.627,319.67,428.558,319.449,428.417 C319.36,428.36,319.333,428.23,319.226,428.199 C318.829,428.083,318.4,428.247,318,428.037 C317.423,427.733,316.987,427.131,316.613,426.617 C315.744,425.422,314.929,424.074,314.343,422.719"/>
      <path id="am28" style="fill:#8cc63f;fill-opacity:1;fill-rule:nonzero;opacity:1;stroke:none;" d="M318.362,412.158 C318.142,411.505,317.119,411.26,316.556,410.978 C315.406,410.403,314.082,410.363,312.821,410.594 C312.218,410.704,311.74,410.747,311.252,411.162 C310.692,411.637,310.403,412.544,310.174,413.218 C309.821,414.256,310.519,415.408,311.069,416.239 C311.53,416.935,312.003,417.621,312.378,418.368 C313.185,419.975,313.924,422.12,315.949,422.567 C318.218,423.067,320.143,421.191,320.528,419.078 C320.769,417.754,320.373,416.309,319.923,415.073 C319.64,414.295,319.292,413.52,318.854,412.815 C318.648,412.482,318.772,412.202,318.362,412.158 z"/>
      <path id="am29" style="fill:#8cc63f;fill-opacity:1;fill-rule:nonzero;opacity:1;stroke:none;" d="M366.774,526.714 C366.77,524.232,367.178,521.821,367.348,519.355 C367.653,514.924,367.851,510.481,368.277,506.059 C368.566,503.058,369.038,500.001,369.077,496.986 C369.088,496.183,369.216,495.375,369.197,494.567 C369.168,493.389,369.004,492.215,368.949,491.036 C368.872,489.387,368.513,487.923,366.576,487.932 C365.341,487.938,364.797,488.882,364.005,489.621 C362.242,491.263,360.438,492.859,358.643,494.471 C356.771,496.153,354.91,497.722,352.885,499.219 C351.483,500.256,349.984,501.141,349.582,503.022 C349.436,503.707,349.963,504.852,350.309,505.42 C351.232,506.935,352.065,508.52,353.103,509.962 C355.445,513.217,357.821,516.454,360.304,519.605 C361.133,520.658,361.856,521.81,362.758,522.804 C363.981,524.153,365.473,525.473,366.774,526.714 z"/>
      <path id="am30" style="fill:#8cc63f;fill-opacity:1;fill-rule:nonzero;opacity:1;stroke:none;" d="M366.628,528.962 C366.27,529.568,366.268,530.383,366.22,531.074 C366.13,532.358,366.1,533.647,365.921,534.922 C365.774,535.967,365.53,536.979,365.348,538.019 C365.159,539.103,365.055,540.243,364.977,541.342 C364.698,545.303,364.657,550.285,368.386,552.958 C368.243,552.28,368.285,551.622,368.214,550.943 C368.074,549.611,367.916,548.267,367.767,546.93 C367.504,544.586,367.323,542.246,367.13,539.897 C367.01,538.445,366.765,536.99,366.713,535.531 C366.667,534.24,366.693,532.949,366.678,531.658 C366.669,530.807,366.748,529.809,366.628,528.962 z"/>
      <path id="am31" style="fill:#8cc63f;fill-opacity:1;fill-rule:nonzero;opacity:1;stroke:none;" d="M367.915,489.772 C367.665,489.244,367.41,488.718,367.149,488.194 C365.936,485.754,366.621,481.878,366.164,478.564 C365.819,476.069,365.598,473.57,365.326,471.068 C364.011,458.98,362.912,444.844,352.532,436.784 C347.917,433.2,341.951,431.219,336.479,429.36 C333.385,428.309,330.323,427.364,327.157,426.564 C325.464,426.137,323.901,425.505,322.115,425.763 C319.186,426.186,318.194,429.244,319.161,431.721 C320.774,435.853,323.474,439.456,325.36,443.45 C327.275,447.505,329.779,451.942,329.475,455.897 C329.258,458.725,329.404,461.908,329.152,464.169 C328.451,470.485,327.557,477.265,328.443,483.605 C329.453,490.824,332.907,497.626,338.481,502.379 C344.231,507.282,351.816,506.737,357.833,502.646 C359.299,501.65,360.186,500.106,361.477,498.947 C363.142,497.453,364.333,495.709,365.731,493.982 C366.742,492.734,367.766,491.774,367.238,490.085"/>
      <path id="am32" style="fill:#8cc63f;fill-opacity:1;fill-rule:nonzero;opacity:1;stroke:none;" d="M363.973,470.761 C365.926,470.935,366.251,468.054,366.489,466.594 C367.24,461.971,366.614,457.315,366.367,452.666 C365.807,442.124,362.816,429.401,351.912,424.991 C346.05,422.62,339.287,423.302,333.281,421.23 C330.798,420.373,327.014,418.735,324.436,420.127 C321.63,421.642,323.642,425.867,324.693,427.804"/>
      <path id="am33" style="fill:#8cc63f;fill-opacity:1;fill-rule:nonzero;opacity:1;stroke:none;" d="M358.253,471.92 C357.655,470.772,357.412,469.536,356.907,468.351 C354.28,462.182,352.328,455.644,348.871,449.858 C346.935,446.619,344.711,443.613,342.132,440.855 C339.39,437.923,336.335,435.322,333.778,432.212 C331.444,429.374,328.885,426.472,327.251,423.153 C326.592,421.815,325.819,420.167,326.43,418.664 C326.9,417.509,328.208,417.129,329.34,417.023 C331.826,416.79,334.326,417.348,336.769,417.722 C339.117,418.081,341.5,418.347,343.816,418.893 C345.971,419.402,348.068,420.133,350.244,420.562 C353.959,421.295,357.737,421.627,361.46,422.303 C363.774,422.723,366.091,424.042,368.158,423.68 C368.785,423.571,369.346,423.766,369.97,423.721 C370.323,423.695,370.617,423.464,370.97,423.448 C371.44,423.427,371.868,423.682,372.303,423.812 C373.302,424.112,374.45,424.16,374.952,425.235 C375.376,426.142,375.308,427.366,375.327,428.355 C375.351,429.639,375.375,430.968,375.378,432.245 C375.379,432.665,375.341,433.039,375.38,433.455 C375.459,434.308,375.296,435.407,375.359,436.365 C375.472,438.097,375.347,439.999,375.199,441.73 C375.119,442.681,375.129,443.503,375.117,444.461 C375.098,445.917,375.128,447.407,375.115,448.881 C375.103,450.266,375.26,451.756,375.099,453.132 C374.887,454.937,374.905,456.767,374.698,458.577 C374.447,460.781,373.949,463.024,373.572,465.214 C373.303,466.778,372.542,468.193,372.124,469.717 C371.806,470.877,371.815,472.105,371.507,473.277 C371.257,474.232,370.791,475.193,370.642,476.169 C370.355,478.056,370.058,479.942,369.755,481.828 C369.538,483.174,369.259,484.545,369.183,485.908 C369.16,486.308,369.203,486.717,369.128,487.112 C369.082,487.35,369.012,487.615,368.949,487.886 C368.891,488.139,368.881,488.418,368.909,488.692 C368.938,488.977,368.935,489.283,369.035,489.542 C369.051,489.582,369.062,489.624,369.068,489.668 C369.165,490.397,369.073,491.122,369.12,491.851 C369.138,492.119,369.26,494.107,369.097,494.353 C368.985,494.521,368.496,492.286,368.389,492.203 C367.868,491.798,367.282,491.488,366.762,491.082 C365.064,489.759,363.683,488.335,362.664,486.426 C362.296,485.737,361.839,484.954,361.99,484.063 C360.759,483.918,359.992,482.521,359.49,481.52 C358.171,478.885,356.929,474.732,358.253,471.92 z"/>
      <path id="am34" style="fill:#8cc63f;fill-opacity:1;fill-rule:nonzero;opacity:1;stroke:none;" d="M346.452,415.516 C347.334,415.712,348.23,415.733,349.112,415.933 C350.145,416.167,351.186,416.443,352.235,416.621 C352.655,416.693,353.091,416.658,353.512,416.736 C355.827,417.163,358.103,417.715,360.387,418.26 C361.573,418.543,362.749,418.855,363.936,419.142 C364.395,419.254,364.927,419.236,365.373,419.405 C365.545,419.47,365.711,419.544,365.895,419.597 C366.372,419.732,366.829,419.925,367.317,420.017 C368.147,420.174,368.903,420.515,369.711,420.752 C369.921,420.813,370.14,420.84,370.35,420.902 C370.755,421.022,371.158,421.186,371.55,421.342 C371.784,421.436,372.058,421.51,372.273,421.646 C372.485,421.781,372.647,421.958,372.83,422.125 C373.225,422.484,373.593,422.869,373.961,423.255 C374.207,423.514,374.499,423.753,374.788,423.961 C374.893,424.037,375.121,424.126,375.19,424.225 C375.25,424.311,375.227,424.401,375.225,424.498 C375.223,424.655,375.247,424.807,375.243,424.964 C375.234,425.419,375.234,425.883,375.243,426.337 C375.247,426.547,375.291,426.82,375.217,427.021 C375.206,427.052,375.168,427.164,375.123,427.158 C375.07,427.15,374.983,427.054,374.936,427.023 C374.777,426.917,374.609,426.824,374.448,426.72 C373.673,426.217,372.905,425.7,372.089,425.264 C370.979,424.669,369.789,424.174,368.515,424.114 C367.829,424.082,367.126,424.182,366.443,424.229 C366.328,424.237,366.181,424.241,366.143,424.293 C365.008,425.904,362.42,425.893,360.648,425.792 C356.931,425.581,353.311,424.942,349.911,423.368 C348.56,422.742,347.083,421.969,345.998,420.93 C345.481,420.435,345.099,419.843,344.821,419.189 C344.742,419.004,344.572,418.784,344.555,418.583 C344.486,417.795,345.052,417.018,345.455,416.395 C345.653,416.087,345.74,415.834,346.09,415.66 C346.252,415.579,346.478,415.638,346.654,415.647"/>
      <path id="am35" style="fill:#8cc63f;fill-opacity:1;fill-rule:nonzero;opacity:1;stroke:none;" d="M347.81,419.828 C347.632,420.212,347.137,420.065,346.758,420.143 C345.734,420.352,344.712,420.604,343.671,420.727 C341.793,420.948,339.95,421.461,338.064,421.609 C335.867,421.782,333.393,421.388,331.418,420.377 C329.825,419.561,328.54,418.118,328.916,416.22 C328.976,415.921,329.044,415.533,329.217,415.277 C329.466,414.908,330.082,414.459,330.538,414.445 C330.955,414.432,331.357,414.509,331.773,414.518 C333.012,414.544,334.247,414.567,335.483,414.621 C336.552,414.667,337.637,414.592,338.71,414.612 C339.879,414.634,341.038,414.749,342.202,414.827 C343.35,414.904,344.503,415.001,345.635,415.239 C345.978,415.312,346.525,415.281,346.811,415.493 C348.162,416.493,348.418,418.514,347.81,419.828 z"/>
    </g>
  </g>
  <g id="am36">
    <g id="am37">
      <path id="am38" style="fill:#e4cd3f;fill-opacity:1;fill-rule:nonzero;opacity:1;stroke:none;" d="M309.346,403.551 C310.224,401.005,309.959,397.983,310.059,395.323 C310.123,393.629,310.385,392.046,310.276,390.342 C310.235,389.707,310.125,389.104,309.933,388.576 C309.708,387.961,310.021,386.592,309.964,385.999 C309.958,385.933,309.371,385.985,309.364,385.918 C308.99,382.204,308.449,379.521,307.239,376.04 C307.133,375.736,306.949,375.075,306.862,374.769 C305.704,370.723,304.998,367.108,303.378,363.219 C301.005,357.523,299.361,351.393,296.931,345.702 C295.378,342.065,295.41,337.661,293.072,334.336 C292.149,333.022,291.343,330.818,289.842,330.032 C288.482,329.321,284.86,330.539,283.559,331.179 C279.876,332.99,275.808,335.873,272.796,338.651 C268.019,343.057,264.586,349.093,262.227,354.943 C259.724,361.147,256.677,367.178,255.145,373.714 C253.638,380.142,251.362,387.329,249.175,393.558 C245.912,402.85,244.563,410.505,243.249,420.29 C242.87,423.111,242.529,426.981,242.525,429.797 C244.391,428.407,245.324,426.439,246.904,424.874 C248.115,423.675,251.423,422.437,253.095,421.938 C256.727,420.854,260.644,421.198,264.36,420.847 C269.105,420.399,273.537,418.962,278.175,418.096 C282.866,417.221,286.809,417.058,291.267,415.292 C293.535,414.394,296.202,412.982,298.701,412.823 C299.871,412.749,300.636,412.318,301.729,412.02 C304.271,411.327,307.325,410.752,308.745,408.425 C309.36,407.418,309.439,405.997,309.468,404.861 C309.48,404.424,309.203,403.965,309.346,403.551 z"/>
      <path id="am39" style="fill:#e4cd3f;fill-opacity:1;fill-rule:nonzero;opacity:1;stroke:none;" d="M307.44,395.548 C307.431,395.641,307.421,395.734,307.412,395.828 C307.396,395.993,307.38,396.159,307.365,396.328 C307.312,396.901,307.27,397.477,307.238,398.055 C307.126,400.099,307.086,402.415,307.667,404.41 C307.83,404.971,307.835,405.765,308.229,406.248 C308.647,406.759,309.444,407.151,309.993,407.56 C312.095,409.124,314.505,410.285,317.251,410.787 C318.745,411.06,320.203,410.983,321.68,411.42 C321.952,411.5,322.219,411.58,322.48,411.663 C324.808,412.4,326.68,413.631,329.204,414.009 C334.82,414.852,340.466,414.045,346.102,415.192 C353.487,416.696,361.588,418.034,368.679,420.297 C370.511,420.882,370.382,420.748,372.137,421.487 C372.571,421.67,374.857,424.339,375.361,424.064 C375.361,424.064,375.326,422.511,375.361,420.559 C375.382,419.356,375.353,417.787,375.32,417.416 C374.812,411.77,374.424,405.526,373.447,399.934 C372.098,392.22,369.481,386.499,366.855,379.318 C366.579,378.564,366.39,377.933,366.22,377.567 C365.769,376.591,365.869,376.393,365.632,375.88 C365.348,375.267,365.134,374.431,364.887,373.61 C364.338,371.783,364.141,370.042,363.527,368.668 C362.259,365.832,358.559,363.562,357.313,360.632 C355.922,357.363,354.662,353.714,353.225,350.3 C352.036,347.474,350.675,344.464,348.863,341.851 C347.646,340.097,347.608,339.333,346.289,337.648 C344.927,335.908,342.803,330.676,339.946,328.951 C337.579,327.521,332.585,327.728,329.792,331.241 C328.765,332.532,327.392,334.823,326.484,336.128 C325.753,337.179,325.461,339.297,325,340.432 C324.053,342.767,323.748,345.088,322.945,347.463 C322.494,348.795,321.726,350.514,321.026,351.706 C319.565,354.195,318.615,355.732,317.814,357.413 C317.304,358.481,316.986,359.446,316.134,360.986 C315.151,362.762,313.865,365.401,313.069,367.879 C312.737,368.912,312.71,370.058,312.347,370.808 C311.337,372.894,311.034,375.006,310.709,377.207 C310.276,380.143,309.665,383.031,309.072,385.918 C309.051,386.024,309.029,386.129,309.007,386.234 C308.803,387.229,307.855,388.09,307.429,389.052 C306.609,390.902,307.651,393.494,307.44,395.548 z"/>
    </g>
  </g>
  <g id="am40">
    <g id="am41">
      <path id="am42" style="fill:#e45200;fill-opacity:1;fill-rule:nonzero;opacity:1;stroke:none;" d="M418.765,285.401 C418.91,285.4,420.194,281.676,420.266,279.368 C420.361,276.303,421.131,273.449,421.178,270.318 C421.2,268.912,420.968,267.553,420.961,266.17 C420.951,263.914,419.672,262.147,419.183,259.975 C418.439,256.667,417.397,253.94,416.529,250.787 C416.152,249.42,415.484,248.086,414.904,246.768 C413.899,244.484,410.319,241.688,410.065,238.61 C410.014,237.999,409.498,237.39,409.092,236.95 C408.315,236.106,407.458,235.376,406.58,234.647 C406.574,234.642,406.568,234.637,406.562,234.632 C405.117,233.439,403.366,232.617,401.636,231.931 C398.818,230.813,395.643,230.405,392.57,230.512 C392.38,230.518,392.188,230.524,391.992,230.526 C390.459,230.542,388.812,230.818,387.578,230.072 C383.754,227.762,381.126,225.377,377.712,222.902 C376.691,222.161,375.617,221.442,374.471,220.907 C373.717,220.554,372.893,220.438,372.228,219.905 C372.83,220.365,371.307,219.513,371.576,219.905 C371.272,219.869,372.421,221.94,372.328,221.465 C373.857,229.114,373.849,235.764,373.119,243.501 C372.78,247.092,371.848,251.212,371.071,255.517 C370.84,256.795,371.859,258.044,372.333,259.163 C375.696,267.111,381.26,275.179,385.631,282.551 C387.948,286.459,390.283,291.223,391.563,295.628 C391.828,296.539,391.35,297.732,391.132,298.662 C390.489,301.407,386.671,305.279,386.403,310.593 C386.394,310.762,386.155,313.864,386.147,314.034 C385.75,322.64,387.372,333.155,390.958,341.231 C393.312,346.53,395.889,351.734,397.57,356.991 C399.517,363.079,398.171,369.686,398.205,375.815 C398.235,381.136,399.685,385.985,400.513,391.21 C401.133,395.127,403.805,400.245,408.625,399.076 C413.164,397.975,414.656,390.793,416.387,387.322 C420.582,378.907,419.869,368.42,420.688,359.176 C421.186,353.561,422.47,349.655,422.806,344.027 C423.328,335.281,424.153,324.881,424.8,316.161 C425.09,312.253,426.073,308.634,426.404,304.719 C426.454,304.119,426.449,303.513,426.471,302.899 C426.524,301.393,426.359,299.723,425.983,298.095 C425.706,296.901,424.994,295.64,424.522,294.488 C423.89,292.942,422.776,291.436,422.061,290.124 C421.306,288.734,420.689,288.154,420.347,286.439 C420.301,286.207,420.329,286.365,420.32,286.328 C419.925,284.735,420.088,282.083,420.178,280.39 C420.178,280.39,418.621,285.403,418.765,285.401 z"/>
      <path id="am43" style="fill:#e45200;fill-opacity:1;fill-rule:nonzero;opacity:1;stroke:none;" d="M426.351,305.29 C426.466,305.306,426.011,308.487,425.961,309.416 C425.921,310.153,425.744,310.917,425.733,311.616 C425.724,312.146,425.678,312.669,425.603,313.218 C425.474,314.176,425.512,315.247,425.456,316.229 C425.366,317.815,425.36,319.4,425.313,320.962 C425.163,325.966,424.983,330.673,424.213,335.509 C423.833,337.896,423.284,340.857,422.942,343.248 C422.798,344.257,422.604,345.165,422.436,346.166 C422.066,348.372,421.684,350.806,421.357,353.162 C421.216,354.172,421.082,355.864,420.508,356.725 C419.905,357.627,419.892,357.623,418.843,357.517 C418.513,357.483,418.318,357.17,418.107,356.944 C417.54,356.34,417.076,355.664,416.622,354.975 C414.701,352.058,413.554,348.216,413.243,344.748 C412.352,334.809,413.504,325.11,417.221,315.82 C418.036,313.782,418.958,311.781,419.958,309.828 C420.636,308.504,421.261,307.197,422.246,306.072 C423.183,305.003,425.385,304.227,426.095,305.95 C426.244,306.312,426.093,306.868,426.064,307.252 C426.064,307.252,426.236,305.274,426.351,305.29 z"/>
      <path id="am44" style="fill:#e45200;fill-opacity:1;fill-rule:nonzero;opacity:1;stroke:none;" d="M419.983,359.958 C419.91,361.502,420.221,365.518,420.069,367.911 C419.613,375.1,419.261,382.741,415.915,389.122 C415.68,389.57,415.595,390.125,415.389,390.596 C414.552,392.5,413.569,394.594,412.076,396.067"/>
      <path id="am45" style="fill:#e45200;fill-opacity:1;fill-rule:nonzero;opacity:1;stroke:none;" d="M412.339,244.365 C412.339,244.365,408.339,239.834,409.476,237.483 C409.5,237.584,409.652,237.623,409.804,237.765 C409.986,237.938,410.186,238.224,410.394,238.462 C410.748,238.865,410.997,239.382,411.091,239.575 C411.353,240.115,412.053,241.269,412.347,241.8 C412.791,242.605,415.13,247.001,414.878,247.122 C414.626,247.242,412.339,244.365,412.339,244.365 z"/>
      <path id="am46" style="fill:#e45200;fill-opacity:1;fill-rule:nonzero;opacity:1;stroke:none;" d="M211.926,236.3 C211.272,236.844,210.463,237.294,209.643,237.539 C209.366,237.622,208.708,236.571,208.518,236.724 C208.366,236.846,208.076,238.222,208.043,238.402 C207.957,238.862,207.797,239.293,207.501,239.61 C207.121,240.017,207.237,240.188,206.929,240.647 C204.557,244.181,202.649,248.483,200.829,252.767 C199.878,255.004,198.79,257.188,198.078,259.393 C197.032,262.635,196.543,265.864,196.404,268.899 C196.255,272.18,195.811,278.306,196.151,281.542 C196.386,283.772,197.223,283.299,197.008,285.558 C196.954,286.133,196.863,286.932,196.756,287.483 C196.288,289.886,194.698,291.893,193.765,294.1 C193.112,295.645,192.625,297.321,192.11,298.953 C191.554,300.712,191.581,302.89,191.34,304.77 C190.711,309.666,192.932,313.882,192.988,318.649 C193.011,320.637,193.327,322.24,193.295,324.173 C193.208,329.514,192.332,334.827,192.986,339.863 C193.458,343.5,195.035,346.797,195.833,350.688 C195.881,350.921,197.01,355.67,197.055,355.905 C199.283,367.616,197.187,377.73,199.288,388.181 C199.891,391.178,202.284,397.876,205.913,398.461 C211.494,399.359,214.478,394.174,215.996,389.679 C216.033,389.567,215.153,391.713,215.246,391.641 C215.74,391.263,216.981,387.371,217.362,386.549 C218.714,383.638,218.997,380.386,218.997,377.25 C218.997,373.868,218.689,369.977,218.909,366.608 C219.149,362.921,219.767,359.265,220.782,355.847 C221.422,353.689,221.827,351.682,222.947,349.708 C223.578,348.596,224.079,347.196,224.684,345.926 C225.182,344.878,225.808,343.964,226.133,342.968 C226.77,341.017,227.872,339.456,228.653,337.62 C230.189,334.011,231.401,330.195,231.815,326.246 C232.23,322.288,232.561,318.824,232.726,315.058 C232.881,311.535,231.644,307.77,230.2,304.371 C229.209,302.04,227.169,298.848,227.136,296.491 C227.103,294.191,227.165,293.063,227.243,292.093 C227.44,289.655,227.655,289.341,230.183,285.136 C230.786,284.134,235.983,276.955,236.698,276.01 C239.452,272.368,242.095,267.647,243.695,263.346 C245.709,257.935,247.444,250.999,244.775,245.461 C244.288,244.451,244.58,243.243,244.525,242.169 C244.145,234.757,244.378,227.316,243.848,219.905 C239.326,222.92,234.684,228.185,229.792,230.255 C228.594,230.763,227.716,230.798,226.523,230.927 C224.484,231.146,222.198,231.484,220.169,231.948 C217.043,232.663,214.344,234.285,211.926,236.3 z"/>
    </g>
  </g>
  <g id="am47">
    <g id="am48">
      <path id="am49" style="fill:#5200df;fill-opacity:1;fill-rule:nonzero;opacity:1;stroke:none;" d="M341.779,166.355 C343.108,167.519,347.617,170.003,347.557,171.847 C347.491,173.874,345.931,175.497,344.365,176.599 C342.46,177.941,340.115,178.618,338.006,179.56 C335.341,180.751,332.858,182.256,330.014,183.014 C325.305,184.27,320.573,185.698,315.734,186.39 C311.096,187.054,306.362,186.937,301.746,187.644 C294.189,188.803,286.693,190.139,279.096,190.797 C275.79,191.083,272.447,190.408,269.06,190.528 C268.863,191.135,268.641,191.699,268.516,192.115 C267.159,196.605,261.835,199.999,259.133,203.701 C253.723,211.112,247.126,216.867,240.159,222.73 C237.95,224.588,235.447,226.49,233.18,228.352 C229.417,231.443,222.742,230.956,217.447,232.87 C213.942,234.138,212.328,237.065,208.648,237.85 C207.696,230.283,207.381,221.867,209.296,214.753 C210.262,211.163,212.052,208.186,214.082,205.229 C217.312,200.523,219.004,194.57,223.504,190.842 C226.574,188.297,229.749,185.809,232.99,184.528 C236.253,183.237,239.585,183.163,243.7,183.245 C246.381,183.299,251.898,178.762,254.718,176.552 C258.422,173.647,262.368,170.71,266.721,168.966 C272.219,166.763,275.311,166.022,280.551,163.28 C282.305,162.363,285.419,160.305,286.637,158.7 C290.496,153.617,292.045,147.192,292.987,140.787 C293.619,136.486,292.128,129.432,295.903,126.176 C300.544,122.175,309.217,124.268,314.817,124.126 C317.388,124.061,320.149,124.158,322.161,126.045 C323.785,127.569,324.29,131.695,324.516,133.793 C325.14,139.57,325.725,145.627,327.899,151.047 C328.93,153.617,330.487,156.728,332.059,158.544 C333.265,159.939,334.891,161.498,336.376,162.307 C337.795,163.08,339.508,164.615,340.891,165.262 C344.159,166.791,347.521,167.785,350.569,169.138 C353.76,170.556,356.631,172.347,359.85,174.575 C362.325,176.288,365.06,178.256,366.99,179.674 C368.136,180.516,369.881,181.362,371.154,182.062 C372.242,182.661,373.55,182.377,374.675,182.751 C374.846,182.808,376.45,182.955,376.644,182.985 C380.84,183.653,383.138,184.303,387.169,185.743 C392.086,187.499,395.043,191.435,397.926,195.526 C401.095,200.023,403.079,205.068,405.09,210.206 C405.528,211.323,406.272,212.262,406.679,213.351 C408.723,218.818,409.959,224.199,409.959,230.331 C409.959,231.052,409.844,231.124,409.849,233.282 C409.851,234.504,409.813,236.76,409.273,237.483 C409.087,237.732,407.042,235.121,406.738,234.872 C404.982,233.431,403.034,232.391,400.896,231.657 C398.43,230.81,395.93,230.447,393.317,230.496 C390.112,230.556,388.067,231.045,385.214,228.918 C382.484,226.882,379.847,224.383,376.955,222.613 C373.865,220.721,370.845,220.471,368.308,217.606 C367.717,216.938,367.086,216.287,366.505,215.594 C363.667,212.212,361.261,208.402,358.783,204.803 C355.663,200.271,352.709,195.018,348.297,191.571 C346.567,190.219,344.084,189.362,341.88,190.11 C340.389,190.617,338.886,191.979,337.162,191.623 C335.214,191.22,333.194,189.824,331.588,188.701 C327.64,185.938,323.677,182.493,320.821,178.599 C320.821,178.599,246.625,186.129,246.45,184.379"/>
      <path id="am50" style="fill:#5200df;fill-opacity:1;fill-rule:nonzero;opacity:1;stroke:none;" d="M267.815,191.514 C269.979,192.087,272.178,192.328,274.422,192.384 C275.305,192.406,276.856,192.299,277.465,193.122 C277.873,193.674,277.597,194.731,277.55,195.363 C277.418,197.162,277.2,198.976,277.158,200.779 C277.081,204.04,277.75,207.152,278.094,210.374 C278.437,213.587,278.499,216.824,278.854,220.036 C279.44,225.339,281.207,229.913,283.091,234.844 C284.567,238.708,285.704,242.654,287.613,246.344 C289.475,249.945,292.324,253.374,294.758,256.585 C296.239,258.54,296.687,261.47,297.88,263.629 C298.407,264.583,299.331,265.039,300.032,265.813 C301.487,267.419,302.732,268.949,304.361,270.412 C306.53,272.36,308.588,274.399,311.523,272.84 C317.561,269.633,318.445,261.886,321.833,256.655 C324.949,251.843,329.908,247.793,332.285,242.532 C337.92,230.063,339.986,215.836,340.563,202.239 C340.655,200.078,340.33,197.892,339.943,195.771 C339.784,194.894,339.23,194.098,339.29,193.193 C339.372,191.947,340.961,191.544,342.008,191.36 C344.464,190.929,350.311,191.363,349.192,187.302 C349.055,186.806,348.912,186.303,348.643,185.86 C345.11,180.04,337.339,178.386,331.176,177.424 C327.227,176.808,323.048,175.998,319.04,176.059 C307.906,176.231,297.113,180.27,286.532,183.193 C281.86,184.484,276.854,185.36,272.376,187.201 C270.188,188.1,268.794,189.301,267.815,191.514 z"/>
    </g>
  </g>
  <g id="am51">
    <path id="am52" style="fill:#15a491;fill-opacity:1;fill-rule:nonzero;opacity:1;stroke:none;" d="M289.016,329.693 C289.877,329.951,290.694,330.455,291.454,331.48 C293.963,334.864,294.873,340.192,296.34,344.119 C299.147,351.632,301.858,358.982,304.581,366.549 C305.246,368.397,305.603,370.329,306.118,372.208 C307.046,375.587,308.311,379.036,308.681,382.565 C308.753,383.254,308.861,385.847,309.621,386.124 C310.16,386.32,310.92,384.233,311.051,383.833 C311.875,381.326,311.701,377.936,312.34,375.355 C312.63,374.179,312.525,372.796,312.883,371.42 C313.597,368.682,314.871,365.884,316.134,363.359 C317.198,361.232,317.868,359.036,319.093,356.943 C320.606,354.354,322.017,351.66,322.945,348.86 C325.605,340.833,325.586,332.125,334.346,328.444 C335.76,327.85,338.568,328.207,339.946,329.01 C340.104,329.103,340.217,329.126,340.294,329.1 C340.636,328.981,340.912,328.702,341.169,328.346 C341.491,327.898,341.857,327.475,342.333,327.139 C344.533,325.584,346.992,323.701,349.609,324.155 C351.1,324.413,352.62,324.742,354.023,324.73 C354.988,324.721,355.799,324.629,356.357,324.138 C357.194,323.401,357.488,322.348,357.548,321.167 C357.624,319.682,357.974,318.42,357.814,316.918 C357.695,315.806,357.339,314.783,357.43,313.656 C357.475,313.092,357.525,312.528,357.579,311.964 C357.978,307.799,357.348,303.85,356.615,299.842 C356.244,297.815,355.943,295.735,355.899,293.694 C355.821,290.104,355.447,287.262,356.194,283.528 C356.592,281.543,357.36,279.464,358.237,277.585 C359.227,275.462,360.65,272.952,361.748,270.861 C363.13,268.227,364.852,265.739,366.537,263.289 C367.21,262.31,370.804,257.089,370.981,255.891 C371.065,255.32,371.829,253.465,371.668,252.94 C371.423,252.139,371.834,251.566,371.944,250.733 C372.191,248.861,372.919,245.584,373.119,243.501 C373.8,236.387,373.579,235.385,373.319,228.213 C373.241,226.09,372.917,223.66,372.148,221.329 C371.932,220.673,371.656,220.043,371.099,219.609 C370.581,219.205,369.977,218.819,369.439,218.476 C367.119,216.996,365.532,214.159,363.93,211.864 C361.324,208.13,358.929,204.983,356.389,201.217 C354.254,198.055,352.1,194.165,348.811,191.986 C348.148,191.546,347.453,190.841,346.93,190.695 C345.983,190.431,345.277,190.992,344.048,191.141 C342.757,191.298,341.311,191.276,339.732,192.266 C338.478,193.053,339.757,194.645,339.943,195.771 C340.746,200.624,340.446,204.638,340.142,209.065 C340.054,210.352,339.858,211.509,339.786,212.82 C339.631,215.667,339.036,218.706,338.564,221.481 C337.369,228.51,335.412,235.642,332.436,242.195 C330.238,247.034,323.61,252.853,321.209,257.691 C318.386,263.382,316.76,270.879,310.577,273.232 C309.906,273.487,309.171,273.561,308.172,273.159 C307.647,272.947,306.699,272.405,306.391,272.152 C305.302,271.255,303.075,269.307,302.29,268.34 C300.736,266.426,300.996,267.561,299.701,265.481 C299.546,265.232,298.392,264.347,298.211,264.114 C296.699,262.171,295.775,258.375,294.569,256.336 C293.488,254.51,292.191,254.021,291.332,252.1 C290.798,250.908,288.727,248.499,288.124,247.288 C283.263,237.522,279.908,227.547,278.556,216.527 C278.24,213.953,278.19,211.515,277.904,208.804 C277.628,206.183,277.109,203.289,277.158,200.779 C277.189,199.182,278.189,194.432,277.465,193.122 C276.497,191.371,272.476,192.302,270.648,192.084 C270.603,192.261,268.71,191.531,268.647,191.718 C267.546,194.953,266.676,195.75,264.403,198.128 C262.424,200.198,260.65,202.106,258.743,204.231 C257.247,205.899,256.542,207.389,254.981,209.003 C254.21,209.799,251.882,212.025,251.193,212.851 C250.246,213.984,246.938,216.656,245.043,218.553 C243.894,219.703,244.117,220.166,243.924,221.044 C243.256,224.073,244.297,232.102,244.306,235.219 C244.318,238.953,243.435,240.974,244.519,244.527 C245.907,249.077,246.649,248.894,246.058,253.783 C245.885,255.212,249.557,260.77,249.939,262.079 C250.113,262.678,251.106,263.938,251.323,264.515 C252.046,266.442,252.604,266.676,253.853,268.728 C255.172,270.896,256.11,272.289,257.365,274.453 C258.102,275.724,258.671,276.868,259.26,278.175 C259.769,279.302,260.641,280.213,260.923,281.442 C261.158,282.46,260.983,283.188,261.191,284.207 C261.513,285.781,260.962,288.377,261.128,289.962 C261.723,295.64,260.694,300.543,260.102,306.237 C259.633,310.737,259.146,314.241,259.206,318.785 C259.215,319.531,258.99,321.369,259.239,322.675 C259.852,325.894,259.393,329.404,258.979,332.777 C259.523,332.407,259.811,331.772,260.439,331.427 C263.274,329.874,267.173,329.571,270.326,329.975 C272.298,330.227,274.125,331.129,276.16,331.085 C280.484,330.993,284.872,328.45,289.016,329.693 z"/>
  </g>
</svg>
