<?xml version="1.0" encoding="utf-8"?>
<svg viewBox="0 0 600 800" xmlns="http://www.w3.org/2000/svg" xmlns:xlink="http://www.w3.org/1999/xlink">
  <!--Generated by AMDN-->
  <g id="am1">
    <g id="am2">
      <path id="am3" style="fill:#aaaaaa;fill-opacity:1;fill-rule:nonzero;opacity:1;stroke:none;" d="M291.182,84.5025 C288.018,88.1734,284.732,92.3179,283.193,96.9893 C282.28,99.7622,282.397,102.905,282.422,105.789 C282.478,112.399,283.392,118.577,284.847,125.013 C285.89,129.628,285.66,133.954,287.665,138.411 C290.083,143.785,294.25,150.685,299.956,153.037 C302.306,154.006,304.98,153.644,307.452,153.891 C310.208,154.166,312.85,154.219,315.507,153.291 C321.403,151.233,325.142,146.231,327.625,140.88 C328.352,139.311,329.464,137.772,330.013,136.133 C332.532,128.618,333.145,120.483,334.204,112.666 C335.063,106.325,336.505,99.2713,333.553,93.1916 C330.664,87.2418,325.437,81.4327,319.097,79.0763 C316.625,78.1578,314.371,78.1683,311.818,77.8151 C308.255,77.3222,304.592,77.1073,301.114,78.2165 C297.094,79.4991,293.894,81.3565,291.182,84.5025 z"/>
      <path id="am4" style="fill:#aaaaaa;fill-opacity:1;fill-rule:nonzero;opacity:1;stroke:none;" d="M248.475,183.228 C253.053,176.597,261.548,171.328,268.87,168.262 C275.142,165.636,281.844,163.788,286.657,158.684 C290.092,155.04,289.416,149.525,288.574,145.054 C288.233,143.239,288.243,141.404,288.136,139.572 C288.115,139.197,287.928,138.015,288.463,137.922 C288.944,137.838,289.513,138.576,289.779,138.893 C290.732,140.028,291.332,141.49,292.203,142.7 C295.5,147.287,302.386,149.389,304.837,154.595 C306.482,158.086,304.852,161.077,302.874,163.932 C300.812,166.907,298.884,169.289,295.843,171.323 C287.232,177.083,276.613,178.493,266.66,180.308 C260.49,181.433,254.783,182.929,248.475,183.228 z"/>
      <path id="am5" style="fill:#aaaaaa;fill-opacity:1;fill-rule:nonzero;opacity:1;stroke:none;" d="M270.914,179.62 C271.151,179.536,271.385,179.44,271.615,179.33 C275.585,177.424,279.534,175.451,283.44,173.426 C289.206,170.438,295.903,167.912,300.429,163.064 C301.552,161.86,303.987,159.889,304.285,158.24 C304.504,157.028,302.279,155.386,303.655,154.436 C304.951,153.54,307.04,153.944,308.501,154.089 C309.95,154.233,311.664,154.135,313.112,153.982 C319.123,153.35,324.616,149.517,325.883,144.12 C326.263,142.504,326.784,140.893,327.458,139.253 C328.246,137.337,329.098,135.051,330.427,133.426 C329.547,138.307,329.118,143.307,329.136,148.265 C329.143,150.034,328.945,152.094,329.488,153.803 C330.991,158.529,334.541,161.347,338.658,163.669 C339.702,164.258,340.555,165.191,341.685,165.645 C345.649,167.241,349.645,168.501,353.462,170.478 C357.079,172.352,360.484,175.098,363.88,177.361 C365.548,178.472,367.088,179.938,368.23,181.582 C368.778,182.371,369.361,183.22,368.381,183.957 C367.334,184.743,365.886,184.274,364.678,184.433 C362.214,184.756,360.097,185.536,357.561,185.656 C352.825,185.88,348.085,186.545,343.338,186.606 C339.189,186.66,335.049,186.091,330.909,186.165 C328.305,186.212,325.552,186.293,322.967,186.598 C322.866,186.61,322.694,186.026,322.587,186.032 C321.114,186.122,319.618,186.538,318.158,186.557 C315.179,186.594,312.191,186.357,309.209,186.489 C305.839,186.639,302.52,187.108,299.13,186.987 C291.949,186.729,284.776,185.361,277.588,184.95 C274.01,184.745,270.472,184.243,266.888,184.077 C266.772,184.072,266.586,183.999,266.357,184.013 C261.943,184.284,257.544,184.396,253.131,184.673 C252.57,184.708,250.313,184.761,249.665,184.01 C248.343,182.477,252.646,180.586,254.894,180.132 C258.55,179.394,262.302,179.004,266.036,179.096 C267.681,179.137,269.317,180.185,270.914,179.62 z"/>
      <path id="am6" style="fill:#aaaaaa;fill-opacity:1;fill-rule:nonzero;opacity:1;stroke:none;" d="M326.294,142.704 C323.438,143.165,323.173,146.213,321.687,148.297 C320.645,149.758,318.351,150.785,316.671,151.273 C313.478,152.201,309.689,152.259,306.391,152.809 C305.331,152.985,303.17,153.492,303.906,155.112 C304.687,156.83,308.976,156.476,310.515,156.633 C312.227,156.809,313.871,157.205,315.614,157.02 C319.936,156.562,322.796,153.86,324.858,150.292 C326.412,147.603,328.515,145.308,326.294,142.704 z"/>
      <path id="am7" style="fill:#aaaaaa;fill-opacity:1;fill-rule:nonzero;opacity:1;stroke:none;" d="M292.418,609.684 C293.475,605.104,294.986,600.641,295.929,596.037 C297.121,590.216,297.128,583.507,296.639,577.603 C295.595,565.031,287.364,553.018,288.546,540.378 C289.344,531.84,290.986,522.066,293.958,514.004 C295.595,509.563,299.862,502.649,298.846,497.78 C298.074,494.08,292.171,489.648,289.03,488.084 C285.42,486.288,282.045,483.914,278.131,482.762 C272.901,481.222,267.554,481.428,262.186,480.863 C257.793,480.401,251.617,477.68,247.614,480.036 C250.555,488.044,248.014,497.479,248.518,505.873 C248.805,510.643,250.567,515.121,251.103,519.882 C251.65,524.744,250.845,529.586,250.747,534.447 C250.698,536.871,251.199,539.321,251.081,541.717 C250.485,553.741,247.87,565.75,247.708,577.764 C247.44,597.634,254.604,616.099,260.808,634.671 C262.281,639.081,263.692,643.609,264.622,648.167 C265.517,652.547,266.032,657.027,267.122,661.339 C268.784,667.912,270.017,674.748,270.664,681.588 C271.378,689.125,270.313,696.982,268.137,704.195 C267.292,706.999,265.503,708.932,264.001,711.346 C261.929,714.677,259.897,717.951,257.939,721.354 C256.254,724.283,254.192,726.503,255.17,730.16 C256.336,734.522,262.553,731.423,265.256,731.647 C272.827,732.272,280.44,732.718,288.076,732.189 C291.058,731.983,293.707,732.65,296.612,731.163 C301.504,728.66,301.934,724.653,301.713,719.635 C301.578,716.556,301.553,713.246,300.986,710.219 C300.384,707.004,299.37,704.316,299.372,700.99 C299.373,696.845,300.925,692.732,300.587,688.51 C300.458,686.894,299.223,685.301,298.623,683.833 C297.367,680.766,296.43,677.419,295.514,674.233 C293.453,667.058,292.923,658.684,292.15,651.252 C290.718,637.471,289.306,623.171,292.418,609.684 z"/>
      <path id="am8" style="fill:#aaaaaa;fill-opacity:1;fill-rule:nonzero;opacity:1;stroke:none;" d="M334.412,703.096 C335.252,704.111,336.112,705.332,337.366,705.873 C342.618,708.14,347.478,703.336,348.364,698.372 C349.251,693.401,347.605,688.171,348.065,683.149 C348.986,673.08,351.668,662.998,353.714,653.109 C355.358,645.161,356.634,637.272,358.953,629.468 C359.382,628.022,359.639,626.632,360.16,625.174 C363.74,615.152,367.119,605.071,369.01,594.581 C372.412,575.713,368.331,555.478,366.834,536.63 C366.218,528.874,367.425,520.998,367.914,513.318 C367.975,512.357,367.962,511.2,368.084,510.033 C368.696,504.18,369.358,498.76,369.177,492.862 C369.144,491.779,369.341,487.594,367.959,487.258 C366.628,486.933,365.651,490.605,365.366,491.458 C363.818,496.091,363.012,501.453,362.946,506.213 C359.246,509.807,353.908,512.181,349.212,514.091 C346.395,515.237,342.797,516.587,339.712,516.323 C333.958,515.83,328.993,512.149,323.119,511.75 C325.208,519.965,326.707,528.284,327.992,536.665 C328.65,540.964,329.931,545.174,329.437,549.545 C328.909,554.221,326.256,559.332,324.868,563.855 C322.296,572.239,319.934,581.869,320.09,590.694 C320.26,600.329,324.593,608.089,326.345,617.363 C327.472,623.331,326.59,629.813,326.368,635.845 C326.062,644.155,326.862,652.255,324.894,660.447 C323.774,665.107,324.678,669.962,323.648,674.546 C322.672,678.891,319.421,682.485,318.57,686.822 C317.425,692.653,322.871,697.793,327.335,700.584 C329.629,702.018,331.791,704.93,334.769,704.666 C339.396,704.257,341.987,698.098,343.551,694.511 C346.011,688.866,345.581,683.001,345.977,676.989 C346.405,670.483,347.851,664.649,349.365,658.348"/>
      <path id="am9" style="fill:#aaaaaa;fill-opacity:1;fill-rule:nonzero;opacity:1;stroke:none;" d="M198.886,372.07 C199.289,372.656,200.443,372.741,201.07,372.982 C202.976,373.715,205.003,374.362,206.84,375.26 C211.897,377.732,215.429,381.489,219.761,384.897 C219.508,380.955,218.851,377.052,218.739,373.092 C218.566,366.953,219.449,360.042,221.288,354.171 C224.174,344.959,230.55,337.014,231.716,327.212 C232.424,321.254,233.489,314.82,231.997,308.888 C230.695,303.71,226.562,299.566,227.123,294.174 C227.202,293.417,227.201,292.57,227.263,292.077 C227.474,290.388,228.17,288.777,228.961,287.29 C232.335,280.943,237.508,275.611,241.039,269.347 C243.06,265.761,244.452,261.402,245.546,257.45 C245.808,256.506,246.051,255.485,246.255,254.42 C249.527,262.442,254.491,269.411,258.934,277.046 C261.135,280.828,260.886,285.375,266.71,284.759 C268.817,284.537,271.973,283.95,273.265,282.061 C275.189,279.246,274.339,273.956,275.26,270.717 C276.938,264.816,281.063,258.55,285.52,254.405 C289.52,250.685,293.983,246.353,299.307,244.612 C302.818,243.464,307.733,243.75,310.759,241.705 C312.034,244.174,313.706,247.041,316.567,248.759 C320.062,250.858,325.765,251.088,329.739,251.608 C341.802,253.184,353.904,253.644,364.357,246.297 C368.436,243.429,372.682,239.979,376.07,236.323 C377.859,234.394,377.477,231.747,380.394,230.934 C382.67,230.299,384.706,231.94,386.483,233.119 C391.411,236.39,393.829,242.355,398.52,245.767 C401.765,248.127,407.327,245.346,408.532,241.93 C409.12,240.265,409.313,238.438,409.56,236.694 C410.527,229.855,409.369,221.524,407.29,214.981 C406.29,211.832,404.691,209.234,403.296,206.276 C400.255,199.828,397.189,191.919,391.028,187.777 C385.725,184.213,377.618,182.732,371.372,182.507 C360.673,182.122,350.23,182.857,339.53,183.501 C333.802,183.846,328.018,184.427,322.286,184.897 C318.959,185.17,316.042,185.922,313.063,184.148 C310.523,182.634,307.773,181.709,305.28,180.79 C293.513,176.448,280.276,176.664,269.973,182.948 C269.94,182.937,269.908,182.925,269.876,182.912 C263.31,180.419,257.188,179.644,250.364,180.915 C250.523,180.762,250.403,180.883,250.688,180.604 C249.66,181.74,248.69,183.159,247.136,183.613 C246.268,183.866,245.145,183.249,244.268,183.128 C242.864,182.934,241.095,183.048,239.677,183.133 C235.746,183.368,232.644,184.376,229.239,186.297 C223.752,189.394,219.83,195.237,216.681,200.503 C213.84,205.251,210.408,210.001,209.122,215.498 C208.072,219.988,208.254,225.436,208.429,230.015 C208.488,231.569,208.546,233.073,208.651,234.563 C208.936,238.6,206.435,241.16,204.591,244.466 C202.978,247.359,201.806,250.523,200.503,253.565 C199.143,256.741,197.615,259.807,197.116,263.296 C196.296,269.033,195.156,279.463,196.584,283.158 C196.74,283.562,196.836,283.911,196.898,284.223 C197.639,287.952,195.028,291.063,193.634,294.436 C192.402,297.416,191.436,301.011,191.255,304.237 C191.001,308.738,192.606,312.748,192.89,317.147 C193.039,319.452,193.397,321.848,193.315,324.156 C193.152,328.731,192.309,333.272,192.748,337.872 C193.308,343.742,195.73,349.087,196.874,354.809 C197.666,358.765,197.787,362.808,198.199,366.805 C198.27,367.486,198.231,368.333,198.246,369.182 C198.307,372.511,198.238,375.895,198.155,379.241 C198.095,381.674,197.696,384.109,197.658,386.545 C197.605,389.971,197.841,393.385,197.902,396.81 C197.964,400.318,197.32,403.901,197.931,407.379 C198.47,410.448,200.049,413.444,201.251,416.336 C202.02,418.186,202.549,420.092,203.715,421.77 C204.949,423.543,206.559,425.001,207.982,426.615 C208.953,427.717,209.984,428.411,211.269,429.074 C211.701,429.297,212.139,429.767,212.648,429.779 C215.14,429.833,214.989,428.302,214.419,426.411 C213.628,423.786,211.871,421.357,210.406,419.06 C209.907,418.278,209.608,417.664,209.3,416.784 C209.238,416.607,208.973,416.079,209.179,415.924 C209.427,415.737,209.83,416.669,209.914,416.822 C210.518,417.923,210.922,418.993,211.796,419.944 C213.204,421.477,214.65,423.028,216.032,424.596 C217.28,426.014,218.908,427.728,220.817,428.216 C222.927,428.754,224.995,428.534,227.115,428.354 C227.835,428.292,229.157,428.209,229.503,427.433 C230.389,425.448,228.411,423.839,227.118,422.746 C226.851,422.52,225.701,421.416,226.025,421.057 C226.952,420.025,228.593,421.357,229.51,421.618 C230.314,421.846,231.337,421.548,232.153,421.455 C233.49,421.303,234.936,421.486,235.88,420.238 C236.71,419.142,236.583,416.428,235.656,415.411 C235.305,415.025,233.943,414.831,233.974,414.227 C234.007,413.564,234.978,413.071,235.394,412.658 C236.245,411.814,237.575,409.41,236.79,408.264 C236.056,407.192,233.73,406.928,232.598,407.298 C231.991,407.497,231.449,407.96,230.807,408.023 C229.329,408.168,227.635,406.594,226.889,405.499 C225.751,403.83,225.856,401.931,225.751,399.998 C225.614,397.488,225.43,394.981,224.96,392.508 C224.035,387.641,220.957,383.915,218.327,379.865"/>
      <path id="am10" style="fill:#aaaaaa;fill-opacity:1;fill-rule:nonzero;opacity:1;stroke:none;" d="M270.846,178.039 C270.033,178.275,266.909,179.411,268.623,180.733 C269.732,181.588,272.833,181.044,273.308,179.618 C274.163,177.053,272.803,177.471,270.846,178.039 z"/>
      <path id="am11" style="fill:#aaaaaa;fill-opacity:1;fill-rule:nonzero;opacity:1;stroke:none;" d="M365.317,178.702 C367.707,179.94,369.701,181.533,372.253,182.505 C372.649,182.656,374.466,183.09,374.122,183.783 C373.65,184.735,371.986,184.638,371.147,184.526 C368.277,184.139,366.591,180.934,365.317,178.702 z"/>
      <path id="am12" style="fill:#aaaaaa;fill-opacity:1;fill-rule:nonzero;opacity:1;stroke:none;" d="M256.601,175.087 C256.031,175.557,255.592,176.157,255.017,176.615 C252.616,178.531,250.013,180.228,247.469,181.949 C247.09,182.205,246.696,182.419,246.294,182.611 C246.143,182.683,245.903,182.76,245.616,182.843 C244.5,183.168,241.253,183.324,242.775,184.69 C242.819,184.73,242.87,184.77,242.928,184.811 C243.735,185.381,245.553,185.038,246.315,184.978 C248.784,184.783,250.061,183.247,251.517,181.416 C252.796,179.809,254.041,178.171,255.324,176.577"/>
      <path id="am13" style="fill:#aaaaaa;fill-opacity:1;fill-rule:nonzero;opacity:1;stroke:none;" d="M261.091,328.626 C261.847,329.847,262.276,340.082,264.789,345.425 C267.409,350.996,273.94,355.302,278.376,359.324 C282.557,363.115,286.022,367.799,290.68,371.064 C304.667,380.87,323.727,370.362,334.255,360.192 C336.066,358.443,338.412,357.238,340.019,355.256 C343.334,351.167,346.277,346.701,349.363,342.401 C352.698,337.754,356.465,330.918,357.256,325.167 C358.257,317.885,357.665,309.405,356.902,302.128 C356.277,296.169,354.787,288.63,356.406,282.74 C359.158,272.732,366.378,264.576,371.001,255.874 C376.2,268.756,385.501,279.883,390.721,292.991 C390.795,293.175,390.874,293.349,390.959,293.512 C393.482,298.345,387.883,303.175,386.757,308.582 C385.404,315.081,386.646,322.249,387.397,328.767 C388.708,340.139,395.99,349.325,398.496,360.282 C399.146,363.129,398.454,366.77,398.374,369.689 C398.262,373.802,398.264,377.901,397.833,382.011 C397.485,385.328,393.687,387.564,392.89,390.991 C392.211,393.909,392.848,396.66,392.556,399.575 C392.322,401.91,390.969,404.759,389.698,406.716 C389.075,407.674,387.756,408.806,386.525,408.603 C385.591,408.449,384.87,407.948,383.871,407.91 C382.803,407.869,381.246,408.142,381.193,409.511 C381.087,412.281,384.325,412.048,385.11,414.051 C385.381,414.743,383.163,414.801,382.791,415.178 C382.142,415.835,382.28,418.398,382.753,419.115 C383.912,420.872,387.152,421.284,389.222,421.201 C389.88,421.174,391.333,420.781,391.912,421.178 C392.274,421.426,390.805,422.658,390.6,422.815 C390.222,423.107,389.659,423.162,389.328,423.489 C388.19,424.613,388.444,426.538,389.717,427.37 C390.651,427.98,391.695,427.611,392.719,427.765 C394.007,427.958,395.184,428.29,396.504,428.053 C399.587,427.501,403.382,423.695,404.821,421.029 C404.424,423.291,403.141,425.265,402.791,427.505 C402.664,428.313,403.105,429.544,403.983,429.77 C405.396,430.134,406.935,428.964,408.086,428.253 C410.697,426.638,412.698,424.629,414.725,422.331 C415.583,421.359,416.68,420.224,417.032,418.942 C419.403,410.318,420.38,401.17,420.382,392.208 C420.383,389.939,419.98,387.711,419.912,385.459 C419.819,382.346,420.135,379.21,420.112,376.101 C420.086,372.63,420.022,369.346,420.138,365.855 C420.163,365.094,420.146,364.329,420.227,363.632 C420.706,359.536,421.023,355.469,421.616,351.382 C422.69,343.983,424.375,336.6,424.962,329.13 C425.369,323.954,425.302,318.707,425.603,313.518 C425.863,309.05,426.851,304.399,426.354,299.922 C425.962,296.39,424.019,293.57,422.35,290.563 C421.708,289.407,420.69,288.216,420.439,286.894 C418.959,279.077,422.888,270.873,420.33,263.082 C419.93,261.864,419.416,260.66,419.052,259.5 C418.37,257.325,418.035,255.073,417.291,252.878 C415.908,248.797,414.324,244.988,412.072,241.294 C411.35,240.11,410.624,238.316,409.496,237.466 C408.94,237.048,408.182,237.952,407.703,238.184 C406.259,238.883,405.014,239.131,403.446,238.665 C394.931,236.139,385.801,222.422,376.502,230.666 C374.643,232.313,373.343,234.78,371.826,236.737 C370.612,238.303,368.854,239.247,368.011,240.633 C362.85,239.527,358.413,242.598,352.865,240.749 C350.498,239.961,348.914,238.149,346.836,236.887 C342.559,234.29,338.111,231.641,333.545,229.588 C326.171,226.272,318.812,227.494,311.087,228.07 C306.657,228.4,302.449,228.179,298.34,230.05 C293.641,232.189,289.499,235.644,285.658,239.033 C275.427,248.06,265.418,260.565,262.326,274.167 C260.351,282.857,261.694,292.486,260.765,301.391 C260.207,306.743,258.916,311.969,259.188,317.379 C259.279,319.183,259.265,327.418,259.172,329.192 C258.65,339.177,255.995,342.484,255.535,352.95 C255.225,360.002,256.232,366.79,255.073,373.821 C253.384,384.064,248.455,393.76,246.036,403.909 C241.731,421.978,241.727,440.157,244.287,458.497 C245.818,469.466,246.769,482.798,252.711,492.437 C254.798,495.823,256.697,499.644,260.827,500.876 C264.063,501.842,267.742,498.217,271.351,498.223 C275.65,498.229,279.748,501.481,283.553,503.072 C285.637,503.943,287.969,503.904,290.176,504.166 C292.25,504.413,296.064,504.816,297.67,503.104 C300.042,500.576,299.281,494.838,298.988,491.721 C298.242,483.767,299.177,475.25,299.871,467.302 C300.345,461.879,302.3,456.819,303.295,451.506 C304.909,442.895,305.87,434.021,306.913,425.327 C308.178,414.781,307.423,404.259,307.706,393.688 C307.913,385.919,308.772,378.24,308.772,370.439"/>
      <path id="am14" style="fill:#aaaaaa;fill-opacity:1;fill-rule:nonzero;opacity:1;stroke:none;" d="M318.945,685.489 C317.658,688.981,316.698,693.022,317.335,696.778 C317.778,699.391,319.119,701.939,319.29,704.561 C319.536,708.342,318.143,712.372,317.539,716.085 C316.974,719.556,314.914,724.819,316.838,728.089 C318.592,731.067,323.119,731.567,326.204,732.023 C329.374,732.491,332.587,733.53,335.817,733.474 C336.811,733.457,337.599,732.837,338.57,732.799 C341.417,732.688,344.31,732.855,347.176,732.745 C348.336,732.701,349.384,732.114,350.556,732.103 C352.295,732.088,354.183,731.581,355.881,731.708 C357.814,731.853,360.707,732.894,362.336,731.286 C363.158,730.475,362.708,728.694,362.808,727.628 C363.189,723.574,359.84,721.525,357.536,718.867 C356.263,717.399,355.262,715.571,354.407,713.835 C353.346,711.68,352.476,709.375,351.367,707.261 C350.782,706.145,349.684,705.272,349.316,704.056 C348.43,701.123,349.126,697.417,347.372,694.806 C342.64,687.76,333.331,685.677,325.401,685.756 C323.049,685.779,319.787,683.205,318.945,685.489 z"/>
    </g>
    <path id="am15" style="fill:#aaaaaa;fill-opacity:1;fill-rule:nonzero;opacity:1;stroke:none;" d="M356.772,319.199 C358.381,324.526,358.685,330.322,359.37,335.818 C360.4,344.08,361.824,352.258,362.686,360.542 C362.971,363.281,362.557,365.996,363.005,368.735 C365.116,381.632,371.97,393.592,373.697,406.662 C375.327,419.002,375.691,431.478,375.14,443.845 C374.936,448.414,375.46,453.179,374.816,457.7 C373.56,466.513,370.382,475.128,369.395,483.944 C368.646,490.643,367.976,496.962,366.847,503.581 C366.489,505.678,366.74,507.82,366.103,509.879 C365.465,511.944,363.784,513.419,362.935,515.361 C360.891,520.036,359.565,523.387,356.113,527.322 C352.82,531.078,347.668,536.696,342.185,536.574 C338.579,536.494,334.43,529.644,332.214,527.193 C328.133,522.68,326.083,517.815,323.418,512.427 C321.41,508.367,319.278,504.305,318.749,499.72 C318.077,493.895,319.555,487.898,318.727,482.133 C317.784,475.566,318.532,468.917,317.813,462.362 C317.166,456.47,314.69,450.759,314.015,444.836 C313.256,438.175,313.266,431.056,311.914,424.507 C311.431,422.17,310.737,413.974,311.592,408.79 C311.636,408.524,309.118,407.588,308.154,405.337 C307.156,403.008,306.812,400.083,305.728,397.396 C302.754,390.03,302.989,380.296,303.277,376.373 C303.646,371.341,303.775,365.742,306.328,361.216 C309.031,356.424,313.75,354.014,317.892,350.651 C320.231,348.752,322.251,346.16,324.958,344.747 C327.668,343.333,330.837,342.976,333.565,341.624 C339.312,338.775,342.583,332.752,345.062,327.042 C346.096,324.661,346.857,320.132,349.178,318.599 C351.447,317.101,354.693,318.157,356.772,319.199 z"/>
  </g>
  <g id="am16">
    <g id="am17">
      <path id="am18" style="fill:#ff1c24;fill-opacity:1;fill-rule:nonzero;opacity:1;stroke:none;" d="M298.75,501.544 C299.201,500.263,299.484,498.94,299.39,497.543 C299.345,496.876,299.355,496.171,299.227,495.489 C299.22,495.451,299.213,495.413,299.206,495.374 C298.44,491.259,298.518,486.861,298.686,482.677 C298.744,481.222,298.565,479.759,298.697,478.304 C298.896,476.108,299.145,473.918,299.416,471.736 C299.854,468.205,300.032,464.546,300.683,461.049 C300.926,459.742,301.443,458.558,301.792,457.29 C302.459,454.871,302.856,452.323,303.332,449.854 C304.064,446.064,304.338,442.158,305.085,438.374 C305.734,435.084,305.819,431.702,306.256,428.388 C306.751,424.638,307.174,420.825,307.407,417.047 C307.509,415.39,307.554,413.728,307.467,412.07 C307.443,411.627,307.558,410.64,307.121,410.374 C306.482,409.984,306.017,411.063,305.475,411.201 C305.101,411.297,304.713,411.48,304.417,411.522 C302.32,411.822,300.516,413.491,298.393,413.187 C297.494,413.058,296.096,413.693,295.463,413.897 C294.255,414.287,293.159,415.03,291.946,415.379 C289.716,416.021,287.446,416.241,285.19,416.726 C278.504,418.165,271.626,420.024,264.856,420.963 C263.632,421.132,262.536,420.782,261.353,420.821 C257.383,420.95,251.531,421.405,248.229,423.879 C246.538,425.147,244.368,427.653,243.16,429.386 C242.524,430.3,242.512,431.954,242.544,432.89 C242.687,437.019,242.665,441.204,243.017,445.328 C243.906,455.739,245.362,466.272,247.007,476.594 C247.534,479.9,248.847,482.971,249.16,486.337 C249.54,490.417,249.547,494.652,248.694,498.514 C248.345,500.093,248.511,501.901,248.545,503.423 C248.677,509.276,250.752,514.515,251.342,520.295 C251.776,524.55,250.938,528.893,250.682,533.128 C250.548,535.35,251.35,537.615,251.226,539.882 C250.858,546.611,250.681,553.461,249.441,559.996 C248.353,565.729,247.948,571.73,247.734,577.387 C247.723,577.698,247.714,578.008,247.709,578.318 C247.348,598.972,255.28,617.798,261.825,636.949 C263.928,643.104,265.587,650.089,266.174,656.174 C266.228,656.733,266.37,657.273,266.465,657.87 C266.867,660.383,267.785,662.799,268.217,665.301 C268.711,668.168,269.42,670.983,269.893,673.85 C270.156,675.439,270.112,677.087,270.36,678.687 C271.085,683.36,272.612,688.252,275.03,692.335 C276.067,694.085,277.563,695.628,279.615,695.871 C281.875,696.139,284.756,694.805,286.682,693.751 C288.807,692.588,289.764,689.458,290.852,687.462 C293.37,682.844,294.603,677.058,294.344,671.795 C294.329,671.482,294.307,671.169,294.278,670.857 C294.028,668.077,293.782,665.17,293.326,662.398 C292.895,659.773,292.859,657.069,292.508,654.432 C292.35,653.241,291.78,651.67,291.701,650.33 C291.581,648.279,291.331,646.243,291.059,644.209 C289.938,635.837,290.035,627.236,290.684,618.713 C291.177,612.238,293.442,605.813,295.064,599.583 C296.383,594.515,296.943,589.128,297.124,583.905 C297.364,576.97,295.581,570.265,293.121,563.813 C291.145,558.63,289.779,553.223,288.89,547.698 C287.576,539.522,289.604,530.215,291.491,522.199 C292.037,519.881,292.648,517.612,293.337,515.374 C293.544,514.701,293.801,513.956,294.031,513.276 C294.348,512.333,294.765,511.41,295.191,510.512 C295.665,509.511,296.294,508.583,296.799,507.597 C297.151,506.91,297.363,506.173,297.634,505.455 C298.107,504.199,298.301,502.82,298.75,501.544 z"/>
      <path id="am19" style="fill:#ff1c24;fill-opacity:1;fill-rule:nonzero;opacity:1;stroke:none;" d="M361.98,418.565 C363.781,418.951,365.536,419.469,367.286,420.028 C368.195,420.319,369.103,420.501,370,420.848 C370.868,421.182,371.819,421.253,372.627,421.755 C373.228,422.128,373.494,422.724,373.94,423.234 C374.16,423.486,374.471,423.716,374.756,423.891 C374.788,423.911,374.822,423.93,374.857,423.948 C375.023,424.032,375.181,423.882,375.264,424.121 C375.339,424.334,375.234,424.568,375.224,424.782 C375.201,425.259,375.208,425.73,375.223,426.208 C375.261,427.425,375.262,428.629,375.262,429.85 C375.262,430.405,375.305,430.937,375.348,431.486 C375.389,432.007,375.383,432.508,375.37,432.89 C375.238,436.703,375.513,439.741,375.123,444.281 C375.076,444.82,375.072,445.412,375.091,445.948 C375.134,447.143,374.981,448.312,375.026,449.508 C375.077,450.886,375.161,452.255,375.135,453.634 C375.106,455.19,374.83,456.735,374.658,458.277 C374.36,460.936,374.067,463.479,373.349,466.068 C372.961,467.466,372.583,468.87,372.137,470.25 C371.927,470.9,371.69,471.538,371.592,472.177 C371.366,473.653,371.136,475.126,370.901,476.594 C370.374,479.901,369.059,482.971,368.746,486.337 C368.365,490.417,369.632,494.581,369.212,498.514 C368.995,500.554,368.864,502.486,368.708,504 C368.084,510.033,367.908,514.85,367.317,520.63 C366.882,524.885,366.417,528.99,366.672,533.225 C366.807,535.448,366.899,537.813,367.132,540.072 C367.932,547.821,368.464,552.601,369.202,559.499 C369.823,565.301,369.959,571.73,370.173,577.387 C370.185,577.698,370.193,578.008,370.199,578.318 C370.56,598.972,361.127,617.324,356.967,637.133 C355.452,644.347,354.814,644.495,354.227,650.58 C354.172,651.139,352.714,657.612,352.618,658.208 C352.216,660.721,351.104,664.586,350.671,667.088 C350.176,669.955,349.616,672.167,349.142,675.035 C348.879,676.623,348.677,678.231,348.429,679.831 C347.703,684.504,345.262,688.252,342.84,692.335 C341.803,694.085,340.305,695.629,338.25,695.871 C335.987,696.139,333.101,694.805,331.173,693.751 C329.045,692.588,328.087,689.458,326.997,687.462 C324.477,682.844,323.762,677.488,324.021,672.225 C324.037,671.912,324.123,670.853,324.151,670.541 C324.402,667.762,324.064,665.17,324.52,662.398 C324.952,659.773,325.498,657.53,325.85,654.894 C326.009,653.703,326.069,651.67,326.147,650.33 C326.268,648.279,326.254,648.211,326.286,645.06 C326.317,642.044,326.359,639.061,326.368,635.845 C326.381,631.119,327.093,624.956,326.706,619.884 C326.213,613.409,323.167,606.628,321.543,600.398 C320.223,595.33,320.083,589.71,320.717,583.905 C321.47,577.007,322.263,570.265,324.726,563.813 C326.704,558.63,329.809,555.128,329.437,549.545 C328.917,541.741,328.36,535.468,326.47,527.452 C325.923,525.135,325.199,517.613,324.51,515.374 C324.302,514.701,324.044,513.956,323.815,513.276 C323.497,512.333,323.08,511.411,322.653,510.512 C322.178,509.511,321.548,508.583,321.043,507.597 C320.69,506.91,320.478,506.173,320.207,505.455 C319.733,504.199,319.539,502.82,319.089,501.544 C318.637,500.263,318.354,498.94,318.448,497.543 C318.493,496.877,318.483,496.171,318.611,495.49 C318.618,495.451,318.625,495.413,318.633,495.374 C318.633,495.371,318.634,495.368,318.635,495.364 C318.931,493.798,318.752,492.067,318.904,490.42 C319.07,488.616,319.134,486.612,319.048,484.805 C318.962,483.006,318.529,481.234,318.379,479.434 C318.314,478.64,318.392,477.833,318.338,477.036 C318.181,474.701,318.471,472.347,318.227,470.017 C317.914,467.028,318.242,464.36,317.695,461.428 C317.451,460.121,317.141,458.186,316.791,456.918 C316.123,454.499,315.286,451.738,314.808,449.27 C314.443,447.38,313.979,444.971,313.769,442.387 C313.557,439.789,313.599,437.016,313.224,435.119 C312.574,431.829,312.858,430.689,312.421,427.375 C311.925,423.625,310.654,420.825,310.421,417.047 C310.319,415.39,310.273,413.728,310.361,412.07 C310.379,411.732,310.316,411.078,310.479,410.668 C310.672,410.186,310.905,409.713,311.138,409.23 C311.207,409.088,311.42,408.808,311.592,408.79 C312.003,408.747,312.356,409.115,312.656,409.325 C313.071,409.615,313.592,409.829,314.056,410.031 C314.789,410.35,315.563,410.607,316.356,410.708 C317.348,410.834,318.331,411.001,319.325,411.117 C320.084,411.206,320.867,411.281,321.608,411.498 C322.136,411.653,322.757,411.826,323.289,412.015 C324.801,412.553,326.177,413.385,327.751,413.77 C328.408,413.93,329.076,413.995,329.734,414.141 C329.876,414.173,330.057,414.172,330.221,414.183 C331.449,414.267,332.667,414.428,333.897,414.495 C334.586,414.533,335.251,414.601,335.901,414.597 C336.533,414.594,337.16,414.559,337.795,414.574 C337.843,414.575,337.891,414.577,337.939,414.579 C338.171,414.588,338.404,414.553,338.634,414.57 C340.257,414.688,341.894,414.691,343.514,414.897 C343.989,414.958,344.595,414.972,345.115,415.085 C345.889,415.253,346.675,415.33,347.453,415.479 C348.881,415.752,350.292,416.083,351.707,416.403 C352.3,416.537,352.931,416.707,353.558,416.811 C353.951,416.876,354.341,416.953,354.731,417.037 C356.029,417.316,357.355,417.456,358.655,417.734 C359.718,417.961,360.746,418.329,361.81,418.543 C361.866,418.554,361.924,418.553,361.98,418.565 z"/>
    </g>
  </g>
  <g id="am20">
    <g id="am21">
      <path id="am22" style="fill:#e4cd3f;fill-opacity:1;fill-rule:nonzero;opacity:1;stroke:none;" d="M309.346,403.551 C310.224,401.005,309.959,397.983,310.059,395.323 C310.123,393.629,310.385,392.046,310.276,390.342 C310.235,389.707,310.125,389.104,309.933,388.576 C309.708,387.961,310.021,386.592,309.964,385.999 C309.958,385.933,309.371,385.985,309.364,385.918 C308.99,382.204,308.449,379.521,307.239,376.04 C307.133,375.736,306.949,375.075,306.862,374.769 C305.704,370.723,304.998,367.108,303.378,363.219 C301.005,357.523,299.361,351.393,296.931,345.702 C295.378,342.065,295.41,337.661,293.072,334.336 C292.149,333.022,291.343,330.818,289.842,330.032 C288.482,329.321,284.86,330.539,283.559,331.179 C279.876,332.99,275.808,335.873,272.796,338.651 C268.019,343.057,264.586,349.093,262.227,354.943 C259.724,361.147,256.677,367.178,255.145,373.714 C253.638,380.142,251.362,387.329,249.175,393.558 C245.912,402.85,244.563,410.505,243.249,420.29 C242.87,423.111,242.529,426.981,242.525,429.797 C244.391,428.407,245.324,426.439,246.904,424.874 C248.115,423.675,251.423,422.437,253.095,421.938 C256.727,420.854,260.644,421.198,264.36,420.847 C269.105,420.399,273.537,418.962,278.175,418.096 C282.866,417.221,286.809,417.058,291.267,415.292 C293.535,414.394,296.202,412.982,298.701,412.823 C299.871,412.749,300.636,412.318,301.729,412.02 C304.271,411.327,307.325,410.752,308.745,408.425 C309.36,407.418,309.439,405.997,309.468,404.861 C309.48,404.424,309.203,403.965,309.346,403.551 z"/>
      <path id="am23" style="fill:#e4cd3f;fill-opacity:1;fill-rule:nonzero;opacity:1;stroke:none;" d="M307.44,395.548 C307.431,395.641,307.421,395.734,307.412,395.828 C307.396,395.993,307.38,396.159,307.365,396.328 C307.312,396.901,307.27,397.477,307.238,398.055 C307.126,400.099,307.086,402.415,307.667,404.41 C307.83,404.971,307.835,405.765,308.229,406.248 C308.647,406.759,309.444,407.151,309.993,407.56 C312.095,409.124,314.505,410.285,317.251,410.787 C318.745,411.06,320.203,410.983,321.68,411.42 C321.952,411.5,322.219,411.58,322.48,411.663 C324.808,412.4,326.68,413.631,329.204,414.009 C334.82,414.852,340.466,414.045,346.102,415.192 C353.487,416.696,361.588,418.034,368.679,420.297 C370.511,420.882,370.382,420.748,372.137,421.487 C372.571,421.67,374.857,424.339,375.361,424.064 C375.361,424.064,375.326,422.511,375.361,420.559 C375.382,419.356,375.353,417.787,375.32,417.416 C374.812,411.77,374.424,405.526,373.447,399.934 C372.098,392.22,369.481,386.499,366.855,379.318 C366.579,378.564,366.39,377.933,366.22,377.567 C365.769,376.591,365.869,376.393,365.632,375.88 C365.348,375.267,365.134,374.431,364.887,373.61 C364.338,371.783,364.141,370.042,363.527,368.668 C362.259,365.832,358.559,363.562,357.313,360.632 C355.922,357.363,354.662,353.714,353.225,350.3 C352.036,347.474,350.675,344.464,348.863,341.851 C347.646,340.097,347.608,339.333,346.289,337.648 C344.927,335.908,342.803,330.676,339.946,328.951 C337.579,327.521,332.585,327.728,329.792,331.241 C328.765,332.532,327.392,334.823,326.484,336.128 C325.753,337.179,325.461,339.297,325,340.432 C324.053,342.767,323.748,345.088,322.945,347.463 C322.494,348.795,321.726,350.514,321.026,351.706 C319.565,354.195,318.615,355.732,317.814,357.413 C317.304,358.481,316.986,359.446,316.134,360.986 C315.151,362.762,313.865,365.401,313.069,367.879 C312.737,368.912,312.71,370.058,312.347,370.808 C311.337,372.894,311.034,375.006,310.709,377.207 C310.276,380.143,309.665,383.031,309.072,385.918 C309.051,386.024,309.029,386.129,309.007,386.234 C308.803,387.229,307.855,388.09,307.429,389.052 C306.609,390.902,307.651,393.494,307.44,395.548 z"/>
    </g>
  </g>
  <g id="am24">
    <g id="am25">
      <path id="am26" style="fill:#ff931d;fill-opacity:1;fill-rule:nonzero;opacity:1;stroke:none;" d="M231.973,325.31 C232.622,322.398,233.004,319.388,233.004,316.232 C233.004,314.769,232.796,313.334,232.456,311.919 C232.023,310.115,231.982,308.169,231.31,306.421 C230.939,305.458,230.371,304.585,229.867,303.695 C229.256,302.616,228.613,301.557,228.207,300.389 C226.894,296.619,226.274,292.911,228.1,289.155 C232.16,280.804,238.575,275.2,242.416,266.589 C244.886,261.052,246.676,256.512,246.247,250.465 C246.118,248.65,244.804,246.419,244.286,243.662 C243.797,241.061,244.101,237.929,244.071,236.248 C244.004,232.493,243.71,228.644,243.694,224.927 C243.686,222.958,243.826,221.604,244.455,219.066 C242.391,220.511,240.503,222.497,238.542,224.097 C237.584,224.879,236.508,225.532,235.581,226.353 C234.483,227.324,233.511,228.451,232.198,229.145 C229.651,230.49,226.774,230.944,223.978,231.468 C223.377,231.581,222.781,231.713,222.176,231.787 C221.43,231.879,220.686,231.99,219.944,232.142 C215.906,232.969,214.052,235.028,210.412,237.261 C210.293,237.334,209.038,237.682,208.959,237.796 C208.717,237.529,208.758,237.239,208.571,236.989 C208.511,237.456,208.219,237.962,208.026,238.388 C207.436,239.686,206.673,240.769,205.95,241.99 C204.647,244.192,203.575,246.493,202.448,248.785 C201.485,250.741,200.813,252.847,199.961,254.849 C198.963,257.196,197.944,259.419,197.359,261.92 C197.041,263.283,196.967,264.685,196.843,266.074 C196.728,267.362,196.587,268.646,196.381,269.922 C196.084,271.755,195.886,273.637,195.804,275.583 C195.781,276.129,195.885,276.665,195.909,277.21 C195.971,278.641,195.84,280.1,196.123,281.52 C196.378,282.8,196.963,283.983,197.065,285.298 C197.101,285.77,197.1,286.302,196.974,286.752 C195.966,290.363,193.593,293.465,192.538,297.043 C191.903,299.198,191.338,301.676,191.244,303.928 C191.204,304.899,191.217,305.991,191.37,306.951 C191.435,307.354,191.562,308.904,191.614,309.309 C191.869,311.296,192.425,312.028,192.594,314.005 C192.671,314.902,192.705,315.808,192.794,316.696 C192.924,317.978,193.184,319.248,193.216,320.54 C193.27,322.686,193.274,324.886,193.186,327.031 C193.08,329.619,192.605,332.16,192.652,334.76 C192.7,337.363,193.213,339.785,193.543,342.349 C194.187,347.356,196.641,352.102,197.406,357.08 C198.971,367.271,199.295,377.105,202.258,387.038 C202.955,389.374,204.505,395.888,207.675,396.062 C210.486,396.216,212.72,389.798,213.827,387.849 C215.018,385.751,214.804,383.268,215.391,380.962 C216.365,377.138,218.092,373.727,218.568,369.729 C218.756,368.144,218.813,366.42,218.869,364.659 C219.051,358.897,221.478,353.047,223.903,347.749 C226.556,341.953,229.795,336.362,231.144,330.088 C231.496,328.455,231.605,326.962,231.973,325.31 z"/>
      <path id="am27" style="fill:#ff931d;fill-opacity:1;fill-rule:nonzero;opacity:1;stroke:none;" d="M423.18,292.233 C423.842,293.012,424.127,293.829,424.571,294.725 C424.954,295.498,425.455,296.213,425.732,297.039 C425.947,297.684,425.997,298.325,426.098,298.99 C426.371,300.795,426.183,302.665,426.372,304.454 C426.421,304.914,426.456,305.369,426.473,305.815 C426.512,306.808,426.499,307.924,426.352,308.905 C426.29,309.317,426.167,310.902,426.118,311.315 C425.873,313.347,425.338,314.095,425.176,316.116 C425.102,317.032,425.473,318.06,425.387,318.967 C425.263,320.277,425.287,322.232,425.255,323.553 C425.204,325.747,424.787,327.996,424.871,330.188 C424.973,332.835,423.934,335.096,423.888,337.755 C423.842,340.415,422.814,343.287,422.497,345.907 C421.878,351.026,421.288,355.06,420.553,360.149 C419.05,370.566,418.739,380.619,415.892,390.773 C415.222,393.16,413.733,399.819,410.688,399.997 C407.988,400.155,405.841,393.594,404.778,391.602 C403.634,389.457,403.84,386.919,403.275,384.561 C402.34,380.652,400.681,377.166,400.224,373.079 C400.043,371.458,399.988,369.696,399.935,367.896 C399.76,362.006,397.428,356.026,395.099,350.61 C392.55,344.685,389.438,338.97,388.142,332.557 C387.804,330.887,387.7,329.361,387.346,327.672 C386.723,324.695,386.356,321.618,386.355,318.392 C386.355,316.897,386.091,314.724,386.193,313.245 C386.308,311.601,386.348,309.437,386.994,307.65 C387.35,306.665,387.906,305.243,388.391,304.333 C388.978,303.23,389.341,302.515,389.936,301.408 C392.304,296.997,391.612,295.868,390.262,291.868 C387.198,282.791,381.39,276.735,377.182,268.168 C375.1,263.929,372.615,261.398,371.799,257.589 C371.676,257.015,371.123,256.513,371.014,255.941 C370.885,255.264,371.521,254.359,371.573,253.698 C371.718,251.847,372.201,249.179,372.681,246.461 C373.151,243.801,373.516,239.322,373.544,237.604 C373.608,233.765,373.654,231.104,373.22,226.662 C373.171,226.166,373.134,225.56,372.998,224.881 C372.713,223.461,372.188,221.725,371.53,220.047 C373.512,221.524,375.945,221.538,377.828,223.173 C378.749,223.973,382.677,226.798,383.568,227.637 C384.622,228.629,385.955,229.354,387.217,230.063 C388.141,230.583,389.024,230.278,390.018,230.591 C390.417,230.716,390.824,230.601,391.235,230.626 C392.64,230.714,394.02,230.585,395.432,230.619 C396.925,230.654,398.356,231.201,399.833,231.334 C399.864,231.337,399.893,231.341,399.921,231.347 C402.078,231.817,403.575,232.576,404.973,233.64 C405.153,233.777,405.362,233.871,405.537,234.01 C405.542,234.014,405.546,234.018,405.551,234.022 C405.677,234.122,405.835,234.146,405.962,234.236 C406.132,234.356,406.262,234.522,406.425,234.652 C406.63,234.816,406.858,234.963,407.044,235.15 C407.38,235.489,407.569,235.947,407.913,236.284 C407.927,236.298,407.941,236.312,407.956,236.325 C408.107,236.473,408.261,236.624,408.419,236.777 C408.452,236.809,408.534,236.917,408.632,237.049 C408.743,237.198,408.952,237.364,409.118,237.449 C409.242,237.513,409.339,237.502,409.375,237.362 C409.75,237.677,410.046,238.062,410.382,238.42 C410.507,238.554,410.604,238.684,410.649,238.789 C411.215,240.116,412.164,241.387,412.858,242.635 C414.11,244.886,414.985,247.158,416.068,249.501 C416.993,251.5,417.565,254.354,418.262,256.479 C419.067,258.933,419.482,261.072,420.439,263.426 C421.241,265.4,420.975,265.699,421.094,267.119 C421.204,268.435,421.213,269.77,421.161,271.071 C421.086,272.965,420.589,273.984,420.668,275.973 C420.69,276.533,420.384,278.032,420.362,278.589 C420.302,280.052,420.367,281.446,420.095,282.898 C419.85,284.207,420.537,285.55,420.439,286.894 C420.407,287.344,420.631,287.808,420.876,288.186 C421.392,288.984,421.827,289.828,422.316,290.642 C422.628,291.163,422.791,291.774,423.18,292.233 z"/>
    </g>
  </g>
  <g id="am28">
    <g id="am29">
      <path id="am30" style="fill:#5200df;fill-opacity:1;fill-rule:nonzero;opacity:1;stroke:none;" d="M346.848,190.702 C346.568,190.509,346.339,190.556,346.026,190.657 C345.56,190.807,345.15,191.1,344.648,191.151 C343.999,191.217,343.343,191.174,342.693,191.224 C342.08,191.272,341.467,191.434,340.885,191.623 C340.127,191.871,339.465,192.229,339.256,193.055 C339.17,193.392,339.207,193.756,339.339,194.045 C339.489,194.372,339.611,194.71,339.701,195.056 C340.02,196.293,340.203,197.685,340.331,198.948 C340.873,204.273,339.953,209.229,339.631,214.678 C339.561,215.857,339.334,217.14,339.047,218.297 C338.405,220.889,338.31,223.616,337.703,226.22 C336.958,229.413,336.003,232.572,334.923,235.658 C334.319,237.382,333.834,239.16,333.016,240.806 C332.316,242.214,331.373,243.55,330.721,244.977 C330.639,245.156,330.552,245.331,330.46,245.504 C330.208,245.971,329.781,246.373,329.452,246.786 C328.275,248.265,326.921,249.599,325.744,251.087 C323.794,253.553,321.969,256.042,320.535,258.856 C319.857,260.188,319.433,261.665,318.853,263.038 C318.367,264.19,317.663,265.237,317.228,266.413 C317.032,266.943,316.801,267.447,316.535,267.898 C315.956,268.876,315.166,269.685,314.392,270.494 C313.838,271.073,313.327,271.588,312.643,272.016 C311.774,272.56,311.079,273.35,309.983,273.423 C308.389,273.528,306.97,272.493,305.776,271.573 C304.769,270.798,303.863,269.895,302.995,268.967 C302.427,268.36,301.8,267.809,301.224,267.211 C300.78,266.75,300.398,266.213,299.941,265.772 C299.386,265.237,298.574,264.784,298.125,264.161 C296.641,262.101,296.249,259.589,295.14,257.344 C294.459,255.966,293.336,254.976,292.423,253.779 C291.989,253.209,291.703,252.507,291.262,251.948 C289.875,250.186,288.627,248.321,287.557,246.253 C285.393,242.072,284.004,237.675,282.593,233.209 C280.34,226.074,278.965,219.004,278.268,211.478 C277.798,206.396,277.203,201.685,277.701,196.565 C277.715,196.418,277.729,196.27,277.742,196.121 C277.84,194.992,278.098,193.868,277.411,192.83 C276.921,192.089,275.877,192.108,275.087,192.049 C273.619,191.941,272.171,192.172,270.698,192.071 C270.005,192.023,269.31,191.713,268.677,191.631 C268.615,191.807,268.559,191.97,268.516,192.115 C267.159,196.605,261.835,199.999,259.133,203.701 C253.723,211.112,247.126,216.867,240.159,222.73 C237.95,224.588,235.447,226.49,233.18,228.352 C229.417,231.443,222.742,230.956,217.447,232.87 C213.942,234.138,212.328,237.065,208.648,237.85 C207.696,230.283,207.381,221.867,209.296,214.753 C210.262,211.163,212.052,208.186,214.082,205.229 C217.312,200.523,219.004,194.57,223.504,190.842 C226.574,188.297,229.749,185.809,232.99,184.528 C236.253,183.237,239.585,183.163,243.7,183.245 C246.381,183.299,251.898,178.762,254.718,176.552 C258.422,173.647,262.368,170.71,266.721,168.966 C272.219,166.763,275.311,166.022,280.551,163.28 C282.305,162.363,285.419,160.305,286.637,158.7 C290.496,153.617,292.045,147.192,292.987,140.787 C293.619,136.486,292.128,129.432,295.903,126.176 C300.544,122.175,309.217,124.268,314.817,124.126 C317.388,124.061,320.149,124.158,322.161,126.045 C323.785,127.569,324.29,131.695,324.516,133.793 C325.14,139.57,325.725,145.627,327.899,151.047 C328.93,153.617,330.487,156.728,332.059,158.544 C333.265,159.939,334.891,161.498,336.376,162.307 C337.795,163.08,339.508,164.615,340.891,165.262 C344.159,166.791,347.521,167.785,350.569,169.138 C353.76,170.556,356.631,172.347,359.85,174.575 C362.325,176.288,365.06,178.256,366.99,179.674 C368.136,180.516,369.881,181.362,371.154,182.062 C372.242,182.661,373.55,182.377,374.675,182.751 C374.846,182.808,376.45,182.955,376.644,182.985 C380.84,183.653,383.138,184.303,387.169,185.743 C392.086,187.499,395.043,191.435,397.926,195.526 C401.095,200.023,403.079,205.068,405.09,210.206 C405.528,211.323,406.272,212.262,406.679,213.351 C408.723,218.818,409.959,224.199,409.959,230.331 C409.959,231.052,409.844,231.124,409.849,233.282 C409.851,234.504,409.813,236.76,409.273,237.483 C409.087,237.732,407.042,235.121,406.738,234.872 C404.982,233.431,403.034,232.391,400.896,231.657 C398.43,230.81,395.93,230.447,393.317,230.496 C390.112,230.556,388.067,231.045,385.214,228.918 C382.484,226.882,379.847,224.383,376.955,222.613 C373.865,220.721,370.845,220.471,368.308,217.606 C367.717,216.938,367.086,216.287,366.505,215.594 C363.667,212.212,361.261,208.402,358.783,204.803 C355.663,200.271,352.709,195.018,348.297,191.571 C347.863,191.231,347.322,191.029,346.848,190.702 z"/>
    </g>
  </g>
  <g id="am31">
    <path id="am32" style="fill:#15a491;fill-opacity:1;fill-rule:nonzero;opacity:1;stroke:none;" d="M289.016,329.693 C289.877,329.951,290.694,330.455,291.454,331.48 C293.963,334.864,294.873,340.192,296.34,344.119 C299.147,351.632,301.858,358.982,304.581,366.549 C305.246,368.397,305.603,370.329,306.118,372.208 C307.046,375.587,308.311,379.036,308.681,382.565 C308.753,383.254,308.861,385.847,309.621,386.124 C310.16,386.32,310.92,384.233,311.051,383.833 C311.875,381.326,311.701,377.936,312.34,375.355 C312.63,374.179,312.525,372.796,312.883,371.42 C313.597,368.682,314.871,365.884,316.134,363.359 C317.198,361.232,317.868,359.036,319.093,356.943 C320.606,354.354,322.017,351.66,322.945,348.86 C325.605,340.833,325.586,332.125,334.346,328.444 C335.76,327.85,338.568,328.207,339.946,329.01 C340.104,329.103,340.217,329.126,340.294,329.1 C340.636,328.981,340.912,328.702,341.169,328.346 C341.491,327.898,341.857,327.475,342.333,327.139 C344.533,325.584,346.992,323.701,349.609,324.155 C351.1,324.413,352.62,324.742,354.023,324.73 C354.988,324.721,355.799,324.629,356.357,324.138 C357.194,323.401,357.488,322.348,357.548,321.167 C357.624,319.682,357.974,318.42,357.814,316.918 C357.695,315.806,357.339,314.783,357.43,313.656 C357.475,313.092,357.525,312.528,357.579,311.964 C357.978,307.799,357.348,303.85,356.615,299.842 C356.244,297.815,355.943,295.735,355.899,293.694 C355.821,290.104,355.447,287.262,356.194,283.528 C356.592,281.543,357.36,279.464,358.237,277.585 C359.227,275.462,360.65,272.952,361.748,270.861 C363.13,268.227,364.852,265.739,366.537,263.289 C367.21,262.31,370.804,257.089,370.981,255.891 C371.065,255.32,371.829,253.465,371.668,252.94 C371.423,252.139,371.834,251.566,371.944,250.733 C372.191,248.861,372.919,245.584,373.119,243.501 C373.8,236.387,373.579,235.385,373.319,228.213 C373.241,226.09,372.917,223.66,372.148,221.329 C371.932,220.673,371.656,220.043,371.099,219.609 C370.581,219.205,369.977,218.819,369.439,218.476 C367.119,216.996,365.532,214.159,363.93,211.864 C361.324,208.13,358.929,204.983,356.389,201.217 C354.254,198.055,352.1,194.165,348.811,191.986 C348.148,191.546,347.453,190.841,346.93,190.695 C345.983,190.431,345.277,190.992,344.048,191.141 C342.757,191.298,341.311,191.276,339.732,192.266 C338.478,193.053,339.757,194.645,339.943,195.771 C340.746,200.624,340.446,204.638,340.142,209.065 C340.054,210.352,339.858,211.509,339.786,212.82 C339.631,215.667,339.036,218.706,338.564,221.481 C337.369,228.51,335.412,235.642,332.436,242.195 C330.238,247.034,323.61,252.853,321.209,257.691 C318.386,263.382,316.76,270.879,310.577,273.232 C309.906,273.487,309.171,273.561,308.172,273.159 C307.647,272.947,306.699,272.405,306.391,272.152 C305.302,271.255,303.075,269.307,302.29,268.34 C300.736,266.426,300.996,267.561,299.701,265.481 C299.546,265.232,298.392,264.347,298.211,264.114 C296.699,262.171,295.775,258.375,294.569,256.336 C293.488,254.51,292.191,254.021,291.332,252.1 C290.798,250.908,288.727,248.499,288.124,247.288 C283.263,237.522,279.908,227.547,278.556,216.527 C278.24,213.953,278.19,211.515,277.904,208.804 C277.628,206.183,277.109,203.289,277.158,200.779 C277.189,199.182,278.189,194.432,277.465,193.122 C276.497,191.371,272.476,192.302,270.648,192.084 C270.603,192.261,268.71,191.531,268.647,191.718 C267.546,194.953,266.676,195.75,264.403,198.128 C262.424,200.198,260.65,202.106,258.743,204.231 C257.247,205.899,256.542,207.389,254.981,209.003 C254.21,209.799,251.882,212.025,251.193,212.851 C250.246,213.984,246.938,216.656,245.043,218.553 C243.894,219.703,244.117,220.166,243.924,221.044 C243.256,224.073,244.297,232.102,244.306,235.219 C244.318,238.953,243.435,240.974,244.519,244.527 C245.907,249.077,246.649,248.894,246.058,253.783 C245.885,255.212,249.557,260.77,249.939,262.079 C250.113,262.678,251.106,263.938,251.323,264.515 C252.046,266.442,252.604,266.676,253.853,268.728 C255.172,270.896,256.11,272.289,257.365,274.453 C258.102,275.724,258.671,276.868,259.26,278.175 C259.769,279.302,260.641,280.213,260.923,281.442 C261.158,282.46,260.983,283.188,261.191,284.207 C261.513,285.781,260.962,288.377,261.128,289.962 C261.723,295.64,260.694,300.543,260.102,306.237 C259.633,310.737,259.146,314.241,259.206,318.785 C259.215,319.531,258.99,321.369,259.239,322.675 C259.852,325.894,259.393,329.404,258.979,332.777 C259.523,332.407,259.811,331.772,260.439,331.427 C263.274,329.874,267.173,329.571,270.326,329.975 C272.298,330.227,274.125,331.129,276.16,331.085 C280.484,330.993,284.872,328.45,289.016,329.693 z"/>
  </g>
</svg>
