<?xml version="1.0" encoding="utf-8"?>
<svg viewBox="0 0 600 800" xmlns="http://www.w3.org/2000/svg" xmlns:xlink="http://www.w3.org/1999/xlink">
  <!--Generated by AMDN-->
  <g id="am1">
    <g id="am2" style="opacity:0.7;">
      <g id="am4">
        <path style="fill:#9e9e9e;fill-opacity:1;fill-rule:nonzero;opacity:1;stroke:none;" d="M288.506,142.906 C290.205,149.501,289.595,157.294,285.494,162.964 C284.31,164.601,282.606,166.667,280.653,167.463 C278.31,168.419,276.238,169.896,273.886,170.791 C270.651,172.024,267.531,172.254,264.607,174.159 C263.392,174.95,261.473,176.013,260.625,177.204 C260.332,177.615,259.936,178.38,260.438,178.789 C261.185,179.397,263.076,179.195,264.041,179.489 C268.662,180.895,274.276,180.864,279.088,180.916 C287.554,181.008,295.989,181.546,304.466,181.494 C310.298,181.459,316.126,180.817,321.947,180.588 C326.639,180.404,331.08,179.213,335.323,177.292 C336.947,176.556,338.874,175.913,339.918,174.398 C340.356,173.763,339.24,173.455,338.779,173.301 C337.079,172.736,335.441,172.123,333.715,171.648 C329.757,170.56,326.233,168.361,322.959,165.989 C316.762,161.499,316.334,155.02,316.822,148.072 C316.993,145.632,316.675,143.251,317.685,140.919 C316.984,141.392,316.647,142.442,316.087,143.078 C314.925,144.395,313.228,145.692,311.681,146.555 C303.874,150.906,295.24,147.431,288.506,142.906 z"/>
      </g>
      <g id="am6">
        <path style="fill:#9e9e9e;fill-opacity:1;fill-rule:nonzero;opacity:1;stroke:none;" d="M299.093,73.3278 C291.768,75.5493,282.674,80.6124,279.147,87.5914 C277.447,90.9575,278.025,94.839,277.855,98.4365 C277.402,108.005,277.247,119.197,280.722,128.277 C283.198,134.745,286.964,143.34,293.573,146.795 C295.67,147.891,298.41,148.089,300.728,148.489 C302.034,148.714,302.924,149.624,304.357,149.549 C305.555,149.486,306.351,148.402,307.463,148.039 C309.634,147.329,312.118,146.747,313.989,145.397 C320.1,140.99,321.692,133.653,324.332,127.296 C327.803,118.939,328.003,110.232,328.672,101.384 C328.977,97.3435,329.721,92.4647,328.216,88.5699 C323.816,77.1819,310.092,69.9921,299.093,73.3278 z"/>
      </g>
      <g id="am8">
        <path style="fill:#9e9e9e;fill-opacity:1;fill-rule:nonzero;opacity:1;stroke:none;" d="M264.06,174.507 C263.911,174.507,263.812,174.661,263.732,174.713 C262.77,175.333,261.37,176.394,260.683,177.125 C258.032,179.944,254.961,178.675,250.974,179.787 C248.048,180.603,245.148,182.273,242.693,183.988 C239.422,186.274,235.712,190.262,234.34,193.998 C233.456,196.403,233.348,199.167,232.626,201.642 C230.677,208.323,228.842,215.416,228.624,222.405 C228.523,225.637,228.375,228.74,228.72,231.973 C228.86,233.283,229.153,235.049,230.361,235.882 C231.008,236.328,232.632,236.602,233.287,236.094 C234.384,235.243,235.078,233.596,236.252,232.898 C239.195,231.15,242.496,230.489,245.874,229.85 C249.182,229.225,252.818,228.876,255.953,227.61 C261.341,225.433,265.975,221.607,270.706,218.382 C284.565,208.937,296.959,196.097,303.701,180.832 C303.701,180.832,264.208,174.507,264.06,174.507 z"/>
      </g>
      <g id="am10">
        <path style="fill:#9e9e9e;fill-opacity:1;fill-rule:nonzero;opacity:1;stroke:none;" d="M229.465,230.068 C229.465,234.624,227.967,238.788,227.384,243.293 C226.229,252.209,225.464,261.396,223.166,270.157 C220.64,279.786,216.18,288.912,213.113,298.333 C211.551,303.13,211.014,308.022,209.708,312.857 C207.694,320.313,204.931,326.975,204.29,334.767 C203.596,343.218,202.464,351.609,202.464,360.112 C202.464,364,203.646,368.317,208.246,369.162 C210.865,369.643,213.055,364.063,213.848,362.26 C217.432,354.105,218.955,345.361,223.186,337.398 C227.653,328.991,234.212,321.813,237.842,312.984 C240.878,305.6,240.435,297.12,243.575,289.748 C249.602,275.596,257.371,260.963,258.162,245.324 C258.511,238.424,254.506,232.696,254.051,226.068"/>
      </g>
      <g id="am12">
        <path style="fill:#9e9e9e;fill-opacity:1;fill-rule:nonzero;opacity:1;stroke:none;" d="M202.891,354.962 C202.715,357.68,202.226,360.378,201.994,363.096 C201.572,368.044,201.683,373.046,201.027,377.99 C199.951,386.094,198.718,393.829,199.066,402.051 C199.268,406.819,201.51,411.366,202.135,416.141 C202.851,421.613,204.594,427.375,207.763,432.059 C208.497,433.145,210.182,435.976,211.624,436.086 C213.055,436.196,212.283,433.368,212.211,432.641 C212.178,432.308,212.041,431.383,212.637,431.489 C213.359,431.617,213.824,432.758,214.279,433.24 C215.33,434.353,217.864,436.256,219.55,435.902 C221.092,435.578,219.415,432.582,218.955,431.929 C218.254,430.931,217.043,430.463,216.365,429.521 C215.938,428.928,215.884,428.074,215.507,427.431 C214.705,426.064,213.79,425.162,213.105,423.664 C212.721,422.822,211.524,421.427,211.972,420.428 C212.288,419.723,213.952,422.047,214.236,422.288 C216.22,423.971,217.227,426.114,219.898,426.814 C220.497,426.97,222.248,427.193,222.609,426.57 C223.569,424.912,221.937,423.016,220.849,421.969 C218.547,419.754,214.278,417.378,213.427,414.116 C213.213,413.295,215.618,415.018,215.986,415.224 C217.366,415.996,220.354,417.083,220.654,414.564 C221.043,411.298,216.716,411.873,214.854,410.824 C213.981,410.333,212.602,409.62,211.958,408.868 C210.035,406.623,210.902,403.249,211.709,400.788 C212.094,399.612,212.069,398.528,213.075,397.626 C214.559,396.297,215.884,398.333,216.375,399.537 C218.097,403.757,219.999,407.687,222.223,411.742 C222.783,412.765,225.534,416.117,226.499,413.633 C227.273,411.638,225.786,408.861,225.201,406.991 C224.309,404.14,223.785,401.202,222.879,398.35 C222.293,396.505,221.156,394.729,220.441,392.93 C218.779,388.752,218.956,384.067,218.071,379.708 C217.502,376.903,215.883,374.341,215.034,371.632 C213.474,366.65,213.745,361.518,215.109,356.555"/>
      </g>
      <g id="am14">
        <path style="fill:#9e9e9e;fill-opacity:1;fill-rule:nonzero;opacity:1;stroke:none;" d="M257.593,245.9 C262.227,248.034,260.803,253.43,261.216,257.788 C261.609,261.94,263.399,266.18,264.551,270.175 C266.632,277.4,268.246,287.974,266.483,295.381 C265.327,300.236,261.254,305.077,260.726,310.114 C260.403,313.202,256.458,315.531,255.249,319.083 C252.304,327.735,252.56,337.298,249.869,346.118 C243.664,366.459,236.755,386.99,235.576,408.36 C234.857,421.397,237.198,434.585,239.281,447.406 C240.588,455.458,242.678,463.321,244.157,471.336 C244.812,474.884,245.547,479.342,247.376,482.832 C249.248,486.402,248.504,490.955,249.364,495.031 C250.516,500.487,253.038,506.238,253.323,511.802 C253.765,520.439,254.868,530.03,254.004,538.626 C253.304,545.592,251.06,552.428,250.928,559.472 C250.605,576.689,252.781,593.455,255.381,610.405 C256.445,617.336,258.002,624.716,260.162,631.657 C263.248,641.577,266.077,651.753,269.041,661.763 C269.702,663.997,270.728,666.154,271.275,668.413 C272.626,673.989,274.354,680.362,274.318,686.108 C274.293,690.084,274.26,694.079,274.156,698.063 C274.098,700.292,273.98,703.49,273.162,705.568 C272.727,706.673,271.594,707.419,270.921,708.358 C270.498,708.948,270.438,709.749,270.041,710.374 C269.367,711.434,268.336,712.241,267.564,713.227 C266.803,714.199,266.379,715.401,265.57,716.401 C264.531,717.685,262.987,718.215,262.062,719.645 C261.071,721.177,256.839,726.434,260.974,727.241 C263.761,727.785,266.561,726.714,269.314,726.822 C270.978,726.888,272.613,727.476,274.287,727.59 C278.311,727.864,282.484,727.857,286.509,727.647 C288.802,727.528,292.63,728.241,294.471,726.562 C299.879,721.628,295.822,713.084,296.363,707.023 C296.754,702.635,298.191,698.657,297.68,694.19 C297.425,691.964,296.475,690.163,295.769,688.084 C294.802,685.237,294.029,682.306,293.233,679.411 C289.809,666.963,289.21,653.625,287.77,640.885 C287.549,638.934,287.021,636.776,287.114,635.424 C287.74,626.339,287.632,617.156,288.631,608.13 C288.992,604.865,290.49,602.031,291.514,598.955 C293.125,594.115,294.246,588.697,294.177,583.593 C293.996,570.161,289.602,557.493,287.683,544.307 C287.238,541.253,288.263,538.061,288.283,535.01 C288.322,529.255,287.704,523.475,287.735,517.782 C287.75,514.903,289.376,511.717,290.439,509.078 C291.855,505.565,293.083,501.679,293.945,497.997 C295.604,490.908,294.403,483.058,292.915,476.075 C292.68,474.974,292.375,473.881,292.509,472.756 C293.143,467.442,294.213,462.062,295.406,456.781 C297.218,448.765,297.874,440.527,298.543,432.366 C299.175,424.668,300.551,417.137,300.7,409.37 C300.854,401.377,299.154,392.262,297.367,384.335 C301.374,385.795,304.983,385.565,309.099,383.711 C305.973,396.63,304.124,409.943,304.686,422.894 C304.844,426.537,305.936,430.036,306.397,433.623 C307.467,441.955,308.726,450.281,310.179,458.551 C310.922,462.778,312.426,467.281,312.917,471.617 C313.626,477.869,310.069,484.164,310.38,490.578 C310.824,499.765,314.466,508.089,316.398,516.994 C317.427,521.74,316.704,526.951,316.829,531.777 C316.95,536.439,318.332,541.203,318.291,545.808 C318.263,548.906,317.079,551.393,316.553,554.336 C315.005,562.997,312.398,571.181,311.695,580.012 C311.553,581.804,311.808,583.605,311.802,585.396 C311.785,590.596,312.843,597.163,315.418,601.775 C315.474,601.875,315.53,601.978,315.586,602.084 C319.209,608.887,317.444,617.263,317.718,624.835 C318.401,643.625,317.633,662.974,312.176,681.05 C310.287,687.31,307.465,692.875,307.256,699.59 C307.145,703.152,308.863,706.648,308.731,710.201 C308.571,714.512,307.986,722.254,311.072,725.711 C312.42,727.221,314.875,726.507,316.721,727.002 C318.377,727.447,320.065,728.333,321.79,728.451 C324.318,728.623,326.798,727.871,329.215,727.902 C331.957,727.937,334.829,728.541,337.561,728.3 C339.057,728.169,342.65,727.961,343.743,726.953 C344.632,726.132,344.578,723.447,344.406,722.331 C344.001,719.693,342.013,718.529,340.488,716.559 C337.482,712.677,333.954,708.62,331.793,704.223 C330.974,702.556,331.247,700.663,331.029,698.9 C330.342,693.332,330.783,687.304,331.177,681.707 C331.607,675.585,333.96,669.583,335.971,663.841 C337.643,659.064,338.771,654.037,340.255,649.183 C342.014,643.43,342.996,637.532,344.616,631.761 C348.448,618.106,350.666,604.569,353.273,590.664 C354.198,585.734,353.839,580.717,353.948,575.683 C354.103,568.501,354.965,561.298,354.382,554.061 C353.608,544.442,350.986,535.059,351.104,525.309 C351.219,515.771,353.881,507.025,356.25,497.883 C357.428,493.336,356.855,488.425,357.638,483.841 C358.076,481.281,360.033,478.411,360.838,475.816 C361.548,473.526,361.173,470.598,361.661,468.231 C362.663,463.37,363.369,458.454,364.224,453.859 C367.605,435.685,370.321,416.319,368.465,397.813 C366.53,378.513,360.537,360.107,354.559,341.714 C350.932,330.553,350.383,319.361,344.293,308.796 C343.901,308.117,343.383,307.455,343.178,306.737 C342.103,302.972,341.022,299.241,339.992,295.467 C338.328,289.372,338.333,281.731,339.348,275.52 C340.369,269.273,342.658,263.135,343.937,256.902 C344.621,253.568,344.339,249.587,345.532,246.4 C346.639,243.443,349.774,241.325,351.198,238.538 C352.506,235.977,351.285,233.281,352.383,230.89 C353.771,227.868,356.925,225.818,358.367,222.751 C361.537,216.013,362.109,207.013,362.363,199.715 C362.552,194.274,363.364,186.363,358.948,182.183 C356.839,180.187,352.337,180.225,349.632,179.316 C345.588,177.957,343.051,174.845,338.93,173.735"/>
      </g>
      <g id="am16">
        <path style="fill:#9e9e9e;fill-opacity:1;fill-rule:nonzero;opacity:1;stroke:none;" d="M306.844,174.239 C300.727,174.893,295.594,178.044,290.26,180.803 C275.954,188.204,261.052,198.654,252.35,212.193 C250.651,214.837,248.936,217.58,248.263,220.667 C246.894,226.949,250.257,238.582,255.78,242.456 C257.793,243.868,260.831,243.979,263.219,244.187 C272.003,244.952,278.066,242.291,285.589,238.181 C302.215,229.097,316.603,218.787,328.768,204.387 C334.22,197.934,339.925,191.372,340.116,182.643 C340.176,179.898,339.471,176.077,336.463,174.999 C333.511,173.942,329.535,175.107,326.48,175.258 C319.074,175.626,314.295,173.441,306.844,174.239 z"/>
      </g>
      <g id="am18">
        <path style="fill:#9e9e9e;fill-opacity:1;fill-rule:nonzero;opacity:1;stroke:none;" d="M258.64,242.175 C257.265,242.496,255.405,244.017,256.793,245.497 C257.802,246.571,261.459,246.288,262.376,245.159 C264.288,242.805,260.06,241.843,258.64,242.175 z"/>
      </g>
      <g id="am20">
        <path style="fill:#9e9e9e;fill-opacity:1;fill-rule:nonzero;opacity:1;stroke:none;" d="M403.677,366.221 C404.679,375.898,406.104,385.5,406.514,395.228 C406.608,397.465,407.048,399.803,406.881,402.038 C406.714,404.274,405.66,406.373,404.944,408.473 C404.156,410.785,403.826,413.115,403.324,415.484 C402.311,420.264,401.724,425.355,399.123,429.598 C398.585,430.476,398.421,431.593,397.685,432.31 C396.72,433.25,395.82,434.107,394.958,435.145 C394.747,435.4,394.292,436.02,393.888,435.866 C392.601,435.372,393.474,431.796,392.969,430.677 C391.348,432.53,389.381,433.993,387.412,435.476 C386.767,435.962,385.381,436.843,384.94,435.626 C384.381,434.083,386.96,432.058,387.795,431.006 C390.049,428.168,394.488,423.62,393.249,419.639 C392.747,422.356,388.308,425.228,385.931,426.324 C385.209,426.656,383.588,427.674,382.803,427.098 C381.209,425.93,382.713,424.001,383.787,423.213 C384.803,422.468,385.976,421.93,386.93,421.106 C388.175,420.03,389.068,418.648,390.346,417.595 C391.537,416.613,393.208,415.051,392.784,413.318 C392.728,413.091,390.682,414.161,390.32,414.303 C388.906,414.859,386.995,415.221,385.504,414.96 C384.945,414.863,384.117,414.846,383.87,414.226 C383.661,413.704,384.385,413.353,384.732,413.125 C385.999,412.293,387.29,412.06,388.63,411.407 C390.313,410.586,392.941,408.735,393.829,407.079 C395.13,404.652,394.551,399.314,391.991,397.743 C390.113,396.591,388.871,398.839,388.129,400.124 C385.955,403.888,384.151,407.819,382.15,411.673 C381.582,412.768,379.121,416.384,377.931,413.735 C377.226,412.164,378.34,409.501,379.008,408.055 C380.418,405.005,381.132,401.61,382.47,398.505 C385.095,392.411,386.354,386.354,387.885,379.963 C388.523,377.301,389.719,374.75,390.242,372.058 C390.639,370.015,390.463,368.001,390.322,365.961 C390.095,362.681,388.904,359.656,388.084,356.453 C386.211,349.134,383.714,342.449,380.23,335.677 C376.506,328.438,371.614,321.902,368.453,314.289 C365.637,307.507,366.081,300.532,363.957,293.711 C362.818,290.053,360.844,286.759,359.258,283.281 C356.507,277.247,353.944,270.48,351.894,264.192 C349.793,257.75,349.795,249.775,345.89,244.082 C349.999,240.195,351.525,233.4,352.495,228.056 C354.388,217.618,356.525,207.152,357.588,196.561 C357.9,193.451,359.42,190.626,359.064,187.45 C358.944,186.376,356.796,182.533,357.374,181.787 C357.961,181.031,359.937,181.703,360.643,181.977 C366.834,184.379,369.306,189.721,371.132,195.483 C372.063,198.418,371.784,201.574,372.977,204.297 C375.325,209.657,375.521,215.459,375.997,221.162 C376.272,224.469,375.541,227.669,376.276,230.593 C376.681,232.206,377.121,233.806,377.294,235.451 C378.775,249.55,380.454,264.172,384.923,277.68 C388.792,289.377,393.027,300.834,396.542,312.653 C398.418,318.959,400.545,325.208,400.792,331.828 C401.127,340.83,403.637,349.698,403.767,358.673 C403.789,360.172,403.454,364.067,403.677,366.221 z"/>
      </g>
      <g id="am22">
        <path style="fill:#9e9e9e;fill-opacity:1;fill-rule:nonzero;opacity:1;stroke:none;" d="M291.987,139.597 C291.987,144.897,297.916,148.352,302.581,149.522 C304.819,150.084,307.296,150.336,309.32,149.007 C312.695,146.792,312.633,140.143,309.683,137.74 C307.833,136.232,305.333,136.301,303.065,136.201"/>
      </g>
    </g>
  </g>
  <g id="am23">
    <g id="am24">
      <path id="am25" style="fill:#c151c0;fill-opacity:1;fill-rule:nonzero;opacity:1;stroke:none;" d="M261.074,308.249 C259.847,309.664,260.821,311.477,259.327,313.163 C253.595,319.633,254.187,321.12,252.828,329.999 C252.3,333.45,252.068,337.919,250.172,344.38 C244.192,364.753,239.082,378.837,236.621,397.688 C235.639,405.205,235.173,414.492,235.801,422.055 C235.875,422.933,236.257,427.095,236.59,426.121 C238.605,420.224,237.539,422.559,238.219,421.496 C242.699,414.493,247.616,408.389,254.355,402.939 C258.865,399.291,266.364,400.789,271.875,400.406 C280.032,399.84,290.726,396.113,295.852,389.8 C301.084,383.357,301.357,374.384,301.729,366.631 C302.082,359.288,303.051,352.111,299.908,345.12 C297.497,339.759,292.262,336.126,289.253,331.02 C287.98,328.861,286.727,326.516,286.342,324.035 C285.961,321.572,286.556,318.498,285.245,316.257 C283.925,314.001,281.579,313.383,279.372,312.306 C273.953,309.661,267.173,308.249,261.074,308.249 z"/>
      <path id="am26" style="fill:#c151c0;fill-opacity:1;fill-rule:nonzero;opacity:1;stroke:none;" d="M321.134,314.907 C321.134,332.332,303.621,342.475,302.146,359.657 C301.046,372.475,304.562,393.303,319.259,398.114 C330.826,401.9,345.161,399.451,354.923,406.826 C360.379,410.946,363.132,419.569,366.11,425.425 C367.107,427.386,366.307,430.067,368.216,431.476 C368.488,420.613,369.803,410.847,368.599,400 C366.323,379.505,362.341,366.899,354.559,341.714 C352.483,334.994,351.347,324.954,347.06,314.476 C346.269,312.544,345.373,307.773,343.212,307.496 C341.249,307.244,335.871,310.838,333.024,311.9 C328.419,313.616,325.406,314.027,321.134,314.907 z"/>
    </g>
  </g>
  <g id="am27">
    <g id="am28" style="opacity:0.5;">
      <path id="am29" style="fill:#4f35c0;fill-opacity:1;fill-rule:nonzero;opacity:1;stroke:none;" d="M258.06,178.354 C255.811,179.244,252.68,179.184,250.152,180.038 C246.236,181.361,242.919,183.708,240.006,186.117 C236.205,189.26,234.25,193.07,233.462,197.569 C232.468,203.245,230.324,209.19,229.473,214.522 C228.721,219.229,228.395,223.007,228.497,227.793 C228.51,228.424,228.322,231.445,228.824,231.918 C228.914,232.002,228.943,231.716,229.122,231.512 C229.565,231.007,229.591,230.99,229.815,230.69 C230.607,229.628,230.873,229.25,230.911,229.193 C232.063,227.437,232.4,227.192,233.659,225.511 C235.902,222.517,240.401,221.968,243.616,220.27 C247.952,217.981,251.689,215.515,255.093,211.521 C258.261,207.806,261.41,204.563,264.756,201.009 C267.192,198.422,270.297,195.618,272.862,193.145 C275.1,190.987,276.635,188.662,278.254,186.074 C278.965,184.937,279.645,183.201,278.727,181.958 C277.682,180.542,274.329,179.814,272.68,179.596 C267.599,178.924,262.812,176.474,258.06,178.354 z"/>
      <path id="am30" style="fill:#4f35c0;fill-opacity:1;fill-rule:nonzero;opacity:1;stroke:none;" d="M364.876,222.161 C362.04,220.808,360.112,218.705,357.662,216.799 C356.099,215.583,354.914,214.363,353.485,213.198 C352.708,212.565,351.62,212.127,350.908,211.305 C350.278,210.577,349.792,209.177,349.263,208.375 C348.595,207.365,347.197,206.746,346.469,205.789 C346.365,205.652,346.702,206.029,346.145,205.388 C344.548,203.553,343.444,201.781,341.809,200.304 C339.68,198.381,337.431,196.323,335.453,194.045 C333.908,192.266,331.815,190.654,330.224,188.659 C329.835,188.172,330.08,186.464,330.013,186.043 C329.981,185.839,330.014,185.831,329.865,185.563 C329.822,185.487,329.676,185.217,329.545,185.168 C329.444,185.129,329.58,184.801,329.723,184.661 C330.488,183.912,330.922,183.501,331.682,182.733 C332.19,182.219,332.675,181.58,333.486,181.096 C335.342,179.989,337.49,179.253,339.141,178.786 C340.449,178.417,340.595,178.515,341.479,178.512 C341.704,178.512,342.016,178.588,342.361,178.55 C343.251,178.454,344.869,178.551,345.745,178.626 C347.477,178.773,348.692,178.96,350.056,179.447 C351.643,180.014,353.474,180.143,354.995,180.445 C357.369,180.915,359.39,181.315,361.848,182.504 C363.226,183.17,365.02,184.673,366.218,185.806 C369.743,189.139,371.332,197.012,372.274,201.503 C373.017,205.048,374.597,208.422,375.242,211.965 C376.074,216.54,375.964,221.402,375.964,226.04 C375.964,228.009,375.816,229.071,376.373,230.851 C376.589,231.831,376.406,231.097,376.276,230.593 C375.973,229.422,375.457,227.979,374.821,226.484 C374.531,225.805,373.918,224.781,373.336,224.298 C371.265,222.58,366.963,223.156,364.876,222.161 z"/>
    </g>
  </g>
  <g id="am31">
    <g id="am32" style="opacity:0.5;">
      <path id="am33" style="fill:#e187c0;fill-opacity:1;fill-rule:nonzero;opacity:1;stroke:none;" d="M237.832,313.118 C238.894,310.31,239.926,307.369,240.38,304.595 C241.179,299.706,241.281,295.539,243.28,290.849 C245.497,285.647,248.004,279.53,250.318,274.339 C253.43,267.358,256.197,260.322,257.276,252.787 C257.908,248.378,258.322,244.126,258.585,239.682 C258.93,233.854,257.909,227.765,257.741,221.921 C257.663,219.204,257.035,216.726,256.636,214.064 C256.531,213.365,256.914,209.432,258.032,208.243 C258.47,207.777,254.993,211.568,254.782,211.881 C253.447,213.87,251.793,215.051,249.805,216.429 C247.656,217.919,245.31,219.532,242.908,220.602 C240.295,221.765,237.474,222.378,235.185,224.131 C232.165,226.443,231.337,229.218,228.763,231.898 C228.825,238.698,227.25,245.192,226.302,252.156 C225.411,258.708,224.456,265.006,222.801,271.5 C220.514,280.473,217.201,286.863,214.077,295.499 C212.957,298.595,211.433,302.994,211.172,306.287 C210.995,308.519,209.457,311.39,208.953,313.585 C208.351,316.205,207.789,319.317,207.007,321.905 C205.242,327.75,203.345,343.166,202.963,349.238 C202.464,357.171,202.471,358.974,201.793,366.096 C201.294,371.339,204.852,374.65,210.891,375.351 C215.083,375.838,213.307,368.484,214.006,365.849 C214.091,365.529,213.765,362.581,213.848,362.26 C214.985,357.822,216.49,354.465,218.12,350.237 C219.108,347.674,220.358,344.153,221.215,341.58 C221.992,339.245,224.087,335.91,225.278,333.758 C228.314,328.272,230.796,326.599,233.645,321.009 C234.314,319.697,234.701,319.031,235.52,317.803 C235.827,317.342,236.216,316.526,236.456,316.018 C237.395,314.03,237.266,315.923,237.192,315.57 C237.023,314.759,237.542,313.885,237.832,313.118 z"/>
      <path id="am34" style="fill:#e187c0;fill-opacity:1;fill-rule:nonzero;opacity:1;stroke:none;" d="M348.941,215.799 C349.418,214.806,350.908,211.305,351.565,211.755 C353.784,213.277,355.29,214.806,357.264,216.466 C359.788,218.589,362.491,220.631,365.403,222.216 C368.005,223.633,371.4,222.391,373.657,224.58 C374.853,225.741,375.479,228.547,376.15,230.019 C376.695,231.215,376.617,233.105,377.134,234.312 C378.182,236.754,377.542,238.842,377.882,241.478 C378.54,246.57,379.426,250.272,379.865,256.025 C380.155,259.834,381.914,266.203,382.675,269.93 C384.74,280.043,389.006,287.361,391.622,297.347 C393.003,302.617,396.519,309.611,397.211,314.878 C397.569,317.602,398.312,319.699,399.302,322.22 C399.744,323.345,399.703,323.939,399.96,325.127 C400.19,326.193,400.26,327.376,400.507,328.434 C400.791,329.646,400.757,330.617,400.792,331.828 C400.827,333.061,400.634,337.149,401.434,338.977 C402.18,340.681,401.127,336.394,401.754,341.286 C402.188,344.668,403.25,350.435,403.177,354.557 C403.16,355.505,403.654,356.36,403.706,357.306 C404.017,362.903,405.001,372.402,397.889,374.693 C396.773,375.052,395.725,374.475,394.622,374.504 C393.205,374.541,391.472,375.708,390.45,374.031 C389.423,372.346,391.283,369.651,392.643,368.41 C393.474,367.652,389.546,374.696,390.422,370.775 C391.472,366.076,390.034,363.761,389.799,362.647 C389.307,360.308,388.782,358.891,388.084,356.453 C387.008,352.693,385.768,347.875,384.176,344.348 C383.461,342.762,381.987,339.214,381.216,337.645 C377.057,329.183,370.941,321.349,367.775,312.475 C366.221,308.121,365.692,304.062,365.269,299.494 C365.085,297.503,364.414,294.684,363.652,292.796 C357.591,277.776,349.607,261.96,348.103,245.961 C346.56,229.543,347.081,232.001,346.573,224.256 C346.276,219.725,347.101,219.627,348.941,215.799 z"/>
    </g>
  </g>
  <g id="am35">
    <path id="am36" style="fill:#ac6afa;fill-opacity:1;fill-rule:nonzero;opacity:0.5;stroke:none;" d="M277.946,181.161 C277.226,180.694,275.896,180.353,275.044,180.185 C273.842,179.949,273.81,179.973,273.144,179.863 C272.791,179.805,271.928,179.485,271.35,179.559 C270.993,179.605,269.367,179.363,268.998,179.299 C268.5,179.211,268.093,178.771,267.56,178.717 C266.008,178.559,264.557,177.717,262.955,177.825 C262.193,177.876,261.462,178.076,260.696,178.098 C260.589,178.101,259.444,178.052,259.404,177.933 C259.35,177.778,260.713,177.105,260.783,176.995 C261.652,175.644,263.585,174.771,265.034,173.916 C266.181,173.239,268.541,172.453,269.839,172.078 C273.405,171.048,275.03,170.221,278.361,168.562 C280.087,167.702,281.896,166.906,283.292,165.598 C284.925,164.069,285.927,162.681,286.908,160.673 C287.483,159.495,288.367,157.644,288.577,156.339 C288.92,154.205,289.011,152.872,289.378,150.745 C289.623,149.33,289.234,147.536,289.13,146.082 C289.097,145.615,288.033,142.966,288.435,142.591 C288.614,142.423,289.171,143.254,290.048,143.901 C290.9,144.53,292.074,144.972,292.257,145.082 C293.991,146.122,299.02,147.617,300.146,147.683 C304.789,147.951,305.226,148.434,309.286,147.3 C310.422,146.983,313.221,146.528,314.796,145.155 C315.129,144.865,316.923,142.253,317.263,142.388 C317.634,142.534,317.06,143.376,317.05,143.665 C317.026,144.364,316.933,145.049,316.838,145.734 C316.627,147.253,316.785,148.777,316.854,150.315 C316.965,152.797,316.623,156.185,317.557,158.55 C318.56,161.092,320.107,163.356,322.048,165.28 C322.483,165.712,323.358,166.132,323.789,166.582 C324.809,167.647,325.795,167.576,326.875,168.606 C327.483,169.186,328.577,169.667,329.369,169.972 C330.641,170.463,331.656,170.978,332.944,171.421 C334.727,172.034,336.646,172.493,338.305,173.142 C338.759,173.32,339.312,173.344,339.563,173.6 C340.018,174.062,340.569,174.392,341.3,174.642 C342.551,175.071,343.617,176.058,344.746,176.719 C345.504,177.163,346.419,178.028,347.266,178.269 C348.278,178.557,347.959,178.465,348.843,179.022 C347.858,179.856,347.973,178.85,346.868,178.716 C345.341,178.53,343.591,178.633,342.021,178.531 C338.72,178.317,335.952,179.946,333.131,181.263 C333.191,181.304,333.136,181.4,332.866,181.585 C332.863,181.512,329.485,184.97,329.482,184.897 C330.452,185.059,329.715,187.809,330.185,188.508 C331.353,190.246,334.097,192.436,335.453,194.045 C337.263,196.192,338.58,197.436,340.736,199.31 C342.974,201.256,344.969,203.822,346.953,206.02 C348.357,207.576,350.525,209.133,350.908,211.305 C351.173,212.805,348.875,215.661,348.216,217.06 C346.704,220.267,346.496,223.779,346.496,227.226 C346.496,234.537,350.929,256.659,346.514,246.17 C345.147,242.923,344.145,255.682,343.602,258.44 C342.175,265.686,338.959,275.571,338.665,283.031 C338.448,288.544,339.208,296.478,341.387,300.466 C342.998,303.416,342.595,306.395,344.293,308.796 C344.044,308.58,344.979,308.425,344.628,308.272 C342.805,307.48,341.281,307.543,339.791,308.638 C339.434,308.901,338.044,309.349,337.76,309.563 C335.324,311.398,333.112,311.995,330.149,312.873 C328.192,313.453,326.45,313.917,324.397,314.258 C323.879,314.344,321.465,314.464,321.134,314.907 C320.504,315.749,321,318.148,320.773,319.212 C320.129,322.233,319.074,325.507,317.672,328.306 C313.84,335.95,309.024,342.792,305.288,350.522 C304.223,352.725,302.892,356.14,302.138,358.391 C301.059,354.205,301.602,348.402,299.518,344.315 C296.631,338.651,292.272,336.603,289.253,331.02 C288.114,328.914,286.672,326.374,286.342,324.035 C286.056,321.999,286.327,318.131,285.245,316.257 C284.107,314.287,282.35,313.702,280.443,312.615 C274.993,309.507,267.411,307.962,261.074,308.249 C261.076,306.368,262.456,304.385,263.334,302.75 C264.592,300.407,266.392,298.03,266.483,295.381 C266.701,289.025,267.248,280.522,266.01,274.267 C264.959,268.95,262.114,264.012,261.605,258.638 C261.126,253.582,261.991,249.266,258.656,246.17 C258.313,245.852,258.704,242.553,258.656,242.111 C258.218,238.074,258.604,235.085,258.372,231.015 C258.085,226.01,257.924,221.744,257.102,216.79 C256.801,214.973,256.256,212.018,256.912,210.231 C257.959,207.376,263.004,202.743,265.121,200.651 C270.197,195.636,276.186,190.909,279.101,184.373 C279.115,184.564,279.128,184.755,279.138,184.948 C279.241,183.402,279.205,181.977,277.946,181.161 z"/>
  </g>
  <g id="am37">
    <path id="am38" style="fill:#fbc621;fill-opacity:1;fill-rule:nonzero;opacity:1;stroke:none;" d="M287.928,615.719 C288.009,615.245,288.088,614.772,288.148,614.301 C288.6,610.709,288.763,607.23,289.787,603.713 C291.137,599.072,293.292,594.388,293.862,589.555 C294.758,581.956,293.53,574.093,292.273,566.594 C292.159,565.911,291.833,565.293,291.781,564.607 C291.687,563.363,291.307,562.091,290.94,560.954 C290.895,560.815,290.821,560.671,290.795,560.578 C290.609,559.905,290.512,559.217,290.331,558.544 C289.647,556.003,289.269,553.32,288.736,550.745 C288.167,547.996,287.538,545.014,287.505,542.194 C287.478,539.963,288.091,537.774,288.265,535.556 C288.507,532.496,288.162,529.429,287.973,526.38 C287.887,524.985,287.799,523.57,287.838,522.174 C287.865,521.191,287.588,520.193,287.632,519.202 C287.744,516.691,288.342,514.188,289.28,511.841 C289.62,510.991,289.975,510.227,290.317,509.379 C291.027,507.616,291.532,505.722,292.242,503.956 C292.85,502.443,293.219,500.313,293.753,498.732 C293.889,498.329,293.922,497.812,293.97,497.522 C294.227,495.978,294.501,494.495,294.564,492.914 C294.732,488.631,294.387,484.456,293.737,480.217 C293.391,477.965,292.41,475.778,292.495,473.51 C292.498,473.43,292.492,473.349,292.494,473.294 C292.513,472.884,292.492,472.478,292.54,472.068 C292.67,470.963,292.903,469.87,293.063,468.767 C293.136,468.263,293.124,467.747,293.224,467.249 C293.49,465.929,293.651,464.592,293.944,463.276 C294.184,462.201,294.527,461.147,294.751,460.067 C294.899,459.345,294.926,458.61,295.097,457.893 C295.968,454.244,296.448,450.483,297.109,446.782 C297.234,446.083,297.323,445.358,297.357,444.656 C297.372,444.332,297.495,444.021,297.53,443.7 C297.583,443.204,297.558,442.703,297.611,442.209 C297.724,441.161,297.886,440.158,297.97,439.107 C298.039,438.249,298.02,437.34,298.177,436.496 C298.246,436.126,298.275,435.746,298.294,435.389 C298.352,434.317,298.483,433.122,298.57,432.049 C298.696,430.476,298.838,428.945,299.026,427.38 C299.236,425.628,299.371,423.866,299.636,422.122 C299.715,421.598,299.776,421.07,299.842,420.549 C300.29,417.007,300.552,413.388,300.69,409.824 C300.725,408.932,300.639,408.034,300.664,407.142 C300.685,406.415,300.581,405.702,300.599,404.969 C300.617,404.227,300.474,403.455,300.422,402.741 C300.333,401.529,300.228,400.303,300.085,399.098 C299.956,398.013,299.697,396.949,299.579,395.864 C299.52,395.319,299.336,394.793,299.262,394.252 C299.027,392.53,298.721,390.826,298.361,389.126 C298.209,388.409,298.06,387.695,297.947,386.976 C297.935,386.9,297.914,386.83,297.881,386.773 C297.498,387.638,296.965,388.41,296.415,389.173 C295.343,390.661,294.066,392.053,292.477,393.011 C292.298,393.119,292.123,393.301,292,393.384 C291.212,393.913,290.385,394.443,289.622,395.006 C288.969,395.488,288.083,395.765,287.353,396.127 C285.348,397.121,283.328,398.415,281.155,398.705 C281.028,398.722,280.881,398.768,280.821,398.785 C280.315,398.932,279.813,399.076,279.301,399.206 C277.304,399.712,275.19,400.202,273.132,400.382 C269.3,400.716,265.427,400.207,261.588,400.559 C259.838,400.719,258.107,400.925,256.474,401.656 C255.066,402.285,253.946,403.408,252.8,404.404 C251.9,405.186,250.954,405.861,250.109,406.679 C249.365,407.4,248.598,408.176,247.889,408.99 C242.936,414.667,235.474,418.482,236.437,425.585 C236.456,425.724,236.519,425.868,236.486,426.007 C236.466,426.093,236.454,426.18,236.439,426.265 C236.36,426.02,236.262,425.788,236.213,425.534 C236.16,425.262,236.137,424.971,236.055,424.706 C236.081,424.869,236.062,425.04,236.081,425.204 C236.171,425.969,236.329,426.74,236.362,427.503 C236.407,428.558,236.675,429.602,236.759,430.674 C236.863,432.008,237.105,433.298,237.279,434.621 C237.417,435.666,237.476,436.715,237.668,437.752 C237.767,438.282,237.868,438.869,237.982,439.395 C238.113,439.995,238.151,440.424,238.243,441.031 C238.373,441.884,238.542,442.723,238.656,443.579 C240.201,455.163,242.262,467.687,245.061,475.975 C245.068,475.997,245.092,476.014,245.092,476.038 C245.102,476.358,245.213,476.639,245.301,476.94 C245.396,477.266,245.463,477.601,245.557,477.926 C245.736,478.544,245.859,479.181,246.07,479.789 C246.279,480.395,246.559,481.11,246.828,481.686 C246.991,482.035,247.159,482.24,247.279,482.604 C248.031,484.887,248.37,485.986,248.508,486.516 C249.3,489.563,248.824,492.267,249.275,494.577 C249.842,497.481,251.506,502.083,252.185,505.246 C253.06,509.314,252.978,511.616,253.52,515.167 C254.556,521.965,254.405,528.904,254.219,535.811 C253.948,545.846,250.456,553.988,250.899,564.036 C251.595,579.813,252.75,598.543,255.814,613.087 C257.6,621.559,258.517,625.798,260.006,631.151 C260.718,633.711,261.934,636.342,262.737,640.156 C263.536,642.869,264.782,646.984,265.265,648.805 C265.519,649.762,265.967,651.033,266.165,651.974 C266.715,654.586,267.655,657.292,268.535,659.812 C269.359,662.171,270.379,664.523,271.072,666.921 C272.082,670.414,272.701,674.207,273.426,677.784 C274.687,684.006,276.538,690.764,280.575,695.932 C280.623,695.994,280.671,696.055,280.72,696.115 C281.851,697.511,284.401,699.853,286.415,699.327 C288.882,698.682,290.318,696.017,291.238,693.839 C292.22,691.516,293.373,689.486,293.581,686.897 C293.842,683.661,292.797,680.469,292.207,677.336 C289.429,662.559,287.888,647.807,287.287,632.76 C287.274,632.445,287.265,632.13,287.257,631.815 C287.224,630.438,287.396,628.963,287.455,627.578 C287.621,623.619,287.254,619.628,287.928,615.719 z"/>
    <path id="am39" style="fill:#fbc621;fill-opacity:1;fill-rule:nonzero;opacity:1;stroke:none;" d="M312.174,590.512 C312.124,590.193,312.08,589.875,312.042,589.555 C311.158,581.956,312.37,574.093,313.611,566.594 C313.724,565.91,314.045,565.293,314.096,564.607 C314.189,563.363,314.564,562.091,314.927,560.954 C314.971,560.815,315.044,560.67,315.069,560.578 C315.253,559.905,315.349,559.217,315.527,558.544 C316.202,556.003,316.576,553.32,317.102,550.745 C317.603,548.289,318.152,545.649,318.287,543.104 C318.323,542.433,318.165,541.743,318.047,541.074 C317.45,537.686,317.156,535.017,316.973,531.949 C316.875,530.302,317.033,528.673,317.073,527.033 C317.12,525.104,316.994,523.16,316.971,521.23 C316.969,521.033,316.986,520.834,317.009,520.634 C317.18,519.133,316.519,517.521,316.174,515.998 C315.66,513.727,315.248,511.55,314.511,509.392 C314.351,508.923,314.193,508.452,314.042,507.978 C313.543,506.412,313.183,504.804,312.73,503.225 C312.25,501.555,311.988,499.971,311.547,498.272 C310.662,494.86,310.173,491.365,310.388,487.745 C310.562,484.823,311.73,482.081,312.348,479.245 C312.765,477.331,313.464,475.45,313.392,473.51 C313.389,473.43,313.395,473.349,313.393,473.294 C313.374,472.884,313.395,472.478,313.347,472.068 C313.227,471.035,313.019,470.012,312.863,468.982 C312.647,467.557,312.153,466.174,311.802,464.761 C311.171,462.224,310.389,459.714,309.851,457.148 C309.445,455.205,309.29,453.193,308.943,451.235 C308.71,449.92,308.32,448.606,308.136,447.288 C307.387,441.916,307.344,436.416,306.053,431.151 C305.475,428.791,304.943,426.422,304.661,424.018 C304.38,421.621,304.599,419.096,304.656,416.691 C304.753,412.534,305.152,408.576,305.405,404.411 C305.44,403.847,305.529,403.277,305.568,402.741 C305.656,401.529,305.759,400.303,305.9,399.098 C306.028,398.013,306.283,396.949,306.4,395.864 C306.458,395.319,306.639,394.793,306.712,394.251 C306.945,392.53,307.246,390.826,307.602,389.126 C307.752,388.409,307.899,387.695,308.011,386.976 C308.023,386.9,308.043,386.83,308.076,386.773 C308.454,387.637,308.98,388.41,309.523,389.173 C310.581,390.661,311.841,392.053,313.409,393.011 C313.586,393.119,313.759,393.301,313.88,393.384 C314.658,393.913,315.475,394.443,316.227,395.006 C316.872,395.488,317.747,395.765,318.467,396.127 C320.446,397.121,322.44,398.415,324.584,398.705 C324.71,398.722,324.855,398.768,324.914,398.785 C325.413,398.932,325.909,399.076,326.414,399.206 C328.386,399.712,330.472,400.202,332.503,400.382 C336.286,400.716,340.108,400.207,343.897,400.559 C345.625,400.719,347.333,400.925,348.945,401.655 C350.334,402.285,351.44,403.408,352.571,404.404 C353.46,405.186,354.393,405.861,355.227,406.679 C355.962,407.4,356.718,408.176,357.419,408.99 C362.307,414.667,369.672,418.482,368.722,425.585 C368.703,425.724,368.641,425.868,368.673,426.007 C368.693,426.093,368.705,426.18,368.72,426.265 C368.797,426.02,368.894,425.788,368.943,425.534 C368.995,425.262,369.017,424.971,369.099,424.706 C369.073,424.869,369.091,425.04,369.072,425.204 C368.985,425.969,368.828,426.739,368.796,427.503 C368.751,428.558,368.487,429.602,368.404,430.674 C368.301,432.008,368.062,433.298,367.89,434.621 C367.754,435.666,367.696,436.714,367.506,437.752 C367.409,438.282,367.309,438.869,367.196,439.395 C367.067,439.995,367.03,440.424,366.939,441.031 C366.811,441.884,366.644,442.723,366.531,443.579 C365.598,450.672,362.958,458.361,362.3,464.932 C362.028,467.652,361.237,469.861,361.288,472.274 C361.299,472.78,361.19,473.245,361.152,473.744 C361.107,474.336,361.137,474.958,360.986,475.535 C360.737,476.49,360.27,477.361,359.827,478.234 C359.66,478.563,359.476,478.887,359.382,479.235 C359.331,479.421,359.276,479.607,359.214,479.789 C359.007,480.395,358.731,481.11,358.465,481.686 C358.305,482.035,358.139,482.24,358.02,482.604 C357.278,484.887,357.296,486.572,357.27,487.119 C357.104,490.59,357.244,492.582,356.799,494.892 C356.24,497.796,354.78,502.898,354.109,506.062 C353.246,510.129,352.395,511.616,351.861,515.167 C351.128,520.034,350.807,527.585,351.583,534.091 C351.863,536.437,352.121,538.813,352.488,541.149 C352.927,543.945,353.518,546.696,353.89,549.506 C354.052,550.722,354.36,551.918,354.498,553.139 C354.749,555.362,354.373,557.854,354.462,560.036 C354.511,561.243,354.511,562.561,354.447,564.036 C354.353,566.203,354.382,568.449,354.141,570.719 C353.942,572.599,353.991,574.157,353.821,576.367 C353.781,576.881,353.792,577.321,353.812,577.817 C353.869,579.216,353.801,580.569,353.775,581.966 C353.76,582.8,353.897,583.628,353.863,584.467 C353.748,587.33,353.37,590.119,352.815,592.928 C352.595,594.041,352.3,595.164,352.175,596.28 C351.511,602.198,350.673,607.908,349.596,613.087 C347.834,621.559,346.928,625.798,345.459,631.151 C344.756,633.711,343.555,636.342,342.763,640.156 C341.974,642.869,340.744,646.984,340.268,648.805 C340.017,649.762,339.575,651.033,339.38,651.974 C338.837,654.586,337.909,657.292,337.04,659.812 C336.227,662.17,335.221,664.523,334.536,666.921 C333.54,670.414,332.929,674.207,332.213,677.784 C330.968,684.006,329.141,690.764,325.157,695.932 C325.11,695.994,325.062,696.055,325.013,696.115 C323.897,697.511,321.38,699.853,319.393,699.327 C316.958,698.682,315.541,696.017,314.632,693.839 C313.663,691.516,312.525,689.486,312.319,686.897 C312.062,683.661,313.094,680.469,313.676,677.335 C316.418,662.559,317.324,648.477,317.918,633.43 C317.93,633.115,317.884,631.645,317.891,631.33 C317.924,629.953,317.844,628.244,317.786,626.859 C317.622,622.9,317.746,619.989,317.9,615.719 C317.917,615.239,317.741,614.772,317.683,614.301 C317.236,610.709,317.075,607.23,316.065,603.713 C315.887,603.094,315.695,602.473,315.494,601.852 C315.339,601.371,315.012,600.96,314.781,600.505 C314.319,599.595,313.931,598.592,313.6,597.627 C313.458,597.213,313.411,596.765,313.293,596.344 C313.088,595.612,312.845,594.898,312.676,594.155 C312.586,593.759,312.57,593.354,312.504,592.955 C312.369,592.137,312.304,591.336,312.174,590.512 z"/>
  </g>
</svg>
