<?xml version="1.0" encoding="utf-8"?>
<svg viewBox="0 0 600 800" xmlns="http://www.w3.org/2000/svg" xmlns:xlink="http://www.w3.org/1999/xlink">
  <!--Generated by AMDN-->
  <g id="am1">
    <g id="am2" style="opacity:0.7;">
      <g id="am4">
        <path style="fill:#9e9e9e;fill-opacity:1;fill-rule:nonzero;opacity:1;stroke:none;" d="M288.506,142.906 C290.205,149.501,289.595,157.294,285.494,162.964 C284.31,164.601,282.606,166.667,280.653,167.463 C278.31,168.419,276.238,169.896,273.886,170.791 C270.651,172.024,267.089,172.529,264.165,174.433 C262.95,175.225,261.473,176.013,260.625,177.204 C260.332,177.615,259.936,178.38,260.438,178.789 C261.185,179.397,263.076,179.195,264.041,179.489 C268.662,180.895,274.276,180.864,279.088,180.916 C287.554,181.008,295.989,181.546,304.466,181.494 C310.298,181.459,316.126,180.817,321.947,180.588 C326.639,180.404,331.08,179.213,335.323,177.292 C336.947,176.556,338.874,175.913,339.918,174.398 C340.356,173.763,339.24,173.455,338.779,173.301 C337.079,172.736,335.441,172.123,333.715,171.648 C329.757,170.56,326.233,168.361,322.959,165.989 C316.762,161.499,316.334,155.02,316.822,148.072 C316.993,145.632,316.675,143.251,317.685,140.919 C316.984,141.392,316.647,142.442,316.087,143.078 C314.925,144.395,313.228,145.692,311.681,146.555 C303.874,150.906,295.24,147.431,288.506,142.906 z"/>
      </g>
      <g id="am6">
        <path style="fill:#9e9e9e;fill-opacity:1;fill-rule:nonzero;opacity:1;stroke:none;" d="M299.093,73.3278 C291.768,75.5493,282.674,80.6124,279.147,87.5914 C277.447,90.9575,278.025,94.839,277.855,98.4365 C277.402,108.005,277.247,119.197,280.722,128.277 C283.198,134.745,286.964,143.34,293.573,146.795 C295.67,147.891,298.41,148.089,300.728,148.489 C302.034,148.714,302.924,149.624,304.357,149.549 C305.555,149.486,306.351,148.402,307.463,148.039 C309.634,147.329,312.118,146.747,313.989,145.397 C320.1,140.99,321.692,133.653,324.332,127.296 C327.803,118.939,328.003,110.232,328.672,101.384 C328.977,97.3435,329.721,92.4647,328.216,88.5699 C323.816,77.1819,310.092,69.9921,299.093,73.3278 z"/>
      </g>
      <g id="am8">
        <path style="fill:#9e9e9e;fill-opacity:1;fill-rule:nonzero;opacity:1;stroke:none;" d="M263.79,174.467 C260.251,178.665,255.896,178.414,250.974,179.787 C248.048,180.603,245.148,182.273,242.693,183.988 C239.422,186.274,235.712,190.262,234.34,193.998 C233.456,196.403,233.348,199.167,232.626,201.642 C230.677,208.323,228.842,215.416,228.624,222.405 C228.523,225.637,228.375,228.74,228.72,231.973 C228.86,233.283,229.153,235.049,230.361,235.882 C231.008,236.328,232.632,236.602,233.287,236.094 C234.384,235.243,235.078,233.596,236.252,232.898 C239.195,231.15,242.496,230.489,245.874,229.85 C249.182,229.225,252.818,228.876,255.953,227.61 C261.341,225.433,265.975,221.607,270.706,218.382 C284.565,208.937,296.959,196.097,303.701,180.832"/>
      </g>
      <g id="am10">
        <path style="fill:#9e9e9e;fill-opacity:1;fill-rule:nonzero;opacity:1;stroke:none;" d="M229.465,230.068 C229.465,234.624,227.967,238.788,227.384,243.293 C226.229,252.209,225.464,261.396,223.166,270.157 C220.64,279.786,216.18,288.912,213.113,298.333 C211.551,303.13,211.014,308.022,209.708,312.857 C207.694,320.313,204.931,326.975,204.29,334.767 C203.596,343.218,202.464,351.609,202.464,360.112 C202.464,364,203.646,368.317,208.246,369.162 C210.865,369.643,213.055,364.063,213.848,362.26 C217.432,354.105,218.955,345.361,223.186,337.398 C227.653,328.991,234.212,321.813,237.842,312.984 C240.878,305.6,240.435,297.12,243.575,289.748 C249.602,275.596,257.371,260.963,258.162,245.324 C258.511,238.424,254.506,232.696,254.051,226.068"/>
      </g>
      <g id="am12">
        <path style="fill:#9e9e9e;fill-opacity:1;fill-rule:nonzero;opacity:1;stroke:none;" d="M202.891,354.962 C202.715,357.68,202.226,360.378,201.994,363.096 C201.572,368.044,201.683,373.046,201.027,377.99 C199.951,386.094,198.718,393.829,199.066,402.051 C199.268,406.819,201.51,411.366,202.135,416.141 C202.851,421.613,204.594,427.375,207.763,432.059 C208.497,433.145,210.182,435.976,211.624,436.086 C213.055,436.196,212.283,433.368,212.211,432.641 C212.178,432.308,212.041,431.383,212.637,431.489 C213.359,431.617,213.824,432.758,214.279,433.24 C215.33,434.353,217.864,436.256,219.55,435.902 C221.092,435.578,219.415,432.582,218.955,431.929 C218.254,430.931,217.043,430.463,216.365,429.521 C215.938,428.928,215.884,428.074,215.507,427.431 C214.705,426.064,213.79,425.162,213.105,423.664 C212.721,422.822,211.524,421.427,211.972,420.428 C212.288,419.723,213.952,422.047,214.236,422.288 C216.22,423.971,217.227,426.114,219.898,426.814 C220.497,426.97,222.248,427.193,222.609,426.57 C223.569,424.912,221.937,423.016,220.849,421.969 C218.547,419.754,214.278,417.378,213.427,414.116 C213.213,413.295,215.618,415.018,215.986,415.224 C217.366,415.996,220.354,417.083,220.654,414.564 C221.043,411.298,216.716,411.873,214.854,410.824 C213.981,410.333,212.602,409.62,211.958,408.868 C210.035,406.623,210.902,403.249,211.709,400.788 C212.094,399.612,212.069,398.528,213.075,397.626 C214.559,396.297,215.884,398.333,216.375,399.537 C218.097,403.757,219.999,407.687,222.223,411.742 C222.783,412.765,225.534,416.117,226.499,413.633 C227.273,411.638,225.786,408.861,225.201,406.991 C224.309,404.14,223.785,401.202,222.879,398.35 C222.293,396.505,221.156,394.729,220.441,392.93 C218.779,388.752,218.956,384.067,218.071,379.708 C217.502,376.903,215.883,374.341,215.034,371.632 C213.474,366.65,213.745,361.518,215.109,356.555"/>
      </g>
      <g id="am14">
        <path style="fill:#9e9e9e;fill-opacity:1;fill-rule:nonzero;opacity:1;stroke:none;" d="M257.593,245.9 C262.227,248.034,260.803,253.43,261.216,257.788 C261.609,261.94,263.399,266.18,264.551,270.175 C266.632,277.4,268.246,287.974,266.483,295.381 C265.327,300.236,261.254,305.077,260.726,310.114 C260.403,313.202,256.458,315.531,255.249,319.083 C252.304,327.735,252.56,337.298,249.869,346.118 C243.664,366.459,236.755,386.99,235.576,408.36 C234.857,421.397,237.198,434.585,239.281,447.406 C240.588,455.458,242.678,463.321,244.157,471.336 C244.812,474.884,245.547,479.342,247.376,482.832 C249.248,486.402,248.504,490.955,249.364,495.031 C250.516,500.487,253.038,506.238,253.323,511.802 C253.765,520.439,254.868,530.03,254.004,538.626 C253.304,545.592,251.06,552.428,250.928,559.472 C250.605,576.689,252.781,593.455,255.381,610.405 C256.445,617.336,258.002,624.716,260.162,631.657 C263.248,641.577,266.077,651.753,269.041,661.763 C269.702,663.997,270.728,666.154,271.275,668.413 C272.626,673.989,274.354,680.362,274.318,686.108 C274.293,690.084,274.26,694.079,274.156,698.063 C274.098,700.292,273.98,703.49,273.162,705.568 C272.727,706.673,271.594,707.419,270.921,708.358 C270.498,708.948,270.438,709.749,270.041,710.374 C269.367,711.434,268.336,712.241,267.564,713.227 C266.803,714.199,266.379,715.401,265.57,716.401 C264.531,717.685,262.987,718.215,262.062,719.645 C261.071,721.177,256.839,726.434,260.974,727.241 C263.761,727.785,266.561,726.714,269.314,726.822 C270.978,726.888,272.613,727.476,274.287,727.59 C278.311,727.864,282.484,727.857,286.509,727.647 C288.802,727.528,292.63,728.241,294.471,726.562 C299.879,721.628,295.822,713.084,296.363,707.023 C296.754,702.635,298.191,698.657,297.68,694.19 C297.425,691.964,296.475,690.163,295.769,688.084 C294.802,685.237,294.029,682.306,293.233,679.411 C289.809,666.963,289.21,653.625,287.77,640.885 C287.549,638.934,287.021,636.776,287.114,635.424 C287.74,626.339,287.632,617.156,288.631,608.13 C288.992,604.865,290.49,602.031,291.514,598.955 C293.125,594.115,294.246,588.697,294.177,583.593 C293.996,570.161,289.602,557.493,287.683,544.307 C287.238,541.253,288.263,538.061,288.283,535.01 C288.322,529.255,287.704,523.475,287.735,517.782 C287.75,514.903,289.376,511.717,290.439,509.078 C291.855,505.565,293.083,501.679,293.945,497.997 C295.604,490.908,294.403,483.058,292.915,476.075 C292.68,474.974,292.375,473.881,292.509,472.756 C293.143,467.442,294.213,462.062,295.406,456.781 C297.218,448.765,297.874,440.527,298.543,432.366 C299.175,424.668,300.551,417.137,300.7,409.37 C300.854,401.377,299.154,392.262,297.367,384.335 C301.374,385.795,304.983,385.565,309.099,383.711 C305.973,396.63,304.124,409.943,304.686,422.894 C304.844,426.537,305.936,430.036,306.397,433.623 C307.467,441.955,308.726,450.281,310.179,458.551 C310.922,462.778,312.426,467.281,312.917,471.617 C313.626,477.869,310.069,484.164,310.38,490.578 C310.824,499.765,314.466,508.089,316.398,516.994 C317.427,521.74,316.704,526.951,316.829,531.777 C316.95,536.439,318.332,541.203,318.291,545.808 C318.263,548.906,317.079,551.393,316.553,554.336 C315.005,562.997,312.398,571.181,311.695,580.012 C311.553,581.804,311.808,583.605,311.802,585.396 C311.785,590.596,312.843,597.163,315.418,601.775 C315.474,601.875,315.53,601.978,315.586,602.084 C319.209,608.887,317.444,617.263,317.718,624.835 C318.401,643.625,317.633,662.974,312.176,681.05 C310.287,687.31,307.465,692.875,307.256,699.59 C307.145,703.152,308.863,706.648,308.731,710.201 C308.571,714.512,307.986,722.254,311.072,725.711 C312.42,727.221,314.875,726.507,316.721,727.002 C318.377,727.447,320.065,728.333,321.79,728.451 C324.318,728.623,326.798,727.871,329.215,727.902 C331.957,727.937,334.829,728.541,337.561,728.3 C339.057,728.169,342.65,727.961,343.743,726.953 C344.632,726.132,344.578,723.447,344.406,722.331 C344.001,719.693,342.013,718.529,340.488,716.559 C337.482,712.677,333.954,708.62,331.793,704.223 C330.974,702.556,331.247,700.663,331.029,698.9 C330.342,693.332,330.783,687.304,331.177,681.707 C331.607,675.585,333.96,669.583,335.971,663.841 C337.643,659.064,338.771,654.037,340.255,649.183 C342.014,643.43,342.996,637.532,344.616,631.761 C348.448,618.106,350.666,604.569,353.273,590.664 C354.198,585.734,353.839,580.717,353.948,575.683 C354.103,568.501,354.965,561.298,354.382,554.061 C353.608,544.442,350.986,535.059,351.104,525.309 C351.219,515.771,353.881,507.025,356.25,497.883 C357.428,493.336,356.855,488.425,357.638,483.841 C358.076,481.281,360.033,478.411,360.838,475.816 C361.548,473.526,361.173,470.598,361.661,468.231 C362.663,463.37,363.369,458.454,364.224,453.859 C367.605,435.685,370.321,416.319,368.465,397.813 C366.53,378.513,360.537,360.107,354.559,341.714 C350.932,330.553,350.383,319.361,344.293,308.796 C343.901,308.117,343.383,307.455,343.178,306.737 C342.103,302.972,341.022,299.241,339.992,295.467 C338.328,289.372,338.333,281.731,339.348,275.52 C340.369,269.273,342.658,263.135,343.937,256.902 C344.621,253.568,344.339,249.587,345.532,246.4 C346.639,243.443,349.774,241.325,351.198,238.538 C352.506,235.977,351.285,233.281,352.383,230.89 C353.771,227.868,356.925,225.818,358.367,222.751 C361.537,216.013,362.109,207.013,362.363,199.715 C362.552,194.274,363.364,186.363,358.948,182.183 C356.839,180.187,352.337,180.225,349.632,179.316 C345.588,177.957,343.051,174.845,338.93,173.735"/>
      </g>
      <g id="am16">
        <path style="fill:#9e9e9e;fill-opacity:1;fill-rule:nonzero;opacity:1;stroke:none;" d="M306.844,174.239 C300.727,174.893,295.594,178.044,290.26,180.803 C275.954,188.204,261.052,198.654,252.35,212.193 C250.651,214.837,248.936,217.58,248.263,220.667 C246.894,226.949,250.257,238.582,255.78,242.456 C257.793,243.868,260.831,243.979,263.219,244.187 C272.003,244.952,278.066,242.291,285.589,238.181 C302.215,229.097,316.603,218.787,328.768,204.387 C334.22,197.934,339.925,191.372,340.116,182.643 C340.176,179.898,339.471,176.077,336.463,174.999 C333.511,173.942,329.535,175.107,326.48,175.258 C319.074,175.626,314.295,173.441,306.844,174.239 z"/>
      </g>
      <g id="am18">
        <path style="fill:#9e9e9e;fill-opacity:1;fill-rule:nonzero;opacity:1;stroke:none;" d="M258.64,242.175 C257.265,242.496,255.405,244.017,256.793,245.497 C257.802,246.571,261.459,246.288,262.376,245.159 C264.288,242.805,260.06,241.843,258.64,242.175 z"/>
      </g>
      <g id="am20">
        <path style="fill:#9e9e9e;fill-opacity:1;fill-rule:nonzero;opacity:1;stroke:none;" d="M403.677,366.221 C404.679,375.898,406.104,385.5,406.514,395.228 C406.608,397.465,407.048,399.803,406.881,402.038 C406.714,404.274,405.66,406.373,404.944,408.473 C404.156,410.785,403.826,413.115,403.324,415.484 C402.311,420.264,401.724,425.355,399.123,429.598 C398.585,430.476,398.421,431.593,397.685,432.31 C396.72,433.25,395.82,434.107,394.958,435.145 C394.747,435.4,394.292,436.02,393.888,435.866 C392.601,435.372,393.474,431.796,392.969,430.677 C391.348,432.53,389.381,433.993,387.412,435.476 C386.767,435.962,385.381,436.843,384.94,435.626 C384.381,434.083,386.96,432.058,387.795,431.006 C390.049,428.168,394.488,423.62,393.249,419.639 C392.747,422.356,388.308,425.228,385.931,426.324 C385.209,426.656,383.588,427.674,382.803,427.098 C381.209,425.93,382.713,424.001,383.787,423.213 C384.803,422.468,385.976,421.93,386.93,421.106 C388.175,420.03,389.068,418.648,390.346,417.595 C391.537,416.613,393.208,415.051,392.784,413.318 C392.728,413.091,390.682,414.161,390.32,414.303 C388.906,414.859,386.995,415.221,385.504,414.96 C384.945,414.863,384.117,414.846,383.87,414.226 C383.661,413.704,384.385,413.353,384.732,413.125 C385.999,412.293,387.29,412.06,388.63,411.407 C390.313,410.586,392.941,408.735,393.829,407.079 C395.13,404.652,394.551,399.314,391.991,397.743 C390.113,396.591,388.871,398.839,388.129,400.124 C385.955,403.888,384.151,407.819,382.15,411.673 C381.582,412.768,379.121,416.384,377.931,413.735 C377.226,412.164,378.34,409.501,379.008,408.055 C380.418,405.005,381.132,401.61,382.47,398.505 C385.095,392.411,386.354,386.354,387.885,379.963 C388.523,377.301,389.719,374.75,390.242,372.058 C390.639,370.015,390.463,368.001,390.322,365.961 C390.095,362.681,388.904,359.656,388.084,356.453 C386.211,349.134,383.714,342.449,380.23,335.677 C376.506,328.438,371.614,321.902,368.453,314.289 C365.637,307.507,366.081,300.532,363.957,293.711 C362.818,290.053,360.844,286.759,359.258,283.281 C356.507,277.247,353.944,270.48,351.894,264.192 C349.793,257.75,349.795,249.775,345.89,244.082 C349.999,240.195,351.525,233.4,352.495,228.056 C354.388,217.618,356.525,207.152,357.588,196.561 C357.9,193.451,359.42,190.626,359.064,187.45 C358.944,186.376,356.796,182.533,357.374,181.787 C357.961,181.031,359.937,181.703,360.643,181.977 C366.834,184.379,369.306,189.721,371.132,195.483 C372.063,198.418,371.784,201.574,372.977,204.297 C375.325,209.657,375.521,215.459,375.997,221.162 C376.272,224.469,375.541,227.669,376.276,230.593 C376.681,232.206,377.121,233.806,377.294,235.451 C378.775,249.55,380.454,264.172,384.923,277.68 C388.792,289.377,393.027,300.834,396.542,312.653 C398.418,318.959,400.545,325.208,400.792,331.828 C401.127,340.83,403.637,349.698,403.767,358.673 C403.789,360.172,403.454,364.067,403.677,366.221 z"/>
      </g>
      <g id="am22">
        <path style="fill:#9e9e9e;fill-opacity:1;fill-rule:nonzero;opacity:1;stroke:none;" d="M291.987,139.597 C291.987,144.897,297.916,148.352,302.581,149.522 C304.819,150.084,307.296,150.336,309.32,149.007 C312.695,146.792,312.633,140.143,309.683,137.74 C307.833,136.232,305.333,136.301,303.065,136.201"/>
      </g>
    </g>
  </g>
  <g id="am23">
    <g id="am24">
      <path id="am25" style="fill:#ed247b;fill-opacity:1;fill-rule:nonzero;opacity:1;stroke:none;" d="M289.051,655.643 C288.622,652.612,288.608,649.537,288.297,646.474 C287.967,643.226,287.491,639.992,287.106,636.722 C286.991,635.749,287.229,634.208,287.252,633.222 C287.376,628.077,287.463,623.499,287.878,618.326 C287.923,617.761,287.945,616.855,287.981,616.299 C288.212,612.703,288.305,607.753,289.396,604.716 C291.926,597.669,293.88,592.431,294.174,584.689 C294.242,582.909,294.033,581.177,293.985,579.331 C293.86,574.58,293.15,569.78,292.101,565.144 C291.446,562.247,290.466,559.598,290.282,556.539 C290.205,555.252,290.56,553.969,290.38,552.722 C289.809,548.778,286.884,544.99,287.65,541.059 C288.25,537.979,288.261,535.735,288.276,532.782 C288.292,529.609,287.927,525.689,287.831,522.53 C287.763,520.317,287.198,518.197,287.861,516.115 C289.982,509.451,293.458,503.645,294.609,497.058 C296.06,488.762,293.471,480.248,293.584,471.959 C293.634,468.265,293.281,465.064,294.415,461.357 C297.343,451.791,297.585,442.997,298.503,432.86 C299.317,423.87,300.605,414.567,300.639,405.466 C300.708,387.226,296.339,367.947,288.558,351.396 C286.893,347.854,284.148,347.037,281.564,344.448 C279.645,342.525,277.564,339.49,276.136,337.173 C272.065,330.567,269.772,323.01,265.952,316.264 C264.327,313.396,264.062,310.973,261.151,308.968 C260.859,309.347,260.778,309.872,260.47,310.227 C254.641,316.925,253.79,325.562,252.479,333.98 C252.108,336.36,251.769,338.742,251.112,341.092 C246.937,356.025,241.437,370.712,238.529,385.977 C236.96,394.215,235.899,403.291,235.693,411.674 C235.543,417.792,235.899,423.45,236.555,429.447 C237.753,440.388,239.824,450.521,242.422,461.894 C242.842,464.674,243.611,467.41,244.179,470.192 C244.709,472.789,245.254,475.414,245.555,478.056 C245.881,480.928,248.295,483.189,248.543,486.125 C248.629,487.146,248.601,488.174,248.654,489.199 C248.744,490.923,249.109,492.639,249.226,494.367 C249.266,494.967,249.331,495.563,249.435,496.152 C249.886,498.703,250.931,501.094,251.724,503.569 C252.798,506.922,253.059,510.283,253.433,513.769 C253.76,516.823,253.841,519.626,254.007,522.58 C254.177,525.6,254.328,529.211,254.212,532.218 C254.156,533.663,254.22,534.486,254.199,536.157 C254.168,538.679,253.738,541.049,253.344,543.281 C252.833,546.178,252.184,549.152,251.79,552.066 C251.469,554.442,250.999,556.746,250.842,559.152 C250.769,560.271,250.986,561.387,250.973,562.498 C250.946,564.737,250.695,567.024,250.753,569.254 C250.792,570.734,251.102,572.204,251.194,573.681 C251.456,577.866,251.636,582.199,252.19,586.356 C252.416,588.052,252.429,589.589,252.626,591.289 C252.691,591.854,252.937,592.597,252.962,593.189 C253.139,597.477,254.012,601.449,254.628,605.672 C255.126,609.077,255.784,612.45,256.342,615.832 C256.601,617.398,256.769,619.08,257.16,620.616 C257.594,622.321,258.198,623.973,258.595,625.687 C259.156,628.113,259.799,630.522,260.556,632.905 C261.208,634.957,261.332,637.165,261.906,639.228 C262.376,640.918,263.183,642.598,263.819,644.235 C264.142,645.068,264.451,645.943,264.771,646.833 C265.367,648.494,265.878,650.221,266.287,651.956 C267.222,655.922,268.259,660.092,269.825,663.905 C270.811,666.306,271.373,668.736,272.004,671.231 C273.053,675.374,273.797,679.581,274.358,683.822 C274.537,685.171,274.293,686.519,274.338,687.862 C274.342,687.997,274.349,688.134,274.358,688.271 C274.433,689.429,274.194,690.602,274.221,691.766 C274.303,695.256,274.356,698.762,274.037,702.245 C273.959,703.097,273.721,703.909,273.526,704.729 C273.512,704.786,273.5,704.844,273.489,704.902 C273.354,705.625,272.958,706.335,272.389,706.822 C271.991,707.163,271.569,707.489,271.268,707.922 C270.873,708.489,270.675,709.138,270.444,709.776 C270.248,710.315,269.847,710.881,269.45,711.305 C268.826,711.971,267.999,712.464,267.441,713.186 C266.766,714.058,266.645,715.268,265.979,716.11 C264.865,717.518,263.274,718.416,262.023,719.692 C261.606,720.118,261.37,720.689,260.996,721.159 C260.76,721.455,260.661,721.797,260.463,722.116 C260.086,722.721,259.614,723.529,259.413,724.34 C259.328,724.681,259.076,725.183,259.125,725.54 C259.273,726.636,260.393,727.242,261.399,727.327 C262.209,727.395,263.069,727.428,263.882,727.381 C264.347,727.355,264.809,727.239,265.274,727.207 C265.969,727.159,266.605,727.08,267.278,726.955 C268.49,726.731,269.734,726.837,270.976,727.002 C271.932,727.13,272.881,727.534,273.84,727.598 C276.478,727.775,279.079,727.696,281.711,727.737 C283.133,727.758,284.52,727.808,285.941,727.611 C286.11,727.587,286.288,727.582,286.467,727.572 C289.756,727.391,293.454,728.35,295.768,725.266 C298.85,721.159,296.955,715.278,296.454,710.707 C295.882,705.497,297.758,700.6,297.757,695.442 C297.757,692.949,296.8,690.685,295.966,688.398 C295.529,687.2,295.181,685.982,294.706,684.792 C293.768,682.444,293.191,679.974,292.593,677.529 C290.831,670.321,290.112,663.131,289.051,655.643 z"/>
      <path id="am26" style="fill:#ed247b;fill-opacity:1;fill-rule:nonzero;opacity:1;stroke:none;" d="M344.052,726.267 C343.973,726.534,343.848,726.782,343.652,726.961 C343.358,727.23,342.897,727.365,342.531,727.509 C341.363,727.971,339.99,727.967,338.764,728.148 C337.572,728.323,336.346,728.45,335.175,728.401 C334.163,728.358,333.131,727.999,332.116,728.064 C332.03,728.069,331.944,728.071,331.858,728.064 C331.366,728.024,330.893,727.871,330.389,727.86 C329.185,727.834,327.934,727.937,326.741,728.098 C326.249,728.165,325.772,728.347,325.28,728.406 C324.944,728.446,324.582,728.374,324.243,728.376 C323.842,728.378,323.437,728.42,323.046,728.494 C322.977,728.508,322.907,728.519,322.838,728.53 C321.845,728.685,320.679,728.498,319.735,728.162 C319.065,727.924,318.454,727.56,317.758,727.386 C316.892,727.169,315.945,726.967,315.059,726.879 C313.78,726.752,312.404,726.768,311.314,726 C309.955,725.043,309.57,723.3,309.244,721.772 C308.492,718.241,308.745,714.574,308.817,710.981 C308.838,709.933,308.887,708.918,308.845,708.047 C308.7,705.051,307.018,702.38,307.315,699.316 C307.517,697.228,308.402,695.315,308.912,693.297 C309.297,691.773,309.395,690.156,309.905,688.667 C310.608,686.612,311.248,684.606,311.828,682.529 C312.425,680.394,313.204,678.335,313.639,676.147 C315.282,667.882,317.434,659.613,317.674,651.182 C317.714,649.802,317.769,648.421,317.9,647.038 C318.141,644.503,317.866,642.088,317.86,639.579 C317.85,635.627,318.173,631.679,317.949,627.736 C317.858,626.135,317.728,624.538,317.733,622.924 C317.739,620.755,318.182,618.593,318.207,616.438 C318.242,613.361,318.148,610.224,317.571,607.212 C317.311,605.853,317.572,605.919,316.423,603.241 C315.114,600.187,314.151,597.113,312.931,593.823 C312.881,593.688,312.838,593.552,312.806,593.413 C312.556,592.299,312.551,591.178,312.374,590.062 C312.02,587.832,311.531,585.701,311.588,583.422 C311.676,579.889,311.403,576.391,312.02,572.88 C312.722,568.891,313.969,565.07,315.105,561.196 C315.796,558.836,316.185,556.405,316.763,554.019 C317.399,551.391,318.16,548.846,318.376,546.135 C318.58,543.577,317.996,540.7,317.484,538.203 C317.217,536.905,317.011,535.563,316.866,534.167 C316.68,532.386,317.003,530.588,316.918,528.803 C316.782,525.926,316.235,523.076,316.083,520.207 C315.911,516.948,316.264,514.191,315.058,511.033 C314.143,508.638,313.358,506.189,312.686,503.685 C311.476,499.169,310.235,494.973,310.293,490.248 C310.34,486.473,311.837,482.716,312.513,479.013 C313.24,475.039,313.598,470.895,312.368,467.153 C312.343,467.077,312.318,467.001,312.293,466.924 C311.488,464.437,311.136,461.897,310.545,459.366 C309.907,456.637,308.975,453.9,308.598,451.126 C308.267,448.69,308.561,446.203,308.135,443.757 C307.599,440.685,307.226,437.589,306.687,434.488 C305.976,430.392,304.727,426.394,304.672,422.211 C304.666,421.743,304.672,421.274,304.688,420.805 C304.939,413.622,305.971,406.499,306.075,399.297 C306.107,397.074,306.757,395.035,307.033,392.912 C307.205,391.583,306.989,390.324,306.974,388.998 C306.952,387.038,307.12,385.052,307.508,383.133 C307.857,381.406,308.605,379.758,309.084,378.067 C309.81,375.505,310.286,372.883,310.98,370.314 C311.695,367.669,312.843,365.104,313.558,362.474 C314.341,359.595,315.317,356.772,316.835,354.248 C318.268,351.866,320.266,350.089,321.984,347.982 C325.558,343.595,329.821,338.394,331.77,333.023 C332.728,330.382,334.403,328.212,335.712,325.784 C337.509,322.452,338.99,318.928,341.014,315.716 C341.806,314.461,342.593,313.197,343.296,311.889 C343.492,311.526,343.897,310.671,344.431,310.847 C344.995,311.032,345.604,312.073,345.987,312.519 C347.714,314.528,347.835,316.599,348.533,318.82 C349.156,320.801,349.547,322.962,350.379,324.822 C350.605,325.326,350.799,325.833,350.908,326.339 C351.925,331.028,352.417,335.942,353.68,340.573 C355.048,345.593,357.27,350.514,358.833,355.507 C364.84,374.689,370.54,395.079,369.247,415.407 C368.888,421.048,368.676,426.603,367.585,432.15 C367.524,432.462,367.519,433.22,367.465,433.623 C366.96,437.387,366.255,440.619,365.777,444.367 C365.601,445.748,365.366,447.12,365.1,448.488 C364.983,449.091,364.893,449.706,364.827,450.323 C364.756,450.998,364.735,451.731,364.58,452.393 C364.351,453.376,364.168,454.12,363.995,455.117 C363.936,455.455,363.818,456.016,363.768,456.357 C363.68,456.957,363.562,457.529,363.473,458.128 C363.329,459.103,363.176,460.096,363.019,461.073 C362.689,463.128,362.164,465.161,361.813,467.211 C361.59,468.509,361.366,469.828,361.271,471.142 C361.192,472.22,361.274,473.3,361.174,474.379 C361.119,474.973,360.941,475.576,360.81,476.158 C360.476,477.643,359.57,479.293,358.732,480.556 C358.68,480.636,358.635,480.72,358.593,480.806 C357.793,482.471,357.515,484.277,357.386,486.086 C357.341,486.718,357.197,487.345,357.169,487.978 C357.158,488.244,357.24,488.514,357.233,488.783 C357.198,490.112,357.172,491.478,357.06,492.801 C356.792,495.991,356,499.105,355.095,502.175 C354.861,502.97,354.748,503.795,354.534,504.594 C354.213,505.794,353.92,506.985,353.643,508.195 C353.532,508.68,353.348,509.148,353.24,509.632 C353.114,510.193,353.064,510.762,352.909,511.318 C352.892,511.38,352.877,511.469,352.857,511.56 C352.772,511.948,352.548,512.291,352.476,512.677 C352.351,513.349,352.322,514.054,352.217,514.732 C351.803,517.382,351.333,520.009,351.199,522.704 C351.113,524.438,351.068,526.195,351.168,527.93 C351.222,528.878,351.385,529.818,351.414,530.768 C351.427,531.194,351.445,531.665,351.415,532.132 C351.354,533.113,351.624,534.122,351.734,535.096 C351.894,536.515,352.033,537.925,352.25,539.338 C352.434,540.534,352.777,541.691,353,542.874 C353.223,544.054,353.295,545.289,353.448,546.485 C353.736,548.727,354.122,550.945,354.333,553.202 C354.504,555.017,354.633,556.881,354.537,558.722 C353.962,569.67,354.34,580.698,353.308,591.613 C353.078,594.036,352.176,596.246,351.754,598.584 C350.085,607.818,348.534,616.576,346.18,625.384 C345.604,627.536,345.222,629.735,344.684,631.898 C344.589,632.278,344.485,632.654,344.369,633.021 C343.386,636.125,342.707,639.291,341.965,642.454 C341.134,645.992,339.904,649.439,339.062,652.955 C338.473,655.411,337.73,658.144,337.052,660.621 C336.563,662.408,335.89,664.103,335.264,665.841 C334.824,667.061,334.444,668.59,333.928,669.671 C333.683,670.184,333.539,670.624,333.379,671.16 C333.128,672.003,332.86,672.842,332.623,673.689 C332.253,675.01,331.864,676.349,331.651,677.706 C331.569,678.231,331.645,678.805,331.584,679.338 C331.487,680.194,331.377,681.06,331.322,681.927 C331.206,683.768,331.14,685.587,331.093,687.424 C331.049,689.151,331.001,690.957,330.846,692.675 C330.626,695.115,330.441,697.466,330.935,699.896 C331.32,701.789,331.526,703.766,332.494,705.47 C332.678,705.792,332.826,706.122,332.963,706.456 C333.204,707.047,333.618,707.441,333.99,707.943 C334.492,708.621,334.954,709.338,335.435,710.033 C336.105,711.001,336.878,711.855,337.584,712.793 C339.056,714.751,340.531,716.678,342.151,718.516 C343.29,719.809,344.254,721.117,344.524,722.872 C344.573,723.188,344.499,723.507,344.502,723.824 C344.511,724.706,344.307,725.414,344.052,726.267 z"/>
    </g>
  </g>
  <g id="am27">
    <path id="am28" style="fill:#3da8f4;fill-opacity:1;fill-rule:nonzero;opacity:1;stroke:none;" d="M339.23,292.981 C338.488,289.52,338.547,285.901,338.67,282.37 C338.705,281.366,338.674,280.333,338.788,279.333 C338.846,278.824,339.083,278.131,338.938,277.634 C338.682,276.753,336.905,275.883,336.234,275.247 C334.021,273.151,331.858,270.85,329.866,268.542 C328.096,266.489,326.549,264.244,324.914,262.082 C323.968,260.83,322.883,259.725,322.012,258.406 C319.212,254.162,316.982,249.67,313.944,245.572 C312.549,243.689,310.787,242.118,309.068,240.55 C307.812,239.404,306.744,238.432,304.902,238.513 C302.726,238.608,300.598,238.667,298.551,239.579 C291.522,242.708,289.418,251.683,284.824,257.138 C280.654,262.089,277.746,267.148,272.631,271.25 C271.212,272.388,269.433,273.252,267.716,273.828 C267.142,274.021,265.909,274.123,265.634,274.755 C265.291,275.542,266.184,277.654,266.292,278.558 C266.716,282.103,266.995,285.626,266.879,289.254 C266.754,293.159,266.086,297.65,264.558,301.263 C263.637,303.441,261.293,305.953,261.348,308.451 C261.354,308.739,261.492,308.992,261.699,309.226 C261.932,309.487,262.2,309.666,262.431,309.929 C262.91,310.478,263.366,311.004,263.729,311.641 C264.422,312.86,264.901,314.141,265.482,315.408 C265.738,315.965,266.09,316.46,266.381,316.993 C266.711,317.597,267.001,318.216,267.339,318.815 C267.839,319.702,268.223,320.693,268.668,321.61 C268.914,322.116,269.084,322.485,269.296,323.033 C270.11,325.146,271.137,327.425,272.331,329.746 C272.596,330.261,272.722,330.822,272.964,331.363 C273.54,332.654,274.252,333.863,274.932,335.1 C276.492,337.94,278.296,340.668,280.385,343.145 C280.973,343.841,281.536,344.577,282.208,345.194 C282.394,345.365,282.638,345.467,282.838,345.622 C283.62,346.23,284.494,346.694,285.17,347.418 C285.967,348.271,286.683,349.211,287.531,349.993 C288.19,350.599,289.194,351.081,289.991,351.475 C291.35,352.147,292.837,352.158,294.251,352.512 C298.289,353.524,302.401,353.367,306.549,353.354 C308.342,353.348,310.079,353.78,311.88,353.757 C313.902,353.732,315.896,353.361,317.772,352.402 C319.252,351.644,320.012,350.524,320.976,349.217 C321.861,348.019,323.041,347.023,323.832,345.757 C323.891,345.663,323.947,345.568,324.003,345.472 C325.636,342.661,328.123,340.431,329.803,337.63 C331.327,335.089,331.964,332.231,333.399,329.679 C334.083,328.461,335.04,327.388,335.767,326.195 C337.406,323.506,338.729,320.645,339.993,317.769 C340.853,315.811,341.967,314.053,343.054,312.228 C343.464,311.54,344.163,310.761,344.281,309.947 C344.42,308.985,343.72,307.848,343.357,306.992 C342.519,305.013,341.637,302.971,340.999,300.919 C340.206,298.371,339.793,295.609,339.23,292.981 z"/>
  </g>
  <g id="am29">
    <path id="am30" style="fill:#8cc63f;fill-opacity:1;fill-rule:nonzero;opacity:1;stroke:none;" d="M236.402,316.15 C237.958,313.804,238.719,310.607,239.328,307.893 C240.379,303.215,240.875,298.411,242.146,293.781 C243.12,290.233,244.702,286.92,246.274,283.614 C248.011,279.961,249.577,276.196,251.24,272.5 C252.52,269.654,253.221,266.572,254.477,263.722 C255.435,261.548,255.987,259.021,256.387,256.704 C256.921,253.609,257.532,250.515,258.078,247.419 C258.344,245.906,258.887,244.478,258.873,242.935 C258.862,241.632,258.391,240.426,258.126,239.17 C257.348,235.488,256.456,231.845,254.969,228.433 C253.323,224.659,249.615,222.306,247.963,218.465 C245.282,224.361,240.104,228.91,235.32,233.054 C233.827,234.348,230.192,237.542,228.933,234.618 C228.174,235.79,228.392,237.451,228.165,238.776 C227.63,241.892,227.072,244.964,226.615,248.092 C225.885,253.092,225.309,258.055,224.921,263.034 C224.6,267.158,222.93,271.087,221.657,274.973 C219.05,282.931,215.781,290.691,213.1,298.644 C212.375,300.795,211.914,303.28,211.452,305.809 C211.333,306.455,211.085,307.068,210.961,307.71 C210.171,311.807,208.926,315.783,207.699,319.769 C207.26,321.196,206.764,322.631,206.406,324.081 C206.126,325.216,205.894,326.417,205.56,327.532 C205.222,328.66,204.94,329.804,204.766,330.979 C204.567,332.327,204.663,333.68,204.516,335.024 C204.125,338.596,203.613,342.156,203.318,345.738 C203.176,347.462,203.343,349.361,202.98,351.05 C202.738,352.177,202.88,353.382,202.847,354.533 C202.806,355.914,202.531,357.492,202.689,358.848 C202.865,360.351,203.582,361.725,204.167,363.092 C204.625,364.165,205.077,366.104,206.41,366.46 C206.754,366.552,207.082,366.476,207.385,366.307 C208.568,365.648,209.833,364.825,210.91,363.944 C211.896,363.137,213.108,362.396,213.949,361.452 C215.734,359.448,216.265,356.843,217.011,354.376 C218.023,351.028,219.294,347.724,220.084,344.311 C220.888,340.836,222.9,337.575,224.729,334.461 C225.714,332.783,226.997,331.311,228.089,329.7 C228.929,328.461,229.623,327.13,230.462,325.885 C232.579,322.747,234.296,319.324,236.402,316.15 z"/>
    <path id="am31" style="fill:#8cc63f;fill-opacity:1;fill-rule:nonzero;opacity:1;stroke:none;" d="M390.984,295.479 C391.153,295.934,391.211,296.443,391.427,296.874 C391.831,297.678,392.075,298.575,392.345,299.42 C392.877,301.08,393.402,302.747,393.904,304.414 C395.646,310.203,397.833,315.753,399.16,321.658 C399.416,322.797,399.651,324.107,399.979,325.222 C400.274,326.224,400.404,327.306,400.496,328.344 C400.569,329.166,400.64,330.077,400.74,330.828 C401.156,333.937,401.184,336.427,401.478,339.31 C401.754,342.023,402.514,344.622,402.849,347.303 C403.017,348.645,403.056,350.287,403.252,351.596 C403.626,354.103,403.703,356.72,403.616,359.058 C403.584,359.92,403.616,360.833,403.57,361.655 C403.482,363.23,403.463,364.797,403.57,366.364 C403.636,367.331,403.953,368.28,404.089,369.238 C404.224,370.189,404.164,371.172,404.303,372.126 C404.516,373.574,404.835,375.406,404.41,376.837 C404.151,377.711,403.726,379.415,402.764,379.787 C402.444,379.911,402.009,379.775,401.673,379.763 C400.438,379.717,399.262,379.507,398.08,379.108 C397.008,378.747,395.91,378.24,394.993,377.588 C394.752,377.417,394.529,377.22,394.326,377.021 C392.917,375.642,391.806,373.964,391.04,372.145 C390.35,370.507,390.603,368.68,390.619,366.938 C390.631,365.627,390.302,364.213,390.053,362.931 C389.757,361.402,388.962,359.942,388.518,358.453 C387.995,356.695,387.745,354.854,387.238,353.09 C386.741,351.361,386.401,349.503,385.634,347.925 C385.322,347.285,385.114,346.588,384.831,345.931 C384.432,345.004,384.196,344.029,383.807,343.1 C382.826,340.755,381.701,338.389,380.542,336.118 C379.284,333.655,378.019,331.162,376.488,328.877 C374.03,325.208,371.798,321.334,369.858,317.389 C368.969,315.581,368.306,313.655,367.7,311.767 C367.435,310.942,367.24,310.088,367.03,309.218 C366.384,306.546,365.805,303.637,365.512,300.908 C365.4,299.868,365.164,298.846,364.969,297.817 C364.359,294.595,363.272,291.778,361.964,288.661 C360.771,285.819,359.039,282.962,358.116,280.71 C356.019,275.593,353.775,270.127,352.163,264.818 C351.097,261.305,350.669,257.687,349.722,254.151 C349.171,252.098,348.669,250.026,347.928,248.032 C347.578,247.089,346.775,246.177,346.572,245.202 C346.424,244.497,346.713,243.538,346.614,242.798 C346.576,242.514,346.576,242.231,346.638,241.951 C347.432,238.356,349.018,235.042,350.014,231.507 C350.372,230.234,350.272,227.837,350.986,226.812 C351.527,226.033,353.108,225.793,353.933,225.327 C356.31,223.986,357.527,221.574,356.956,219.014 C363.762,221.323,365.844,227.685,370.788,232.22 C371.407,232.788,372.495,233.562,373.404,233.326 C374.346,233.082,375.792,230.732,376.679,232.194 C377.455,233.473,377.208,235.478,377.445,236.879 C378.002,240.172,378.106,243.235,378.482,246.555 C378.489,246.612,378.495,246.668,378.5,246.725 C378.638,248.117,378.913,249.467,379.087,250.865 C379.238,252.071,379.642,253.252,379.759,254.457 C379.984,256.783,380.245,259.031,380.741,261.318 C380.894,262.022,380.931,262.701,381.151,263.4 C381.451,264.352,381.632,265.323,381.809,266.269 C382.305,268.922,383.104,271.465,383.838,274.053 C385.894,281.304,388.359,288.422,390.984,295.479 z"/>
  </g>
  <g id="am32">
    <path id="am33" style="fill:#382f93;fill-opacity:1;fill-rule:nonzero;opacity:1;stroke:none;" d="M235.276,232.899 C238.102,230.579,240.758,228.154,243.229,225.419 C244.506,224.004,246.09,222.35,247.069,220.733 C247.732,219.636,248.094,218.394,248.786,217.31 C250.993,213.856,253.308,210.518,255.308,206.897 C258.575,200.981,261.226,194.832,264.688,189.027 C266.124,186.619,268.467,184.991,270.66,183.328 C271.778,182.481,273.217,181.431,273.162,179.858 C273.13,178.94,272.568,178.324,272.009,177.67 C268.845,177.629,265.766,176.473,262.611,176.718 C260.023,176.918,257.933,178.497,255.469,179.156 C253.162,179.773,250.775,179.649,248.485,180.504 C242.714,182.657,237.314,187.882,234.599,193.305 C232.153,198.191,232.507,204.078,230.719,209.232 C229.348,213.183,229.01,217.09,228.755,221.196 C228.602,223.656,228.25,226.199,228.439,228.668 C228.505,229.529,228.485,230.668,228.618,231.777 C228.727,232.684,228.53,234.774,229.45,235.39 C231.345,236.662,233.854,234.066,235.276,232.899 z"/>
    <path id="am34" style="fill:#382f93;fill-opacity:1;fill-rule:nonzero;opacity:1;stroke:none;" d="M368.799,230.682 C365.681,228.363,362.75,225.938,360.023,223.202 C358.613,221.787,356.866,220.133,355.785,218.516 C355.053,217.419,354.654,216.177,353.89,215.093 C351.455,211.64,348.899,208.302,346.693,204.681 C343.087,198.765,340.162,192.615,336.341,186.81 C334.757,184.402,332.17,182.774,329.75,181.111 C328.517,180.264,326.929,179.215,326.989,177.641 C327.025,176.723,327.645,176.107,328.262,175.453 C331.753,175.412,335.152,174.257,338.633,174.501 C341.49,174.702,343.795,176.28,346.515,176.939 C349.061,177.556,351.695,177.433,354.223,178.287 C360.591,180.441,366.551,185.666,369.547,191.088 C372.246,195.974,371.855,201.861,373.829,207.016 C375.342,210.966,375.715,214.873,375.996,218.979 C376.165,221.439,376.553,223.982,376.344,226.451 C376.272,227.313,376.294,228.451,376.147,229.56 C376.027,230.467,376.244,232.557,375.229,233.174 C373.137,234.445,370.369,231.85,368.799,230.682 z"/>
  </g>
  <g id="am35">
    <path id="am36" style="fill:#ff931d;fill-opacity:1;fill-rule:nonzero;opacity:1;stroke:none;" d="M294.068,176.89 C297.222,176.962,300.22,178.177,303.401,178.172 C306.762,178.166,309.964,177.238,313.313,177.093 C317.388,176.917,321.479,177.426,325.521,177.841 C327.556,178.049,328.386,180.253,329.811,181.532 C331.518,183.063,334.04,183.912,335.399,185.701 C339.165,190.656,341.678,196.538,344.733,201.344 C345.219,202.11,345.603,202.911,346.037,203.671 C346.823,205.049,347.66,206.437,348.57,207.737 C348.922,208.24,349.336,208.697,349.686,209.2 C350.189,209.925,350.644,210.69,351.157,211.409 C351.624,212.062,352.158,212.67,352.617,213.331 C353.259,214.252,353.967,215.194,354.494,216.189 C354.792,216.75,354.987,217.377,355.343,217.911 C355.456,218.08,355.571,218.246,355.696,218.402 C355.974,218.752,356.241,219.106,356.514,219.46 C356.669,219.662,356.888,219.886,356.942,220.144 C357.189,221.326,356.622,222.683,355.945,223.634 C355.493,224.271,354.869,224.848,354.176,225.213 C353.508,225.566,352.73,225.704,352.043,226.023 C351.623,226.217,351.022,226.439,350.938,226.783 C350.907,226.91,350.871,227.039,350.827,227.17 C350.424,228.393,350.366,229.871,350.053,231.356 C349.797,232.567,349.303,233.76,348.864,235.01 C348.282,236.669,347.662,238.352,347.164,239.94 C346.993,240.483,346.871,240.988,346.741,241.505 C346.674,241.771,346.51,242.046,346.535,242.317 C346.569,242.682,346.66,243.142,346.597,243.503 C346.558,243.727,346.45,243.942,346.405,244.168 C346.354,244.418,346.358,244.65,346.264,244.894 C346.08,245.368,345.689,245.756,345.57,246.244 C345.557,246.296,345.545,246.348,345.532,246.4 C344.377,251.158,344.716,249.151,344.332,254.046 C344.251,255.082,343.233,259.418,343.059,260.662 C342.847,262.177,342.248,263.764,341.87,265.213 C341.495,266.653,341.227,268.139,340.816,269.565 C340.498,270.666,339.911,271.768,339.784,272.892 C339.724,273.422,339.634,273.95,339.566,274.5 C339.447,275.46,339.238,276.347,339.025,277.29 C339.009,277.36,338.981,277.417,338.933,277.457 C338.822,277.551,338.405,277.047,338.319,276.961 C337.743,276.385,337,275.99,336.394,275.44 C334.941,274.122,333.641,272.625,332.318,271.18 C331.243,270.006,330.295,268.677,329.153,267.608 C327.708,266.258,326.545,264.389,325.507,262.938 C323.502,260.136,321.86,257.087,319.936,254.24 C318.048,251.448,316.188,248.639,314.325,245.832 C313.771,244.997,313.277,244.128,312.624,243.383 C312.404,243.133,312.181,242.884,311.955,242.639 C310.613,241.18,308.953,239.3,307.29,239.017 C307.225,239.006,307.161,238.996,307.096,238.986 C304.263,238.556,300.74,237.945,298.326,239.241 C296.434,240.258,294.72,241.805,293.295,243.387 C291.23,245.679,290.433,248.913,288.759,251.482 C286.906,254.325,284.763,256.928,282.86,259.73 C280.629,263.014,278.462,266.781,275.428,269.414 C274.024,270.633,272.273,271.966,270.588,272.753 C269.184,273.409,267.34,274.783,266.234,274.407 C265.833,274.271,265.86,273.533,265.758,273.214 C265.339,271.905,265.023,270.49,264.532,269.212 C263.465,266.434,262.175,263.365,261.782,260.385 C261.325,256.932,261.603,253.544,260.938,250.116 C260.78,249.301,260.361,248.074,259.819,247.44 C259.536,247.11,258.617,246.762,258.583,246.318 C258.49,245.102,258.911,243.784,258.798,242.509 C258.377,237.731,256.871,232.7,254.804,228.377 C253.642,225.947,251.515,224.176,249.923,222.081 C249.333,221.305,248.329,220.366,248.212,219.353 C247.881,216.496,251.393,213.438,252.711,211.115 C253.671,209.423,254.749,207.764,255.862,206.112 C256.68,204.898,257.397,203.516,257.995,202.149 C259.526,198.655,261.341,195.294,263.224,191.975 C263.704,191.13,263.967,190.178,264.437,189.325 C264.634,188.968,264.907,188.667,265.185,188.372 C266.157,187.339,267.1,186.336,268.186,185.434 C268.893,184.847,269.554,184.204,270.288,183.65 C270.632,183.39,270.986,183.121,271.346,182.884 C271.371,182.868,271.396,182.851,271.421,182.835 C271.89,182.528,272.332,182.075,272.697,181.578 C273.132,180.985,273.381,179.948,273.188,179.199 C273.088,178.81,272.877,178.558,272.658,178.238 C278.123,177.908,283.6,177.228,289.121,177.163 C289.587,177.157,290.017,176.983,290.471,176.917 C290.929,176.85,291.392,176.963,291.849,176.927 C292.615,176.866,293.291,176.872,294.068,176.89 z"/>
  </g>
</svg>
