<?xml version="1.0" encoding="utf-8"?>
<svg viewBox="0 0 600 800" xmlns="http://www.w3.org/2000/svg" xmlns:xlink="http://www.w3.org/1999/xlink">
  <!--Generated by AMDN-->
  <g id="am1">
    <g id="am2">
      <path id="am3" style="fill:#aaaaaa;fill-opacity:1;fill-rule:nonzero;opacity:1;stroke:none;" d="M291.182,84.5025 C288.018,88.1734,284.732,92.3179,283.193,96.9893 C282.28,99.7622,282.397,102.905,282.422,105.789 C282.478,112.399,283.392,118.577,284.847,125.013 C285.89,129.628,285.66,133.954,287.665,138.411 C290.083,143.785,294.25,150.685,299.956,153.037 C302.306,154.006,304.98,153.644,307.452,153.891 C310.208,154.166,312.85,154.219,315.507,153.291 C321.403,151.233,325.142,146.231,327.625,140.88 C328.352,139.311,329.464,137.772,330.013,136.133 C332.532,128.618,333.145,120.483,334.204,112.666 C335.063,106.325,336.505,99.2713,333.553,93.1916 C330.664,87.2418,325.437,81.4327,319.097,79.0763 C316.625,78.1578,314.371,78.1683,311.818,77.8151 C308.255,77.3222,304.592,77.1073,301.114,78.2165 C297.094,79.4991,293.894,81.3565,291.182,84.5025 z"/>
      <path id="am4" style="fill:#aaaaaa;fill-opacity:1;fill-rule:nonzero;opacity:1;stroke:none;" d="M248.475,183.228 C253.053,176.597,261.548,171.328,268.87,168.262 C275.142,165.636,281.844,163.788,286.657,158.684 C290.092,155.04,289.416,149.525,288.574,145.054 C288.233,143.239,288.243,141.404,288.136,139.572 C288.115,139.197,287.928,138.015,288.463,137.922 C288.944,137.838,289.513,138.576,289.779,138.893 C290.732,140.028,291.332,141.49,292.203,142.7 C295.5,147.287,302.386,149.389,304.837,154.595 C306.482,158.086,304.852,161.077,302.874,163.932 C300.812,166.907,298.884,169.289,295.843,171.323 C287.232,177.083,276.613,178.493,266.66,180.308 C260.49,181.433,254.783,182.929,248.475,183.228 z"/>
      <path id="am5" style="fill:#aaaaaa;fill-opacity:1;fill-rule:nonzero;opacity:1;stroke:none;" d="M270.914,179.62 C271.151,179.536,271.385,179.44,271.615,179.33 C275.585,177.424,279.534,175.451,283.44,173.426 C289.206,170.438,295.903,167.912,300.429,163.064 C301.552,161.86,303.987,159.889,304.285,158.24 C304.504,157.028,302.279,155.386,303.655,154.436 C304.951,153.54,307.04,153.944,308.501,154.089 C309.95,154.233,311.664,154.135,313.112,153.982 C319.123,153.35,324.616,149.517,325.883,144.12 C326.263,142.504,326.784,140.893,327.458,139.253 C328.246,137.337,329.098,135.051,330.427,133.426 C329.547,138.307,329.118,143.307,329.136,148.265 C329.143,150.034,328.945,152.094,329.488,153.803 C330.991,158.529,334.541,161.347,338.658,163.669 C339.702,164.258,340.555,165.191,341.685,165.645 C345.649,167.241,349.645,168.501,353.462,170.478 C357.079,172.352,360.484,175.098,363.88,177.361 C365.548,178.472,367.088,179.938,368.23,181.582 C368.778,182.371,369.361,183.22,368.381,183.957 C367.334,184.743,365.886,184.274,364.678,184.433 C362.214,184.756,360.097,185.536,357.561,185.656 C352.825,185.88,348.085,186.545,343.338,186.606 C339.189,186.66,335.049,186.091,330.909,186.165 C328.305,186.212,325.552,186.293,322.967,186.598 C322.866,186.61,322.694,186.026,322.587,186.032 C321.114,186.122,319.618,186.538,318.158,186.557 C315.179,186.594,312.191,186.357,309.209,186.489 C305.839,186.639,302.52,187.108,299.13,186.987 C291.949,186.729,284.776,185.361,277.588,184.95 C274.01,184.745,270.472,184.243,266.888,184.077 C266.772,184.072,266.586,183.999,266.357,184.013 C261.943,184.284,257.544,184.396,253.131,184.673 C252.57,184.708,250.313,184.761,249.665,184.01 C248.343,182.477,252.646,180.586,254.894,180.132 C258.55,179.394,262.302,179.004,266.036,179.096 C267.681,179.137,269.317,180.185,270.914,179.62 z"/>
      <path id="am6" style="fill:#aaaaaa;fill-opacity:1;fill-rule:nonzero;opacity:1;stroke:none;" d="M337.471,243.636 C337.471,243.636,336.544,243.335,336.544,243.335"/>
      <path id="am7" style="fill:#aaaaaa;fill-opacity:1;fill-rule:nonzero;opacity:1;stroke:none;" d="M326.294,142.704 C323.438,143.165,323.173,146.213,321.687,148.297 C320.645,149.758,318.351,150.785,316.671,151.273 C313.478,152.201,309.689,152.259,306.391,152.809 C305.331,152.985,303.17,153.492,303.906,155.112 C304.687,156.83,308.976,156.476,310.515,156.633 C312.227,156.809,313.871,157.205,315.614,157.02 C319.936,156.562,322.796,153.86,324.858,150.292 C326.412,147.603,328.515,145.308,326.294,142.704 z"/>
      <path id="am8" style="fill:#aaaaaa;fill-opacity:1;fill-rule:nonzero;opacity:1;stroke:none;" d="M356.772,319.199 C358.381,324.526,358.685,330.322,359.37,335.818 C360.4,344.08,361.824,352.258,362.686,360.542 C362.971,363.281,362.557,365.996,363.005,368.735 C365.116,381.632,371.97,393.592,373.697,406.662 C375.327,419.002,375.691,431.478,375.14,443.845 C374.936,448.414,375.46,453.179,374.816,457.7 C373.56,466.513,370.382,475.128,369.395,483.944 C368.646,490.643,367.976,496.962,366.847,503.581 C366.489,505.678,366.74,507.82,366.103,509.879 C365.465,511.944,363.784,513.419,362.935,515.361 C360.891,520.036,359.565,523.387,356.113,527.322 C352.82,531.078,347.668,536.696,342.185,536.574 C338.579,536.494,334.43,529.644,332.214,527.193 C328.133,522.68,326.083,517.815,323.418,512.427 C321.41,508.367,319.278,504.305,318.749,499.72 C318.077,493.895,319.555,487.898,318.727,482.133 C317.784,475.566,318.532,468.917,317.813,462.362 C317.166,456.47,314.69,450.759,314.015,444.836 C313.256,438.175,313.266,431.056,311.914,424.507 C310.6,418.146,307.951,412.391,306.249,406.194 C303.507,396.208,302.518,386.705,303.277,376.373 C303.646,371.341,303.775,365.742,306.328,361.216 C309.031,356.424,313.75,354.014,317.892,350.651 C320.231,348.752,322.251,346.16,324.958,344.747 C327.668,343.333,330.837,342.976,333.565,341.624 C339.312,338.775,342.583,332.752,345.062,327.042 C346.096,324.661,346.857,320.132,349.178,318.599 C351.447,317.101,354.693,318.157,356.772,319.199 z"/>
      <path id="am9" style="fill:#aaaaaa;fill-opacity:1;fill-rule:nonzero;opacity:1;stroke:none;" d="M292.418,609.684 C293.475,605.104,294.986,600.641,295.929,596.037 C297.121,590.216,297.128,583.507,296.639,577.603 C295.595,565.031,287.364,553.018,288.546,540.378 C289.344,531.84,290.986,522.066,293.958,514.004 C295.595,509.563,299.862,502.649,298.846,497.78 C298.074,494.08,292.171,489.648,289.03,488.084 C285.42,486.288,282.045,483.914,278.131,482.762 C272.901,481.222,267.554,481.428,262.186,480.863 C257.793,480.401,251.617,477.68,247.614,480.036 C250.555,488.044,248.014,497.479,248.518,505.873 C248.805,510.643,250.567,515.121,251.103,519.882 C251.65,524.744,250.845,529.586,250.747,534.447 C250.698,536.871,251.199,539.321,251.081,541.717 C250.485,553.741,247.87,565.75,247.708,577.764 C247.44,597.634,254.604,616.099,260.808,634.671 C262.281,639.081,263.692,643.609,264.622,648.167 C265.517,652.547,266.032,657.027,267.122,661.339 C268.784,667.912,270.017,674.748,270.664,681.588 C271.378,689.125,270.313,696.982,268.137,704.195 C267.292,706.999,265.503,708.932,264.001,711.346 C261.929,714.677,259.897,717.951,257.939,721.354 C256.254,724.283,254.192,726.503,255.17,730.16 C256.336,734.522,262.553,731.423,265.256,731.647 C272.827,732.272,280.44,732.718,288.076,732.189 C291.058,731.983,293.707,732.65,296.612,731.163 C301.504,728.66,301.934,724.653,301.713,719.635 C301.578,716.556,301.553,713.246,300.986,710.219 C300.384,707.004,299.37,704.316,299.372,700.99 C299.373,696.845,300.925,692.732,300.587,688.51 C300.458,686.894,299.223,685.301,298.623,683.833 C297.367,680.766,296.43,677.419,295.514,674.233 C293.453,667.058,292.923,658.684,292.15,651.252 C290.718,637.471,289.306,623.171,292.418,609.684 z"/>
      <path id="am10" style="fill:#aaaaaa;fill-opacity:1;fill-rule:nonzero;opacity:1;stroke:none;" d="M334.412,703.096 C335.252,704.111,336.112,705.332,337.366,705.873 C342.618,708.14,347.478,703.336,348.364,698.372 C349.251,693.401,347.605,688.171,348.065,683.149 C348.986,673.08,351.668,662.998,353.714,653.109 C355.358,645.161,356.634,637.272,358.953,629.468 C359.382,628.022,359.639,626.632,360.16,625.174 C363.74,615.152,367.119,605.071,369.01,594.581 C372.412,575.713,368.331,555.478,366.834,536.63 C366.218,528.874,367.425,520.998,367.914,513.318 C367.975,512.357,367.962,511.2,368.084,510.033 C368.696,504.18,369.358,498.76,369.177,492.862 C369.144,491.779,369.341,487.594,367.959,487.258 C366.628,486.933,365.651,490.605,365.366,491.458 C363.818,496.091,363.012,501.453,362.946,506.213 C359.246,509.807,353.908,512.181,349.212,514.091 C346.395,515.237,342.797,516.587,339.712,516.323 C333.958,515.83,328.993,512.149,323.119,511.75 C325.208,519.965,326.707,528.284,327.992,536.665 C328.65,540.964,329.931,545.174,329.437,549.545 C328.909,554.221,326.256,559.332,324.868,563.855 C322.296,572.239,319.934,581.869,320.09,590.694 C320.26,600.329,324.593,608.089,326.345,617.363 C327.472,623.331,326.59,629.813,326.368,635.845 C326.062,644.155,326.862,652.255,324.894,660.447 C323.774,665.107,324.678,669.962,323.648,674.546 C322.672,678.891,319.421,682.485,318.57,686.822 C317.425,692.653,322.871,697.793,327.335,700.584 C329.629,702.018,331.791,704.93,334.769,704.666 C339.396,704.257,341.987,698.098,343.551,694.511 C346.011,688.866,345.581,683.001,345.977,676.989 C346.405,670.483,347.851,664.649,349.365,658.348"/>
      <path id="am11" style="fill:#aaaaaa;fill-opacity:1;fill-rule:nonzero;opacity:1;stroke:none;" d="M198.886,372.07 C199.289,372.656,200.443,372.741,201.07,372.982 C202.976,373.715,205.003,374.362,206.84,375.26 C211.897,377.732,215.429,381.489,219.761,384.897 C219.508,380.955,218.851,377.052,218.739,373.092 C218.566,366.953,219.449,360.042,221.288,354.171 C224.174,344.959,230.55,337.014,231.716,327.212 C232.424,321.254,233.489,314.82,231.997,308.888 C230.695,303.71,226.562,299.566,227.123,294.174 C227.202,293.417,227.201,292.57,227.263,292.077 C227.474,290.388,228.17,288.777,228.961,287.29 C232.335,280.943,237.508,275.611,241.039,269.347 C243.06,265.761,244.452,261.402,245.546,257.45 C245.808,256.506,246.051,255.485,246.255,254.42 C249.527,262.442,254.491,269.411,258.934,277.046 C261.135,280.828,260.886,285.375,266.71,284.759 C268.817,284.537,271.973,283.95,273.265,282.061 C275.189,279.246,274.339,273.956,275.26,270.717 C276.938,264.816,281.063,258.55,285.52,254.405 C289.52,250.685,293.983,246.353,299.307,244.612 C302.818,243.464,307.733,243.75,310.759,241.705 C312.034,244.174,313.706,247.041,316.567,248.759 C320.062,250.858,325.765,251.088,329.739,251.608 C341.802,253.184,353.904,253.644,364.357,246.297 C368.436,243.429,372.682,239.979,376.07,236.323 C377.859,234.394,377.477,231.747,380.394,230.934 C382.67,230.299,384.706,231.94,386.483,233.119 C391.411,236.39,393.829,242.355,398.52,245.767 C401.765,248.127,407.327,245.346,408.532,241.93 C409.12,240.265,409.313,238.438,409.56,236.694 C410.527,229.855,409.369,221.524,407.29,214.981 C406.29,211.832,404.691,209.234,403.296,206.276 C400.255,199.828,397.189,191.919,391.028,187.777 C385.725,184.213,377.618,182.732,371.372,182.507 C360.673,182.122,350.23,182.857,339.53,183.501 C333.802,183.846,328.018,184.427,322.286,184.897 C318.959,185.17,316.042,185.922,313.063,184.148 C310.523,182.634,307.773,181.709,305.28,180.79 C293.513,176.448,280.276,176.664,269.973,182.948 C269.94,182.937,269.908,182.925,269.876,182.912 C263.31,180.419,257.188,179.644,250.364,180.915 C250.523,180.762,250.403,180.883,250.688,180.604 C249.66,181.74,248.69,183.159,247.136,183.613 C246.268,183.866,245.145,183.249,244.268,183.128 C242.864,182.934,241.095,183.048,239.677,183.133 C235.746,183.368,232.644,184.376,229.239,186.297 C223.752,189.394,219.83,195.237,216.681,200.503 C213.84,205.251,210.408,210.001,209.122,215.498 C208.072,219.988,208.254,225.436,208.429,230.015 C208.488,231.569,208.546,233.073,208.651,234.563 C208.936,238.6,206.435,241.16,204.591,244.466 C202.978,247.359,201.806,250.523,200.503,253.565 C199.143,256.741,197.615,259.807,197.116,263.296 C196.296,269.033,195.156,279.463,196.584,283.158 C196.74,283.562,196.836,283.911,196.898,284.223 C197.639,287.952,195.028,291.063,193.634,294.436 C192.402,297.416,191.436,301.011,191.255,304.237 C191.001,308.738,192.606,312.748,192.89,317.147 C193.039,319.452,193.397,321.848,193.315,324.156 C193.152,328.731,192.309,333.272,192.748,337.872 C193.308,343.742,195.73,349.087,196.874,354.809 C197.666,358.765,197.787,362.808,198.199,366.805 C198.27,367.486,198.231,368.333,198.246,369.182 C198.307,372.511,198.238,375.895,198.155,379.241 C198.095,381.674,197.696,384.109,197.658,386.545 C197.605,389.971,197.841,393.385,197.902,396.81 C197.964,400.318,197.32,403.901,197.931,407.379 C198.47,410.448,200.049,413.444,201.251,416.336 C202.02,418.186,202.549,420.092,203.715,421.77 C204.949,423.543,206.559,425.001,207.982,426.615 C208.953,427.717,209.984,428.411,211.269,429.074 C211.701,429.297,212.139,429.767,212.648,429.779 C215.14,429.833,214.989,428.302,214.419,426.411 C213.628,423.786,211.871,421.357,210.406,419.06 C209.907,418.278,209.608,417.664,209.3,416.784 C209.238,416.607,208.973,416.079,209.179,415.924 C209.427,415.737,209.83,416.669,209.914,416.822 C210.518,417.923,210.922,418.993,211.796,419.944 C213.204,421.477,214.65,423.028,216.032,424.596 C217.28,426.014,218.908,427.728,220.817,428.216 C222.927,428.754,224.995,428.534,227.115,428.354 C227.835,428.292,229.157,428.209,229.503,427.433 C230.389,425.448,228.411,423.839,227.118,422.746 C226.851,422.52,225.701,421.416,226.025,421.057 C226.952,420.025,228.593,421.357,229.51,421.618 C230.314,421.846,231.337,421.548,232.153,421.455 C233.49,421.303,234.936,421.486,235.88,420.238 C236.71,419.142,236.583,416.428,235.656,415.411 C235.305,415.025,233.943,414.831,233.974,414.227 C234.007,413.564,234.978,413.071,235.394,412.658 C236.245,411.814,237.575,409.41,236.79,408.264 C236.056,407.192,233.73,406.928,232.598,407.298 C231.991,407.497,231.449,407.96,230.807,408.023 C229.329,408.168,227.635,406.594,226.889,405.499 C225.751,403.83,225.856,401.931,225.751,399.998 C225.614,397.488,225.43,394.981,224.96,392.508 C224.035,387.641,220.957,383.915,218.327,379.865"/>
      <path id="am12" style="fill:#aaaaaa;fill-opacity:1;fill-rule:nonzero;opacity:1;stroke:none;" d="M270.846,178.039 C270.033,178.275,266.909,179.411,268.623,180.733 C269.732,181.588,272.833,181.044,273.308,179.618 C274.163,177.053,272.803,177.471,270.846,178.039 z"/>
      <path id="am13" style="fill:#aaaaaa;fill-opacity:1;fill-rule:nonzero;opacity:1;stroke:none;" d="M365.317,178.702 C367.707,179.94,369.701,181.533,372.253,182.505 C372.649,182.656,374.466,183.09,374.122,183.783 C373.65,184.735,371.986,184.638,371.147,184.526 C368.277,184.139,366.591,180.934,365.317,178.702 z"/>
      <path id="am14" style="fill:#aaaaaa;fill-opacity:1;fill-rule:nonzero;opacity:1;stroke:none;" d="M256.601,175.087 C256.031,175.557,255.592,176.157,255.017,176.615 C252.616,178.531,250.013,180.228,247.469,181.949 C247.09,182.205,246.696,182.419,246.294,182.611 C246.143,182.683,245.903,182.76,245.616,182.843 C244.5,183.168,241.253,183.324,242.775,184.69 C242.819,184.73,242.87,184.77,242.928,184.811 C243.735,185.381,245.553,185.038,246.315,184.978 C248.784,184.783,250.061,183.247,251.517,181.416 C252.796,179.809,254.041,178.171,255.324,176.577"/>
      <path id="am15" style="fill:#aaaaaa;fill-opacity:1;fill-rule:nonzero;opacity:1;stroke:none;" d="M261.091,328.626 C261.847,329.847,262.276,340.082,264.789,345.425 C267.409,350.996,273.94,355.302,278.376,359.324 C282.557,363.115,286.022,367.799,290.68,371.064 C304.667,380.87,323.727,370.362,334.255,360.192 C336.066,358.443,338.412,357.238,340.019,355.256 C343.334,351.167,346.277,346.701,349.363,342.401 C352.698,337.754,356.465,330.918,357.256,325.167 C358.257,317.885,357.665,309.405,356.902,302.128 C356.277,296.169,354.787,288.63,356.406,282.74 C359.158,272.732,366.378,264.576,371.001,255.874 C376.2,268.756,385.501,279.883,390.721,292.991 C390.795,293.175,390.874,293.349,390.959,293.512 C393.482,298.345,387.883,303.175,386.757,308.582 C385.404,315.081,386.646,322.249,387.397,328.767 C388.708,340.139,395.99,349.325,398.496,360.282 C399.146,363.129,398.454,366.77,398.374,369.689 C398.262,373.802,398.264,377.901,397.833,382.011 C397.485,385.328,393.687,387.564,392.89,390.991 C392.211,393.909,392.848,396.66,392.556,399.575 C392.322,401.91,390.969,404.759,389.698,406.716 C389.075,407.674,387.756,408.806,386.525,408.603 C385.591,408.449,384.87,407.948,383.871,407.91 C382.803,407.869,381.246,408.142,381.193,409.511 C381.087,412.281,384.325,412.048,385.11,414.051 C385.381,414.743,383.163,414.801,382.791,415.178 C382.142,415.835,382.28,418.398,382.753,419.115 C383.912,420.872,387.152,421.284,389.222,421.201 C389.88,421.174,391.333,420.781,391.912,421.178 C392.274,421.426,390.805,422.658,390.6,422.815 C390.222,423.107,389.659,423.162,389.328,423.489 C388.19,424.613,388.444,426.538,389.717,427.37 C390.651,427.98,391.695,427.611,392.719,427.765 C394.007,427.958,395.184,428.29,396.504,428.053 C399.587,427.501,403.382,423.695,404.821,421.029 C404.424,423.291,403.141,425.265,402.791,427.505 C402.664,428.313,403.105,429.544,403.983,429.77 C405.396,430.134,406.935,428.964,408.086,428.253 C410.697,426.638,412.698,424.629,414.725,422.331 C415.583,421.359,416.68,420.224,417.032,418.942 C419.403,410.318,420.38,401.17,420.382,392.208 C420.383,389.939,419.98,387.711,419.912,385.459 C419.819,382.346,420.135,379.21,420.112,376.101 C420.086,372.63,420.022,369.346,420.138,365.855 C420.163,365.094,420.146,364.329,420.227,363.632 C420.706,359.536,421.023,355.469,421.616,351.382 C422.69,343.983,424.375,336.6,424.962,329.13 C425.369,323.954,425.302,318.707,425.603,313.518 C425.863,309.05,426.851,304.399,426.354,299.922 C425.962,296.39,424.019,293.57,422.35,290.563 C421.708,289.407,420.69,288.216,420.439,286.894 C418.959,279.077,422.888,270.873,420.33,263.082 C419.93,261.864,419.416,260.66,419.052,259.5 C418.37,257.325,418.035,255.073,417.291,252.878 C415.908,248.797,414.324,244.988,412.072,241.294 C411.35,240.11,410.624,238.316,409.496,237.466 C408.94,237.048,408.182,237.952,407.703,238.184 C406.259,238.883,405.014,239.131,403.446,238.665 C394.931,236.139,385.801,222.422,376.502,230.666 C374.643,232.313,373.343,234.78,371.826,236.737 C370.612,238.303,368.854,239.247,368.011,240.633 C362.85,239.527,358.413,242.598,352.865,240.749 C350.498,239.961,348.914,238.149,346.836,236.887 C342.559,234.29,338.111,231.641,333.545,229.588 C326.171,226.272,318.812,227.494,311.087,228.07 C306.657,228.4,302.449,228.179,298.34,230.05 C293.641,232.189,289.499,235.644,285.658,239.033 C275.427,248.06,265.418,260.565,262.326,274.167 C260.351,282.857,261.694,292.486,260.765,301.391 C260.207,306.743,258.916,311.969,259.188,317.379 C259.279,319.183,259.265,327.418,259.172,329.192 C258.65,339.177,255.995,342.484,255.535,352.95 C255.225,360.002,256.232,366.79,255.073,373.821 C253.384,384.064,248.455,393.76,246.036,403.909 C241.731,421.978,241.727,440.157,244.287,458.497 C245.818,469.466,246.769,482.798,252.711,492.437 C254.798,495.823,256.697,499.644,260.827,500.876 C264.063,501.842,267.742,498.217,271.351,498.223 C275.65,498.229,279.748,501.481,283.553,503.072 C285.637,503.943,287.969,503.904,290.176,504.166 C292.25,504.413,296.064,504.816,297.67,503.104 C300.042,500.576,299.281,494.838,298.988,491.721 C298.242,483.767,299.177,475.25,299.871,467.302 C300.345,461.879,302.3,456.819,303.295,451.506 C304.909,442.895,305.87,434.021,306.913,425.327 C308.178,414.781,307.423,404.259,307.706,393.688 C307.913,385.919,308.772,378.24,308.772,370.439"/>
      <path id="am16" style="fill:#aaaaaa;fill-opacity:1;fill-rule:nonzero;opacity:1;stroke:none;" d="M318.945,685.489 C317.658,688.981,316.698,693.022,317.335,696.778 C317.778,699.391,319.119,701.939,319.29,704.561 C319.536,708.342,318.143,712.372,317.539,716.085 C316.974,719.556,314.914,724.819,316.838,728.089 C318.592,731.067,323.119,731.567,326.204,732.023 C329.374,732.491,332.587,733.53,335.817,733.474 C336.811,733.457,337.599,732.837,338.57,732.799 C341.417,732.688,344.31,732.855,347.176,732.745 C348.336,732.701,349.384,732.114,350.556,732.103 C352.295,732.088,354.183,731.581,355.881,731.708 C357.814,731.853,360.707,732.894,362.336,731.286 C363.158,730.475,362.708,728.694,362.808,727.628 C363.189,723.574,359.84,721.525,357.536,718.867 C356.263,717.399,355.262,715.571,354.407,713.835 C353.346,711.68,352.476,709.375,351.367,707.261 C350.782,706.145,349.684,705.272,349.316,704.056 C348.43,701.123,349.126,697.417,347.372,694.806 C342.64,687.76,333.331,685.677,325.401,685.756 C323.049,685.779,319.787,683.205,318.945,685.489 z"/>
    </g>
  </g>
  <g id="am17">
    <g id="am18">
      <path id="am19" style="fill:#8cc63f;fill-opacity:1;fill-rule:nonzero;opacity:1;stroke:none;" d="M306.409,422.372 C306.265,425.639,306.417,428.904,306.052,432.165 C305.649,435.767,304.589,439.283,304.202,442.876 C303.763,446.946,303.716,451.004,302.895,455.037 C302.592,456.526,301.966,457.881,301.511,459.318 C300.407,462.803,299.036,466.252,298.828,469.886 C298.718,471.808,298.65,473.737,298.646,475.679 C298.633,483.445,299.99,491.199,298.661,498.987 C297.455,506.051,294.873,512.232,292.81,518.987 C291.921,521.898,292.223,524.927,291.577,527.858 C290.314,533.585,288.863,539.026,288.921,544.944 C288.964,549.203,291.28,553.195,292.403,557.204 C294.674,565.305,296.317,573.547,297.028,581.931 C297.417,586.52,296.731,590.44,296.358,595.087 C295.698,603.295,290.571,610.673,291.202,618.728 C292.021,629.179,291.809,639.556,292.209,650.055 C292.309,652.685,292.393,655.416,293.193,657.911 C294.955,663.404,294.116,669.225,295.509,674.716 C297.019,680.668,300.683,686.12,301.072,692.321 C301.209,694.517,299.921,696.937,299.713,699.147 C299.302,703.498,299.943,707.544,300.498,711.846 C300.668,713.157,300.808,714.556,301.12,715.841 C302.274,720.59,305.839,728.587,299.225,731.21 C295.483,732.694,292.391,731.941,288.583,732.201 C281.036,732.717,273.421,732.491,265.925,731.677 C262.492,731.304,257.068,733.075,255.36,729.234 C254.005,726.186,255.61,723.965,257.333,721.56 C260.138,717.647,263.869,714.076,266.265,709.927 C267.355,708.039,269.404,705.342,269.893,703.268 C270.938,698.835,269.762,693.859,270.092,689.351 C270.401,685.124,270.768,680.389,270.073,676.195 C267.065,658.048,261.214,640.294,256.515,622.603 C255.103,617.287,253.496,611.921,251.582,606.826 C250.735,604.57,250.064,602.262,249.669,599.894 C248.292,591.636,247.567,582.412,247.982,574.073 C248.286,567.974,249.702,561.862,250.404,555.856 C251.159,549.403,250.74,542.833,251.031,536.401 C251.083,535.254,251.711,534.211,251.683,533.044 C251.569,528.248,251.741,523.116,250.936,518.368 C250.288,514.549,249.119,510.828,248.858,506.931 C248.466,501.058,249.547,495.085,248.917,489.253 C248.335,483.865,246.55,478.721,245.727,473.381 C244.696,466.695,244.499,459.65,243.87,452.922 C243.471,448.644,243.611,444.307,243.447,439.993 C242.903,425.714,242.977,411.547,246.7,397.543 C249.37,387.497,253.725,378.422,255.232,368.014 C255.797,364.116,255.181,359.979,255.133,356.055 C255.07,350.81,255.831,345.467,256.447,340.27 C257.064,335.053,257.058,331.196,259.52,326.408 C260.245,326.614,261.314,326.721,261.894,327.227 C264.101,329.156,261.863,333.432,263.412,335.48 C265.062,337.66,268.301,337.901,270.166,340.173 C271.878,342.258,272.628,344.974,273.789,347.361 C275.385,350.642,277.708,353.749,279.736,356.775 C282.737,361.254,286.635,366.108,290.457,369.926 C291.669,371.137,295.313,372.422,295.784,373.977 C296.147,375.177,294.791,376.675,294.725,377.91 C294.506,381.996,294.771,386.106,294.508,390.174 C294.364,392.419,293.896,395.454,294.712,397.597 C295.136,398.712,295.908,400.455,297.077,400.934 C298.153,401.375,299.208,400.795,300.29,400.904 C302.109,401.088,305.715,402.938,306.47,404.591 C308.471,408.969,307.462,416.057,306.912,420.652 C306.842,421.241,306.435,421.782,306.409,422.372 z"/>
      <path id="am20" style="fill:#8cc63f;fill-opacity:1;fill-rule:nonzero;opacity:1;stroke:none;" d="M348.805,702.101 C350.67,706.458,352.577,711.238,355.311,715.123 C357.518,718.26,360.927,720.698,362.598,724.206 C363.533,726.168,364.17,728.275,364.203,730.416 C364.215,731.185,364.424,732.184,363.633,732.667 C362.724,733.222,361.834,733.005,360.855,733.049 C358.073,733.174,355.391,732.802,352.642,732.835 C350.141,732.865,347.429,732.447,344.997,732.553 C340.588,732.745,336.218,733.589,331.754,733.334 C330.392,733.257,329.1,732.787,327.757,732.699 C323.85,732.44,318.979,731.944,317.069,727.777 C316.158,725.791,316.74,724.587,316.682,722.599 C316.475,715.551,321.527,707.441,318.323,701.736 C317.943,701.059,317.617,700.281,317.352,699.382 C314.769,690.622,322.623,682.472,323.954,674.178 C324.212,672.568,323.66,670.995,323.823,669.4 C324.228,665.431,325.677,661.488,325.893,657.534 C325.945,656.576,326.61,655.659,326.685,654.684 C327.049,649.945,326.332,645.327,326.202,640.572 C325.968,632.025,328.457,622.636,325.616,615.014 C325.26,614.061,324.989,613.168,324.829,612.79 C322.265,606.728,321.453,600.802,321.036,594.245 C320.361,583.634,321.788,573.11,324.474,562.838 C325.831,557.652,328.932,552.502,329.559,547.188 C330.059,542.949,328.39,538.876,327.62,534.77 C326.639,529.538,327.538,524.066,324.629,519.56 C323.771,518.231,322.858,516.875,322.356,515.389 C320.916,511.12,319.639,506.936,319.419,502.4 C319.254,498.982,319.709,495.534,319.57,492.096 C319.425,488.528,318.411,485.1,318.433,481.489 C318.463,476.625,319.279,471.704,318.648,466.844 C318.395,464.898,318.3,462.854,317.838,460.944 C317.171,458.183,315.971,455.612,315.376,452.824 C314.162,447.131,313.59,441.3,312.662,435.551 C312.133,432.268,311.352,429.144,310.604,425.975 C310.177,424.167,309.968,424.959,309.965,420.275 C309.961,414.314,310.162,407.472,314.562,402.77 C317.346,399.794,321.459,400.103,323.258,395.972 C325.674,390.423,324.951,384.328,324.634,378.45 C324.53,376.504,323.484,372.766,324.254,370.976 C324.519,370.359,325.355,370.031,325.797,369.541 C326.893,368.327,328.022,367.099,329.051,365.828 C333.828,359.93,339.537,354.887,343.741,348.536 C346.083,344.998,348.398,340.681,351.282,337.568 C352.503,336.25,355.099,335.712,356.013,334.339 C356.604,333.452,356.189,331.978,356.247,330.972 C356.313,329.814,356.878,328.789,357.013,327.651 C357.08,327.089,357.367,325.295,358.361,325.772 C360.137,326.624,360.059,330.594,360.217,332.168 C360.867,338.603,361.247,344.969,362.409,351.349 C363.882,359.439,363.165,367.891,364.755,375.994 C366.09,382.798,368.888,389.26,370.631,395.948 C372.127,401.687,371.297,407.819,372.856,413.526 C377.433,430.28,376.213,449.078,373.309,466.039 C373.245,466.411,373.14,466.774,373.06,467.143 C372.705,468.78,372.654,470.472,372.268,472.102 C371.237,476.455,369.962,480.866,369.46,485.322 C369.221,487.448,369.11,489.636,369.308,491.734 C369.813,497.093,369.811,502.379,369.225,507.984 C368.725,512.763,367.228,517.588,367.22,522.416 C367.204,532.133,366.89,542.339,367.894,552.004 C368.167,554.625,365.814,557.821,367.071,560.318 C371.855,569.824,369.77,580.992,368.517,591.061 C367.559,598.763,366.193,606.3,364.035,613.771 C362.568,618.85,360.216,623.687,358.807,628.785 C356.384,637.556,355.02,646.55,352.958,655.411 C351.759,660.562,348.868,665.664,348.329,670.929 C347.859,675.528,346.614,680.013,346.604,684.693 C346.592,689.826,347.968,694.455,348.722,699.463 C348.855,700.345,348.48,701.341,348.805,702.101 z"/>
    </g>
  </g>
  <g id="am21">
    <path id="am22" style="fill:#dada3f;fill-opacity:1;fill-rule:nonzero;opacity:1;stroke:none;" d="M356.607,300.195 C356.437,297.819,356.607,295.376,356.607,292.989 C356.607,291.438,356.389,289.823,356.511,288.282 C356.613,286.98,356.789,285.749,356.764,284.431 C356.758,284.116,356.808,283.297,356.647,283.037 C356.496,282.793,355.361,283.464,355.188,283.467 C353.876,283.496,352.436,284.412,351.164,284.596 C349.439,284.846,347.192,283.534,345.884,282.509 C342.21,279.631,343.173,276.194,342.34,272.059 C341.655,268.657,340.24,265.432,339.001,262.202 C336.757,256.348,330,250.885,324.894,247.622 C323.386,246.658,322.075,245.195,320.322,244.693 C317.009,243.743,311.386,244.509,307.897,244.653 C303.72,244.826,298.591,244.881,294.734,246.65 C288.02,249.729,282.101,257.721,278.612,264.081 C275.585,269.6,275.688,276.226,272.497,281.443 C271.182,283.592,268.579,286.253,265.824,286.435 C264.561,286.519,262.701,285.066,261.296,284.924 C262.997,292.622,261.002,299.831,260.432,307.539 C260.195,310.748,260.155,313.984,259.953,317.203 C259.814,319.436,259.746,321.689,259.739,323.927 C259.737,324.601,259.561,325.237,259.5,325.901 C259.486,326.049,259.491,326.216,259.52,326.408 C259.862,328.617,262.16,332.238,262.804,334.37 C263.681,337.278,267.231,337.142,268.992,338.985 C271.809,341.932,273.822,347.12,275.741,350.742 C278.875,356.661,283.485,361.514,287.845,366.551 C289.676,368.666,292.539,371.535,295.568,371.784 C296.828,371.888,297.889,370.362,298.915,369.772 C301.57,368.246,303.704,366.843,306.762,366.355 C310.787,365.712,315.191,367.224,318.867,368.703 C320.084,369.192,321.789,371.054,323.093,371.006 C325.245,370.928,327.693,367.097,329.051,365.828 C332.413,362.69,335.4,359.019,338.306,355.409 C341.123,351.909,343.102,348.534,345.913,345.107 C348.294,342.203,350.612,338.326,353.655,336.029 C355.089,334.947,357.467,333.647,357.872,331.729 C358.474,328.881,358.032,326.171,358.117,323.329 C358.297,317.32,358.79,311.049,357.82,305.069 C357.56,303.467,356.729,301.901,356.607,300.195 z"/>
  </g>
  <g id="am23">
    <g id="am24">
      <path id="am25" style="fill:#da8e0c;fill-opacity:1;fill-rule:nonzero;opacity:1;stroke:none;" d="M231.613,228.217 C226.79,233.522,223.989,240.533,218.152,244.829 C216.775,245.843,214.514,248.255,212.652,248.054 C211.221,247.899,210.637,241.618,210.394,240.257 C210.308,239.773,210.307,237.441,209.555,237.553 C206.253,238.044,204.096,245.381,203.067,247.871 C198.017,260.09,197.596,270.093,197.614,283.15 C197.626,291.064,192.282,297.176,191.525,305.057 C191.069,309.81,192.985,313.779,193.211,318.336 C193.465,323.444,192.451,328.495,192.815,333.594 C193.404,341.835,195.782,349.717,196.957,357.823 C197.597,362.243,197.922,366.723,198.275,371.174 C198.372,372.4,198.014,375.242,198.695,376.235 C198.872,376.495,204.977,374.442,206.488,374.851 C209.245,375.596,211.815,377.315,213.8,379.3 C214.551,380.051,215.806,382.46,216.742,382.725 C217.901,383.054,219.05,380.168,219.097,379.339 C219.345,374.96,218.891,370.58,218.891,366.209 C218.891,356.161,223.304,349.345,226.863,340.474 C231.775,328.228,232.182,317.315,231.139,304.341 C230.785,299.939,227.308,297.102,227.969,292.16 C229.793,278.516,243.498,270.468,246.617,257.586 C247.358,254.525,246.648,251.599,246.346,248.558 C246.023,245.305,245.298,242.357,243.498,239.592 C240.497,234.982,235.455,232.058,231.613,228.217 z"/>
      <path id="am26" style="fill:#da8e0c;fill-opacity:1;fill-rule:nonzero;opacity:1;stroke:none;" d="M385.277,228.811 C377.578,236.172,368.67,247.909,371.455,259.375 C372.888,265.277,378.851,270.85,382.187,275.844 C386.156,281.784,389.09,289.774,391.045,296.585 C392.02,299.98,388.43,302.242,388.061,305.337 C387.187,312.649,387.08,319.692,387.784,327.066 C388.234,331.777,389.15,337.223,390.773,341.68 C392.848,347.376,395.93,353.008,397.32,358.916 C399.125,366.589,398.016,374.69,398.102,382.477 C400.219,382.037,401.285,379.74,402.632,378.282 C404.641,376.108,407.355,374.024,410.136,372.963 C411.766,372.342,413.994,372.427,415.536,373.27 C416.018,373.534,418.122,375.506,418.491,374.973 C419.125,374.056,418.383,371.972,418.591,370.871 C419.568,365.716,419.822,360.411,420.795,355.262 C421.92,349.31,423.383,343.497,424.126,337.461 C425.019,330.203,424.497,322.637,424.863,315.313 C425.12,310.189,426.73,304.753,426.269,299.652 C425.699,293.351,421.33,288.24,420.958,281.842 C420.637,276.322,421.934,270.537,421.181,265.079 C420.276,258.512,416.948,252.449,414.117,246.571 C412.952,244.153,412.038,241.627,410.896,239.198 C410.615,238.6,410.026,236.951,409.374,236.699 C408.93,236.528,408.981,237.93,408.962,238.139 C408.815,239.779,408.631,241.518,408.082,243.08 C406.901,246.438,404.342,246.85,401.153,245.953 C395.789,244.445,393.48,237.851,390.636,233.661 C389.115,231.42,387.526,226.661,385.277,228.811 z"/>
    </g>
  </g>
  <g id="am27">
    <g id="am28">
      <path id="am29" style="fill:#302eab;fill-opacity:1;fill-rule:nonzero;opacity:1;stroke:none;" d="M247.444,183.231 C247.425,183.083,247.412,182.928,247.404,182.768 C242.253,181.987,238.22,183.545,233.634,185.49 C228.837,187.524,223.936,189.288,220.637,193.653 C217.81,197.391,216.537,202.13,214.37,206.261 C210.995,212.694,208.229,218.746,208.176,226.259 C208.139,231.619,208.556,236.973,209.766,242.209 C210.106,243.68,210.883,246.674,212.284,247.488 C213.871,248.411,216.121,246.421,217.206,245.399 C220.945,241.874,223.77,237.647,227.113,233.781 C231.64,228.544,232.111,221.923,235.451,216.102 C239.59,208.889,245.508,204.565,251.105,198.719 C252.694,197.06,253.415,195.076,254.789,193.308 C256.97,190.5,259.477,188.173,262.389,186.214 C264.635,184.704,267.675,185.019,270.382,184.722 C273.865,184.34,277.305,183.978,280.819,184.004 C280.469,180.415,280.339,175.92,282.277,172.762 C283.359,170.999,284.866,169.923,286.37,168.571 C287.258,167.772,288.018,166.876,288.85,166.028 C289.411,165.456,290.222,164.969,290.644,164.28 C290.997,163.705,290.669,162.464,290.575,161.819 C290.315,160.029,289.81,158.268,289.539,156.473 C289.43,155.753,289.637,154.72,289.31,154.067 C288.291,155.649,287.263,157.55,285.892,158.869 C285.401,159.341,284.769,159.565,284.251,159.988 C280.698,162.891,276.118,165.001,271.825,166.683 C269.176,167.721,266.429,168.6,263.885,169.887 C259.787,171.961,256.336,175.153,252.863,178.078 C251.829,178.949,250.745,179.91,249.689,180.719 C249.021,181.23,248.141,181.881,247.707,182.441 C247.257,183.023,247.07,182.586,246.369,182.84"/>
      <path id="am30" style="fill:#302eab;fill-opacity:1;fill-rule:nonzero;opacity:1;stroke:none;" d="M382.582,219.826 C382.174,219.243,381.772,218.657,381.389,218.062 C380.417,216.555,379.054,215.284,378.133,213.747 C376.909,211.705,375.978,209.475,374.53,207.569 C372.162,204.453,368.566,202.565,366.19,199.432 C365.125,198.029,365.064,196.027,364.16,194.583 C363.89,194.151,363.604,193.724,363.281,193.308 C361.099,190.5,358.592,188.173,355.679,186.214 C353.432,184.704,350.392,185.019,347.684,184.722 C344.201,184.34,340.759,183.978,337.245,184.004 C337.595,180.415,337.725,175.921,335.787,172.762 C334.704,170.999,333.197,169.923,331.693,168.571 C330.804,167.772,330.044,166.876,329.212,166.028 C328.651,165.456,327.84,164.969,327.418,164.28 C327.065,163.705,327.393,162.464,327.486,161.819 C327.747,160.029,328.252,158.268,328.523,156.474 C328.632,155.753,329.053,154.069,329.379,153.415 C330.088,155.365,330.799,157.55,332.171,158.869 C332.663,159.341,333.294,159.565,333.812,159.988 C337.366,162.891,341.947,165.001,346.241,166.683 C348.891,167.721,351.638,168.6,354.183,169.887 C358.282,171.961,361.733,175.153,365.207,178.078 C366.014,178.757,366.701,179.696,367.629,180.227 C369.184,181.116,370.805,182.679,372.367,182.59 C374.544,182.467,376.527,182.816,378.508,183.26 C382.268,184.102,386.2,184.782,389.572,186.756 C390.988,187.586,392.452,189.189,393.677,190.054 C395.067,191.036,396.342,192.201,397.44,193.653 C400.268,197.391,401.541,202.13,403.709,206.261 C407.084,212.694,409.851,218.746,409.904,226.259 C409.941,231.619,409.524,236.973,408.313,242.209 C407.973,243.68,407.196,246.674,405.795,247.488 C404.744,248.099,403.402,247.434,402.301,246.617 C400.555,245.323,398.436,244.794,396.777,243.323 C395.194,241.921,394.179,239.874,393.139,238.073 C391.992,236.086,390.971,234.001,389.676,232.108 C388.702,230.683,387.952,229.181,387.306,227.639 C386.146,224.872,384.328,222.32,382.582,219.826 z"/>
    </g>
  </g>
  <g id="am31">
    <path id="am32" style="fill:#30beab;fill-opacity:1;fill-rule:nonzero;opacity:1;stroke:none;" d="M369.953,203.081 C373.11,205.246,374.869,208.231,376.894,211.331 C377.984,213,379.569,215.615,380.823,217.152 C381.851,218.414,382.415,219.769,383.307,221.125 C384.466,222.888,384.891,223.488,385.857,225.371 C386.168,225.977,387.331,227.281,387.4,227.992 C387.443,228.43,386.767,228.139,386.446,228.266 C385.368,228.694,383.688,230.512,382.842,231.253 C379.788,233.93,377.627,237.328,375.455,240.767 C373.36,244.084,371.63,246.943,371.384,250.833 C371.312,251.964,371.1,253.162,371.148,254.293 C371.187,255.198,371.483,256.296,371.192,257.181 C370.49,259.318,368.224,261.386,366.895,263.168 C364.519,266.353,362.629,269.605,360.686,273.061 C359.689,274.836,358.276,276.908,357.558,278.767 C356.695,281.004,357.494,282.689,354.701,283.499 C351.742,284.356,350.505,285.546,347.434,283.776 C343.348,281.42,343.145,278.228,342.667,274.366 C342.243,270.94,341.491,268.159,340.095,264.998 C339.177,262.919,338.159,259.936,336.874,258.07 C335.117,255.522,333.356,253.873,330.866,252.003 C329.264,250.8,327.119,249.192,325.441,248.118 C323.82,247.08,322.404,245.582,320.531,244.966 C319.595,244.658,318.639,244.774,317.671,244.717 C315.596,244.594,313.625,244.352,311.537,244.441 C305.203,244.711,298.278,243.543,293.236,247.227 C292.956,247.432,292.648,247.682,292.298,247.996 C290.77,249.363,286.894,252.841,285.381,254.231 C283.035,256.385,281.183,260.907,279.063,263.275 C276.949,265.634,277.151,267.416,276.247,270.402 C275.85,271.716,275.64,274.169,275.308,275.505 C274.734,277.812,274.638,277.945,273.335,279.895 C272.409,281.28,270.575,284.864,269.009,285.679 C268.172,286.115,266.559,286.219,265.612,286.408 C264.912,286.548,264.13,286.015,263.519,285.746 C262.814,285.435,261.774,285.55,261.191,284.957 C260.861,284.621,261.003,283.633,260.914,283.175 C260.669,281.904,260.25,280.322,259.651,279.164 C258.297,276.551,257.398,273.718,255.913,271.146 C254.745,269.124,253.136,267.385,251.915,265.397 C249.813,261.975,247.736,258.232,247.022,254.327 C246.847,253.371,246.938,252.094,246.882,251.563 C246.496,247.889,245.897,243.745,244.277,240.387 C243.723,239.24,242.592,238.452,241.772,237.522 C239.678,235.145,237.314,233.18,234.927,231.123 C233.773,230.128,231.987,229.4,231.369,227.89 C231.047,227.104,231.645,226.145,231.875,225.419 C232.517,223.394,233.371,221.466,234.177,219.497 C236.729,213.263,241.545,208.045,246.308,203.435 C249.522,200.325,252.486,197.897,254.89,193.979 C255.289,193.327,255.714,192.687,256.201,192.071 C258.102,189.666,259.896,186.705,262.844,185.888 C275.073,182.497,288.402,184.157,300.717,186.225 C304.746,186.902,308.668,188.361,312.766,188.572 C317.498,188.815,321.438,185.868,326.021,185.246 C334.552,184.089,344.376,184.52,352.866,185.832 C356.167,186.342,361.599,190.044,363.291,192.944 C364.49,194.999,364.812,197.325,366.148,199.325 C366.793,200.291,368.736,202.246,369.953,203.081 z"/>
  </g>
</svg>
